<?xml version="1.0" encoding="UTF-8"?>
<svg width="819px" height="1177px" viewBox="0 0 819 1177" version="1.1" xmlns="http://www.w3.org/2000/svg" xmlns:xlink="http://www.w3.org/1999/xlink">
    <!-- Generator: Sketch 52.3 (67297) - http://www.bohemiancoding.com/sketch -->
    <title>Group 5</title>
    <desc>Created with Sketch.</desc>
    <g id="Page-1" stroke="none" stroke-width="1" fill="none" fill-rule="evenodd">
        <g id="Group-5" transform="translate(0.000000, -1.000000)" fill="#90F6DF">
            <path d="M576.6826,398.7399 C559.0496,354.5139 537.6096,312.2169 511.9446,272.0649 C486.3846,232.0799 456.7086,195.4309 422.4656,162.6559 C400.3676,141.5059 376.3006,122.6589 350.6716,105.8099 C318.0256,84.3509 283.2916,67.2279 246.1466,55.3119 C225.8006,48.7849 204.7696,44.9409 183.3316,43.6359 C147.1776,41.4359 112.6746,48.0499 79.2126,61.6899 C60.3466,69.3809 45.3256,81.9279 31.3076,96.1399 C23.9926,103.5559 16.5616,110.8629 9.0226,118.0509 C7.8006,119.2149 5.2286,120.4999 4.1806,119.9659 C2.3886,119.0519 0.3466,116.8489 0.1406,114.9949 C-0.2324,111.6579 0.1496,108.0179 1.1376,104.7869 C6.0136,88.8359 12.7056,73.5109 22.7516,60.2689 C31.9016,48.2089 44.3926,39.3899 57.5906,31.9689 C75.1736,22.0819 93.9646,15.0369 113.4816,10.1069 C133.2606,5.1109 153.3516,2.0509 173.7976,1.2529 C202.0886,0.1479 230.0476,2.5109 257.2226,10.4019 C275.6296,15.7489 294.0646,21.6009 311.5516,29.3419 C328.8346,36.9919 345.0566,47.0969 361.5376,56.4879 C382.4456,68.3989 401.4416,83.1179 419.4346,98.9349 C435.6586,113.1979 451.1616,128.3489 466.2446,143.8279 C501.6466,180.1569 531.8586,220.6159 559.3666,263.1549 C577.4636,291.1399 594.3206,319.8739 608.3016,350.1149 C620.2456,375.9489 631.8246,402.0389 641.7766,428.6829 C653.7136,460.6419 663.3116,493.4739 669.9156,526.9999 C675.7866,556.8039 681.7466,586.6739 685.5426,616.7829 C689.5956,648.9239 691.1576,681.3789 693.8466,714.1739 C692.1236,745.6039 691.1356,777.3979 688.4426,809.0479 C685.5336,843.2409 678.6616,876.8259 668.7336,909.7339 C664.1276,925.0019 658.9496,939.8709 649.4746,953.1039 C635.8446,972.1379 610.8976,969.0149 599.9686,951.5939 C596.4516,945.9869 593.1826,940.2019 590.1406,934.3219 C586.6356,927.5499 588.0856,920.3299 595.0306,917.3339 C607.3436,912.0229 612.3666,902.6539 615.6876,890.2979 C622.3286,865.5929 627.3866,840.6619 631.1016,815.3769 C636.1196,781.2269 637.8896,746.8739 637.6106,712.4399 C637.4486,692.4549 636.1516,672.4529 634.6716,652.5109 C631.5936,611.0289 625.4246,569.9609 616.5456,529.3259 C606.8006,484.7259 593.5916,441.1479 576.6826,398.7399 Z M810.0766,891.8649 C819.8446,900.1929 820.0956,911.3719 817.7256,922.9469 C813.5126,943.5399 802.7526,960.8269 791.0206,977.8659 C779.4386,994.6879 763.9256,1007.0899 748.0566,1019.2169 C721.0326,1039.8689 691.4216,1056.5089 662.4316,1074.1309 C643.4746,1085.6539 625.0236,1098.0169 606.4466,1110.1579 C592.1296,1119.5149 581.8406,1132.8469 571.3736,1146.0449 C562.7396,1156.9309 553.9046,1167.8019 541.2996,1174.4699 C527.0536,1182.0069 506.9756,1174.5169 504.0986,1160.7049 C502.4196,1152.6399 503.0196,1144.5369 505.3856,1136.7219 C508.2656,1127.2129 512.0046,1117.9599 514.7896,1108.4259 C519.0556,1093.8209 523.7346,1079.2459 526.5826,1064.3419 C530.4646,1044.0239 533.3996,1023.4759 535.6496,1002.9089 C539.5546,967.2069 539.8436,931.3539 537.0246,895.5549 C536.0776,883.5209 532.8166,871.6739 531.8046,859.6399 C530.7736,847.3749 531.1006,834.9879 531.1326,822.6539 C531.1366,821.0329 532.9136,819.4159 533.8706,817.7969 C535.4236,819.0639 537.7626,820.0209 538.4056,821.6479 C543.6946,835.0439 549.1876,848.3959 553.6236,862.0849 C561.2356,885.5739 566.5776,909.6329 570.2026,934.0919 C575.7396,971.4429 575.9836,1008.9069 573.1606,1046.4509 C572.5196,1054.9799 571.1816,1063.4589 570.0236,1073.1419 C578.8296,1067.0969 586.5986,1061.5419 594.5886,1056.3259 C612.0756,1044.9089 629.7146,1033.7219 647.2166,1022.3279 C659.1186,1014.5779 670.9966,1006.7829 682.6966,998.7319 C694.5556,990.5719 706.6276,982.6179 717.7596,973.5349 C725.3566,967.3369 731.7196,959.5479 738.2506,952.1329 C752.0836,936.4279 765.5356,920.3849 779.4276,904.7319 C783.8826,899.7129 789.0966,895.3299 794.2046,890.9369 C799.5556,886.3359 803.3716,886.1489 810.0766,891.8649 Z" id="Shape"></path>
        </g>
    </g>
</svg>