<?xml version="1.0" encoding="UTF-8"?>
<svg width="17px" height="19px" viewBox="0 0 17 19" version="1.1" xmlns="http://www.w3.org/2000/svg" xmlns:xlink="http://www.w3.org/1999/xlink">
    <title>Group 26</title>
    <g id="Page-1" stroke="none" stroke-width="1" fill="none" fill-rule="evenodd">
        <g id="Mobile-Copy-307" transform="translate(-76.000000, -997.000000)" fill="#4A4A4A">
            <g id="Group-26" transform="translate(76.000000, 997.000000)">
                <path d="M12.6123656,0.5 C12.9829168,0.501388508 13.2768967,0.796762807 13.2789157,1.17415524 C13.2810621,1.56888195 13.2794045,1.96365058 13.2794257,2.35839825 L13.2794257,2.48533458 L15.6846931,2.48548131 C16.4351252,2.48608916 17,3.04403469 17,3.78492281 L17,3.78492281 L17,17.1995314 C17,17.9394344 16.4330637,18.5 15.6847144,18.5 L15.6847144,18.5 L1.31837519,18.5 C0.571300985,18.5 0.000512745377,17.9381977 0.000406485,17.2002231 L0.000406485,17.2002231 L0.000406485,3.78565642 C0.000491493301,3.04631938 0.56868698,2.48629876 1.31686629,2.48548131 L1.31686629,2.48548131 L3.41846277,2.48533458 L3.41867529,1.17820061 C3.41950412,0.795651904 3.70264552,0.504972741 4.07738337,0.5 C4.44591561,0.495247104 4.74620743,0.787183893 4.75132918,1.16593876 C4.7566422,1.56062355 4.75260431,1.9554341 4.75264681,2.35018177 L4.75264681,2.35018177 L4.75264681,2.47929798 L11.9423302,2.47929798 L11.9424789,1.18002416 C11.9430952,0.794897329 12.2355663,0.498579811 12.6123656,0.5 Z M15.9815209,7.26437419 L1.01852966,7.26437419 L1.01852966,16.6385676 C1.01852966,17.1832033 1.39917558,17.5565084 1.9544073,17.5565294 L1.9544073,17.5565294 L15.2027811,17.5565294 C15.6730895,17.5565084 15.9815209,17.2533788 15.9815209,16.7909708 L15.9815209,16.7909708 L15.9815209,7.26437419 Z M3.94137859,14.4538925 L4.54704148,14.4544348 C4.80125881,14.4549379 4.9502146,14.6017237 4.95049088,14.8508174 L4.95049088,14.8508174 L4.95042712,16.0664801 C4.95004459,16.3000421 4.80644431,16.4498672 4.57033376,16.4519004 C4.14888385,16.4555475 3.72734894,16.4553588 3.30589903,16.4520052 C3.06910841,16.4500978 2.92727205,16.3053241 2.92387172,16.0683875 C2.92089643,15.8623255 2.92323416,15.6561798 2.9231704,15.4500759 C2.92310665,15.2544523 2.9220653,15.0588286 2.92336167,14.863205 C2.9251256,14.5963369 3.06813081,14.4547283 3.33571569,14.4543719 C3.73948387,14.453827 4.1432733,14.4536173 4.54704148,14.4544348 Z M10.0215357,14.453457 L10.6537637,14.4547932 C10.8761667,14.4556736 11.0322419,14.6012228 11.0345159,14.819316 C11.0389576,15.241962 11.0388088,15.6647128 11.0347072,16.0873588 C11.0326032,16.304383 10.8864102,16.4491357 10.6663662,16.4513575 C10.2378393,16.4556753 9.80920623,16.4557801 9.38067938,16.4514413 C9.1525596,16.4491357 9.0096819,16.2965019 9.0086193,16.0685153 L9.0086193,16.0685153 L9.00872556,14.8318922 C9.01019195,14.6102357 9.16418449,14.4559251 9.38930772,14.4548561 C9.81077888,14.4528858 10.2322925,14.4531164 10.6537637,14.4547932 Z M6.97696765,14.4536787 L7.5985696,14.4545564 C7.84014194,14.4552061 7.99037286,14.6023693 7.99183925,14.8384465 C7.99311438,15.0445504 7.99211553,15.2506542 7.99211553,15.4567581 L7.99252198,15.7659113 L7.99252198,15.7659113 L7.99179675,16.0750487 C7.99016034,16.3019243 7.84598626,16.4499049 7.61478493,16.4518752 C7.19333503,16.4554594 6.77182137,16.4552498 6.35037146,16.4520638 C6.11209319,16.4502612 5.9683229,16.3040623 5.96762158,16.0701859 C5.96638896,15.6579782 5.9662827,15.2457705 5.96770659,14.8335628 C5.96849292,14.6042767 6.12084905,14.4554158 6.3553657,14.4546402 C6.76975991,14.4532988 7.18417538,14.4534455 7.5985696,14.4545564 Z M13.0671255,11.3534663 L13.6933312,11.3554549 C13.9194957,11.3569012 14.0777599,11.5043368 14.0809903,11.7279426 C14.0870258,12.1465852 14.0867708,12.5654164 14.081139,12.9840799 C14.0781212,13.2084822 13.9232361,13.3554986 13.6949251,13.3574689 C13.273964,13.3610741 12.8528753,13.3615981 12.4319142,13.3571964 C12.2002028,13.354786 12.0510345,13.198505 12.0495469,12.9699735 C12.0482505,12.7641003 12.0492919,12.558227 12.0492919,12.3523537 C12.0492919,12.1499598 12.048293,11.9475869 12.0495256,11.7451931 C12.0509708,11.512721 12.2049846,11.3567964 12.4409038,11.3553921 C12.8583796,11.3528559 13.2758766,11.352772 13.6933312,11.3554549 Z M3.93699588,11.3534784 L4.56307405,11.3554172 C4.79931212,11.3569054 4.94975556,11.5120964 4.95047813,11.7469789 L4.95047813,11.7469789 L4.95045688,12.9715078 C4.94960679,13.1966228 4.80607028,13.3535116 4.57939564,13.3566137 C4.15146385,13.3624407 3.72336205,13.3620425 3.29543026,13.3568443 C3.07706518,13.3541823 2.92738682,13.2062017 2.92498533,12.9929084 C2.92028862,12.5708284 2.92041614,12.1486435 2.92477281,11.7265425 C2.92708929,11.5039637 3.08301576,11.3567377 3.31090177,11.3553753 C3.72829253,11.352881 4.14570454,11.3527972 4.56307405,11.3554172 Z M10.0234675,11.3529732 L10.6601797,11.3558867 C10.8808188,11.3579618 11.0328348,11.5088978 11.0348538,11.7274312 C11.0387004,12.1460528 11.0385729,12.5647373 11.0349813,12.9833589 C11.0330474,13.2082433 10.8827527,13.3554274 10.6525927,13.3574605 C10.2316954,13.3611076 9.81069175,13.3614849 9.38981565,13.3572928 C9.15719043,13.3549872 9.00972228,13.2002783 9.00861717,12.9706778 L9.00861717,12.9706778 L9.00872343,11.7356687 C9.01016857,11.5148087 9.1619934,11.3578361 9.38675535,11.3558448 C9.8112018,11.3520719 10.2357333,11.3519462 10.6601797,11.3558867 Z M6.97810251,11.3463382 L7.61031987,11.3479155 C7.84589913,11.3490473 7.99049825,11.4958751 7.99187963,11.7302965 C7.993091,11.9329 7.99213466,12.1355034 7.99213466,12.3381278 L7.99240031,12.6472653 L7.99240031,12.6472653 L7.99190089,12.9564184 C7.99068952,13.1950319 7.84245629,13.343285 7.60307292,13.3438509 C7.18515085,13.3448361 6.76720754,13.3450457 6.34926423,13.3437461 C6.12212204,13.3430335 5.96870331,13.1933132 5.96781073,12.9701894 C5.96613181,12.5545023 5.96623807,12.1387942 5.96772572,11.7231071 C5.9685333,11.4964201 6.11578893,11.349215 6.34588515,11.3479993 C6.7673563,11.3457146 7.18884871,11.3458823 7.61031987,11.3479155 Z M3.93745598,8.35580601 L4.55822645,8.35748547 C4.80030884,8.35886886 4.94996595,8.51341006 4.95051851,8.75510472 L4.95051851,8.75510472 L4.950391,9.97959174 C4.94932839,10.1981461 4.80530308,10.3552445 4.58419649,10.3582837 C4.1527581,10.3642155 3.7211072,10.3640688 3.28966882,10.3582628 C3.07274889,10.3553702 2.92678963,10.2052726 2.92466443,9.98950602 C2.92054152,9.57092635 2.92052027,9.15224187 2.92453691,8.7336622 C2.92672588,8.5052355 3.08235482,8.35861733 3.31670146,8.35744355 C3.73052187,8.35536846 4.14438479,8.3551379 4.55822645,8.35748547 Z M10.020531,8.3551924 L10.6572299,8.35801157 C10.878379,8.35985609 11.0325628,8.5096812 11.0347093,8.7268312 C11.0388959,9.14893222 11.0388959,9.57111709 11.034688,9.99319715 C11.0325416,10.2074546 10.8846696,10.3558125 10.6661558,10.3585373 C10.2382027,10.3638823 9.81012219,10.3636726 9.3821904,10.3586841 C9.15540951,10.3560431 9.0098753,10.2004748 9.00866393,9.97588384 L9.00866393,9.97588384 L9.00868518,8.74087468 C9.00989655,8.51867323 9.15957491,8.36058971 9.38384807,8.35828406 C9.80827326,8.35394525 10.2327835,8.35446926 10.6572299,8.35801157 Z M6.97998969,8.35562995 L7.60603333,8.35764477 C7.83880731,8.35917488 7.99088716,8.51147332 7.99169474,8.73935505 C7.99313988,9.15447625 7.99324614,9.56959746 7.99160973,9.98471866 C7.9907384,10.1997097 7.84951836,10.3543138 7.63208837,10.3577304 C7.1971434,10.3645844 6.7619434,10.3646892 6.32701968,10.3576465 C6.10944093,10.3541252 5.97079239,10.1993534 5.9673283,9.98425753 L5.9673283,9.98425753 L5.9672858,9.35632514 C5.96730705,9.15051473 5.96611694,8.94468337 5.96762583,8.73887296 C5.96926224,8.51130564 6.12098081,8.35907008 6.35394606,8.35762381 C6.77129431,8.35500375 7.18868507,8.35491991 7.60603333,8.35764477 Z M13.0677806,8.35597946 L13.6833682,8.35736809 C13.9214977,8.35847899 14.0791668,8.5071932 14.0816746,8.74138402 C14.0860738,9.15308867 14.085925,9.56487717 14.0817808,9.97658182 C14.0794219,10.2117787 13.9241754,10.3573489 13.6836657,10.3598641 C13.4749491,10.3620231 13.2661899,10.3603043 13.0574733,10.3603043 L12.7549739,10.3607864 L12.7549739,10.3607864 L12.4524905,10.359948 C12.2012909,10.3577471 12.0499124,10.2075657 12.0494449,9.96113399 C12.0487436,9.55986763 12.0487436,9.15860127 12.0494449,8.7573349 C12.0499124,8.5120141 12.2034162,8.35826939 12.452193,8.35726329 C12.8625918,8.35560741 13.2729694,8.35546069 13.6833682,8.35736809 Z M13.2785119,3.36181568 C13.2785119,3.63008815 13.2812959,3.88069099 13.2778106,4.1312519 C13.2736239,4.43255799 13.0705391,4.6907485 12.78506,4.76597546 C12.4942466,4.84258581 12.1803109,4.7235306 12.0396647,4.46171395 C11.9839842,4.35804369 11.9532962,4.23188289 11.9466231,4.11400147 C11.932703,3.86874354 11.9423939,3.62218607 11.9423939,3.36808285 C11.6521543,3.55846638 11.5104455,4.01714335 11.6161533,4.39166421 C11.7400529,4.83065933 12.1242479,5.12624324 12.5909435,5.14162819 C13.0169414,5.15567167 13.4287003,4.87842814 13.5773161,4.47747618 C13.7237854,4.08233027 13.6038174,3.61271196 13.2785119,3.36181568 Z M3.41886656,3.36403749 C3.10988264,3.57062343 2.97350807,4.06411566 3.10629104,4.45173678 C3.24995507,4.87105007 3.68351866,5.16652917 4.11748603,5.14091553 C4.60492363,5.11213687 4.99460169,4.79119085 5.09329633,4.33722999 C5.17205652,3.97492905 5.0075442,3.50436753 4.75160546,3.37715871 C4.75160546,3.62828556 4.75581337,3.87593297 4.75062786,4.12339174 C4.74265833,4.50376056 4.44589435,4.79431396 4.07717085,4.78997515 C3.70540829,4.78561538 3.41992916,4.49137295 3.41897282,4.11071068 L3.41897282,4.11071068 Z" id="Combined-Shape"></path>
            </g>
        </g>
    </g>
</svg>