<?xml version="1.0" encoding="UTF-8"?>
<svg width="90px" height="33px" viewBox="0 0 90 33" version="1.1" xmlns="http://www.w3.org/2000/svg" xmlns:xlink="http://www.w3.org/1999/xlink">
    <title>Group 7</title>
    <g id="Page-1" stroke="none" stroke-width="1" fill="none" fill-rule="evenodd">
        <g id="Group-7" fill="#4A4A4A">
            <g id="PLANEE">
                <path d="M22.7208816,19.6799203 C22.7918736,19.6099585 22.8628657,19.539826 22.9338578,19.4698642 C22.6724701,19.1210789 22.4711263,18.6960182 22.1399439,18.4357944 C19.5152897,16.3737977 16.8731869,14.333984 14.2172277,12.3124287 C13.7904199,11.9877035 13.6173019,11.6532519 13.6236313,11.1128395 C13.6523702,8.62595271 13.6354348,6.13838341 13.6362901,3.6508141 C13.6366322,2.78584711 13.3571116,2.05500205 12.6639552,1.49616068 C12.1885649,1.11256514 11.7620992,1.1393554 11.2957753,1.52073264 C10.6248574,2.06933569 10.3834843,2.77577944 10.3865635,3.61412681 C10.3956299,6.07319947 10.3704833,8.53244277 10.4026436,10.9911741 C10.4106837,11.5911394 10.2226829,11.9731992 9.74523982,12.3359768 C7.06481833,14.3722071 4.41056983,16.4427357 1.74212292,18.4948353 C1.36697681,18.7830439 1.03476809,19.0615261 1.33327696,19.6529594 C4.31562862,18.446374 7.28446612,17.245249 10.3869056,15.9902022 C10.3869056,18.6915816 10.3981959,21.2016752 10.3658646,23.7110862 C10.3632986,23.9149994 10.1027662,24.1822194 9.89406659,24.3049085 C9.17217121,24.7299692 8.42016835,25.1038384 7.67962686,25.497331 L7.7188008,25.7517531 C10.568919,24.6852619 13.4216032,24.6731466 16.2936178,25.6085873 C15.5893421,25.1065686 14.8564986,24.749422 14.1527361,24.3421077 C13.940102,24.219248 13.6640027,23.9588535 13.6614367,23.7583531 C13.628079,21.2202748 13.6395404,18.6815139 13.6395404,16.0026588 C16.7387296,17.2577056 19.7298056,18.4687276 22.7208816,19.6799203 M14.7776375,17.7474383 C14.7776375,19.6246334 14.7641233,21.3685597 14.7985075,23.1119742 C14.8019288,23.2882438 15.0634875,23.5133161 15.2576466,23.6223542 C15.9466974,24.0090212 16.6668822,24.3404014 17.3593543,24.7214373 C17.9907562,25.0690281 18.2649738,25.9034508 17.9645832,26.5438574 C17.6713774,27.1685653 17.1253371,26.997756 16.6330113,26.8999801 C15.7191807,26.71825 14.7858486,26.5856639 13.9050336,26.297114 C12.0642004,25.6944185 10.3405469,26.3440396 8.58148289,26.6641576 C8.16476792,26.7400918 7.75455344,26.8581737 7.3357857,26.9160202 C6.84671013,26.983593 6.22488793,27.1910896 6.03705828,26.5221863 C5.86359811,25.9039627 5.81210747,25.197519 6.52373893,24.7939587 C7.21107913,24.4043908 7.91176241,24.0342757 8.62664411,23.6977764 C9.05225447,23.4972761 9.26505965,23.266914 9.25257188,22.7493672 C9.21339794,21.1233521 9.23803134,19.4956306 9.23803134,17.7307157 C7.87532551,18.282049 6.65186681,18.7760477 5.4289213,19.2714115 C4.09307272,19.8123358 2.75944799,20.3587206 1.42154663,20.8943551 C0.435697563,21.2893834 0.0138506438,20.9532254 0.000336488681,19.8898058 C-0.0138619275,18.7753652 0.421157017,18.0013485 1.32780287,17.3256197 C3.82159216,15.4675362 6.26269335,13.5381257 8.68976719,11.5933577 C8.98245984,11.3589003 9.20638426,10.860465 9.21425327,10.4792584 C9.26198047,8.1350255 9.23050446,5.78925686 9.24162371,3.44417078 C9.24829525,2.03230712 9.83710186,0.941414639 11.0999056,0.249645812 C11.756283,-0.110060327 12.3984619,-0.0750794169 13.030548,0.316024222 C14.2185962,1.05147653 14.7624127,2.14083326 14.7678868,3.51020791 C14.7769532,5.82713863 14.7873882,8.14441062 14.7596756,10.4611707 C14.7533462,10.9974878 14.917911,11.346785 15.3430082,11.6730459 C17.7875307,13.5497291 20.1899711,15.4818698 22.656561,17.3290325 C23.5534562,18.000666 24.0156745,18.7700754 23.9995943,19.8892938 C23.9843695,20.9404275 23.5457582,21.2887009 22.5783842,20.8982798 C20.2720824,19.967617 17.9685177,19.0306405 15.6634134,18.0970768 C15.4105789,17.9946936 15.1560338,17.8967471 14.7776375,17.7474383" id="Fill-1"></path>
            </g>
            <g id="PHONE" transform="translate(70.000000, 0.000000)">
                <path d="M7.04468805,5.44136129e-07 L12.3232409,0.00183210554 C13.6015402,0.00267420273 13.9982649,0.413617634 13.9985877,1.74396279 C14.0005246,9.567551 14.0003632,17.3909708 13.9987491,25.2143906 C13.9984263,26.6075562 13.6226838,26.9979524 12.2880554,26.9987945 C8.82228264,27.0006472 5.35650984,27.0000376 1.89089845,26.9991314 C0.332083485,26.9986261 0.00169476802,26.6590925 0.00104916232,25.051529 C-0.00056485193,21.223692 0.000564958045,17.3956865 0.000564958045,13.5678495 L2.02282358e-05,7.70013731 L2.02282358e-05,7.70013731 L0.00153336659,1.83255141 C0.00250177514,0.39104943 0.378244292,0.00267420273 1.76613515,0.00183210554 C5.28517041,-0.000525766611 8.80420568,-0.000694186051 12.3232409,0.00183210554 Z M13.3314041,2.40220889 C13.3244548,0.556145353 13.2063156,0.562252743 11.1979502,0.666078374 C11.171319,0.667425729 11.1350037,0.654794271 11.1193477,0.668773085 C10.9114627,0.855044985 10.7077741,1.04653789 10.5002119,1.23331505 C10.2314785,1.4755022 9.96678014,1.91271906 9.68916969,1.92248739 C7.90503834,1.98547626 6.11735616,1.98143419 4.3327406,1.92669788 C4.05028811,1.91794007 3.56463122,1.56358557 3.54187362,1.32981938 C3.47763585,0.66725731 3.12674916,0.644857525 2.6670779,0.663720502 C2.40092695,0.674499346 2.13396899,0.66422576 1.86749524,0.665909954 C0.821452605,0.672478313 0.715089066,0.777403623 0.71444346,1.85831958 C0.712022439,5.74190343 0.713475052,9.6256557 0.713475052,13.5092396 L0.713031198,19.3347837 L0.713031198,19.3347837 L0.714766263,25.1603279 C0.715411869,26.2016653 0.815480752,26.3049064 1.82310985,26.305917 C5.20866614,26.3087801 8.59422243,26.3070959 11.9799401,26.3069275 C13.281804,26.3067591 13.3313542,26.2570753 13.3315156,24.898941 Z M7.06822037,25.0277313 C7.81228094,25.0280682 8.55795553,24.9999421 9.29927227,25.0467627 C9.49860303,25.0593942 9.68469887,25.3007392 9.87676657,25.437159 C9.69373735,25.5518526 9.51199935,25.763219 9.32703332,25.766419 C7.78629531,25.7933661 6.2445889,25.7960608 4.7040123,25.7642295 C4.50807097,25.7601875 4.31664888,25.515474 4.12296717,25.3820858 C4.15817958,25.3624088 4.19326198,25.3402149 4.22828085,25.3168358 L4.43816398,25.1729931 C4.54325648,25.1046148 4.64897442,25.0495416 4.75711337,25.0437312 C5.52570696,25.0019631 6.29768997,25.0273945 7.06822037,25.0277313 Z" id="Combined-Shape"></path>
            </g>
            <g id="Group-10" transform="translate(31.549354, 0.312500)">
                <path d="M21.4206987,6.14591045e-07 C22.0209925,-0.000490186363 22.2910834,0.292956017 22.2773651,0.957141312 C22.2369687,2.91571921 22.015133,4.85106011 21.5594667,6.75691598 C20.8905816,9.55448326 19.7800933,12.1391967 17.9479149,14.3568918 C17.3061907,15.1336117 16.5740225,15.8326174 15.8883171,16.5721299 C15.806697,16.6602339 15.7037757,16.7799993 15.7031553,16.885654 C15.6975715,17.8327551 15.6542797,18.784981 15.7338318,19.7258341 C15.9040345,21.740574 16.917599,23.3023677 18.4120604,24.5743657 C18.5530343,24.6943417 18.6975239,24.8111586 18.8285711,24.9416649 C19.0422723,25.1545187 19.1287869,25.4163036 19.0324834,25.7107326 C18.9321128,26.0173067 18.7008328,26.1780703 18.3926894,26.2254569 C18.3136888,26.2376722 18.2322755,26.2357767 18.1518963,26.2357767 C15.3487558,26.2363383 12.5456154,26.2363383 9.74247496,26.2360575 L9.62159587,26.2367332 L9.62159587,26.2367332 L9.501544,26.2292479 C9.18223292,26.1853011 8.93344326,26.0356295 8.82907431,25.7093988 C8.72525685,25.3844317 8.8279024,25.111274 9.07014315,24.8881004 C9.42757578,24.5587106 9.80403472,24.248837 10.1431993,23.9011945 C11.4671822,22.5439707 12.1601948,20.9136594 12.1509574,18.9880767 C12.1478553,18.3446011 12.1661233,17.7005639 12.1405481,17.0581414 C12.1336545,16.8836181 12.0399706,16.6796098 11.9225728,16.54791 C11.1439418,15.67403 10.2914115,14.8623494 9.5697216,13.9434697 C8.13247706,12.1134324 7.18846887,10.0109395 6.55122542,7.76769073 C5.92894107,5.57674274 5.63920348,3.33117726 5.56737228,1.05521412 C5.54310684,0.287339822 5.81650662,0.0107422042 6.56714961,0.0103209896 C9.02540375,0.00912754806 11.4837958,0.00996997735 13.9421188,0.00996997735 L13.9421188,0.00996997735 C16.4349788,0.000773457576 18.9278387,0.00182649419 21.4206987,6.14591045e-07 Z M21.0143905,1.29579789 L6.80380655,1.29579789 C6.81573246,1.55056255 6.81070014,1.7736659 6.83896386,1.9922061 C7.00075641,3.2431434 7.12277295,4.50201357 7.34709037,5.74157807 C7.85011562,8.52061191 8.89766553,11.0777358 10.6416748,13.2897445 C11.4081041,14.2618377 12.3192988,15.1152888 13.1499764,16.0362746 C13.26765,16.166781 13.3571977,16.373457 13.3639535,16.5487525 C13.3911142,17.2497238 13.3675381,17.9526609 13.3861508,18.6541939 C13.4439191,20.8467565 12.7684162,22.7672145 11.3507495,24.4174633 C11.2046743,24.5874936 11.0551523,24.7545052 10.874816,24.9597771 L10.874816,24.9597771 L16.9618559,24.9597771 C16.8468708,24.8271647 16.7817953,24.7479062 16.7124458,24.6727895 C15.5741762,23.4398943 14.7582509,22.0131701 14.5729512,20.3254332 C14.4308054,19.0296365 14.4856095,17.7110241 14.4677551,16.4023804 C14.4663763,16.2949706 14.5613011,16.1675532 14.6434727,16.0809234 C15.0187597,15.6857538 15.4021122,15.2983066 15.7888426,14.9146502 C17.2033383,13.5110928 18.3151365,11.8926458 19.1433324,10.0672419 C20.3370953,7.43605439 20.8325376,4.64354169 21.0130807,1.77682501 C21.0229386,1.61992256 21.0143905,1.46189686 21.0143905,1.29579789 L21.0143905,1.29579789 Z M23.409327,3.56075328 C24.939704,2.77434554 26.667858,3.41606605 27.4149163,5.0480622 C27.7319525,5.74053908 27.8312202,6.47717329 27.8499019,7.34283959 C27.8039906,9.26147231 26.8035928,10.6822293 25.1344479,11.6866858 C24.2919823,12.1936177 23.3712055,12.4659329 22.4241641,12.6683266 C21.4870495,12.8684737 20.8230589,13.3956941 20.5094695,14.336477 C20.4225414,14.5970684 20.2813606,14.7990409 19.9994818,14.8477614 C19.52279,14.930179 19.1813505,14.498083 19.3354912,13.9877814 C19.6663146,12.8926234 20.3547774,12.1046712 21.40474,11.6993223 C22.0237155,11.4603532 22.6857758,11.3398156 23.3185385,11.1341926 C24.2498624,10.8316201 25.0905357,10.3665289 25.7503901,9.60848297 C26.7219038,8.49247477 26.9154758,6.60023817 26.181791,5.37808388 C25.6649096,4.51691053 24.9046156,4.26691964 23.9991426,4.67212813 C23.7431147,4.78655811 23.5005982,4.85058273 23.2518085,4.66784578 C22.8499812,4.37264451 22.9302225,3.80688304 23.409327,3.56075328 Z M0.745685334,4.48793096 C1.61027937,3.24162703 3.12976444,2.85467117 4.43892609,3.54609501 C4.78774174,3.73030622 4.92974969,4.06482085 4.79456639,4.38410155 C4.65076611,4.72395157 4.31594445,4.84224268 3.92514684,4.69123723 C2.63873404,4.19427415 1.64929709,4.74283603 1.35597484,6.11585537 C0.895689849,8.27057889 1.78427358,9.97741084 3.86910195,10.8571878 C4.44761201,11.1012817 5.06389894,11.2642918 5.67453313,11.4153674 C7.0325014,11.7515669 8.01276987,12.5154397 8.48642843,13.8834045 C8.63691549,14.3179576 8.4882897,14.6611071 8.11238224,14.7938599 C7.76653084,14.9158718 7.48017112,14.7523001 7.33499212,14.3162727 C7.02071336,13.3727519 6.3642368,12.8378093 5.42705326,12.6414531 C4.23460009,12.391743 3.11225473,11.9764956 2.10282637,11.2668893 C0.831027976,10.3727208 0.0491570169,8.92591868 2.84985413e-06,7.23347823 C-0.00075257354,6.33053443 0.148424711,5.3487533 0.745685334,4.48793096 Z M8.5539925,2.28017652 C8.93300207,2.23517675 9.18144705,2.50524554 9.27030542,3.0044551 C9.46849613,4.11646177 9.61174493,5.24580844 9.91092673,6.32980433 C10.2036286,7.390142 10.6517119,8.40723496 11.0526431,9.4348583 C11.2167105,9.85565173 11.1589422,10.1969058 10.8263265,10.3753604 C10.4972955,10.5518493 10.1637836,10.4188157 9.95401166,10.0115713 C9.14828888,8.44767157 8.66711631,6.77102667 8.32126491,5.05092646 C8.27767444,4.83409452 8.23881757,4.61626415 8.20239644,4.39792155 L7.99471556,3.08560912 C7.99919639,2.60717949 8.18484077,2.32398284 8.5539925,2.28017652 Z" id="Combined-Shape"></path>
            </g>
            <g id="Group-6" transform="translate(78.000000, 15.000000)">
                <path d="M7.86067758,8.36860495 L10.918236,6.8393948 C11.1380382,6.72929682 11.2826384,6.50118616 11.2933902,6.24482709 C11.3048141,5.98878976 11.1809845,5.74748792 10.9712011,5.61705624 L2.16500513,0.13120385 C2.11130696,0.0980007177 2.05974693,0.0750287832 2.00030628,0.0584272171 C1.86144853,0.0192397995 1.72039154,0 1.58153379,0 C1.22354592,0.000386082933 0.883518543,0.1255413 0.607880105,0.345351183 C0.332302758,0.564002817 0.11824312,0.882971667 0.0222706055,1.26043208 C0.00657045513,1.32297752 -0.000638174224,1.38597338 4.42088947e-05,1.45083531 L0.156180059,12.1973894 C0.159723284,12.4538128 0.296503971,12.6852695 0.512701762,12.8029605 C0.728899552,12.920201 0.987310587,12.9028273 1.18774714,12.7573383 L3.97406565,10.7318829 L7.14763418,16.5223548 C7.40390706,16.9887429 7.86996327,17.2511506 8.34603826,17.2499962 C8.58013545,17.2503785 8.8199751,17.1866748 9.03543981,17.055857 L9.03617289,17.0554709 L10.5281148,16.1475969 C10.9712011,15.8775963 11.2203876,15.3866918 11.2189214,14.8852344 C11.2196545,14.6390422 11.1588088,14.3860935 11.0342461,14.1586907 L7.86067758,8.36860495 Z" id="Fill-4"></path>
            </g>
        </g>
    </g>
</svg>