<?xml version="1.0" encoding="UTF-8"?>
<svg width="43px" height="42px" viewBox="0 0 43 42" version="1.1" xmlns="http://www.w3.org/2000/svg" xmlns:xlink="http://www.w3.org/1999/xlink">
    <!-- Generator: Sketch 53.2 (72643) - https://sketchapp.com -->
    <title>Fill 1</title>
    <desc>Created with Sketch.</desc>
    <g id="Page-1" stroke="none" stroke-width="1" fill="none" fill-rule="evenodd">
        <g id="Desktop-Copy-22" transform="translate(-306.000000, -440.000000)" fill="#4A4A4A">
            <g id="Group" transform="translate(306.000000, 440.000000)">
                <path d="M27.845412,7.66460679 C26.1907058,7.66460679 24.5798502,7.5905754 22.9786746,7.68222875 C20.64714,7.81563848 19.0029851,9.19455688 18.4759068,11.4508382 C18.2652691,12.3520482 18.2882108,13.3096677 18.238165,14.2433443 C18.2053497,14.8581975 18.2319698,15.4761154 18.2319698,16.1525496 L15.6363636,16.1525496 L15.6363636,20.7711314 L18.2592675,20.7711314 L18.2592675,33.8181818 L23.729749,33.8181818 L23.729749,20.7441238 L27.4483367,20.7441238 C27.6079606,19.1882196 27.761486,17.6926515 27.9220779,16.1284152 L23.7223922,16.1284152 C23.7223922,15.1265493 23.6941265,14.1872222 23.7314914,13.2504809 C23.7605315,12.5225216 24.1783221,12.1562913 24.908778,12.1345511 C25.4072033,12.1197065 25.906403,12.1301456 26.4052155,12.1298583 C26.8819575,12.1294752 27.3587963,12.1297625 27.845412,12.1297625 L27.845412,7.66460679 Z M0,21.1940176 L0,20.8164728 C0.024281899,20.6472352 0.0531106079,20.4783759 0.0722652533,20.3086652 C0.197447633,19.2017619 0.241367881,18.0797228 0.45797016,16.9903204 C1.41531547,12.1775946 3.8023906,8.14304043 7.64502531,4.99941998 C12.8903025,0.708313264 18.9385269,-0.813595972 25.6521334,0.407299143 C30.5637521,1.30040861 34.6656517,3.67314155 37.8739581,7.4133981 C42.2578566,12.5242054 43.8202178,18.4251985 42.5980934,24.9724921 C41.7015012,29.7756634 39.2818245,33.7901626 35.4712109,36.9470269 C30.4504688,41.1063571 24.6191369,42.6922153 18.1409004,41.7256024 C12.6406149,40.9048612 8.14053084,38.2602506 4.66957364,33.9999832 C2.27824192,31.064859 0.806042959,27.7244726 0.284514203,23.9996357 C0.15420457,23.0691596 0.0929677489,22.1295074 0,21.1940176 L0,21.1940176 Z" id="Fill-1"></path>
            </g>
        </g>
    </g>
</svg>