<?xml version="1.0" encoding="UTF-8"?>
<svg width="21px" height="21px" viewBox="0 0 21 21" version="1.1" xmlns="http://www.w3.org/2000/svg" xmlns:xlink="http://www.w3.org/1999/xlink">
    <!-- Generator: Sketch 53.2 (72643) - https://sketchapp.com -->
    <title>Group 25</title>
    <desc>Created with Sketch.</desc>
    <g id="Page-1" stroke="none" stroke-width="1" fill="none" fill-rule="evenodd">
        <g id="Mobile-Copy-114" transform="translate(-281.000000, -872.000000)">
            <g id="Group-25" transform="translate(281.000000, 872.000000)">
                <circle id="Oval" fill="#000000" opacity="0.487363543" cx="10.5" cy="10.5" r="10.5"></circle>
                <path d="M10.5,21 C4.70101013,21 0,16.2989899 0,10.5 C0,4.70101013 4.70101013,0 10.5,0 C16.2989899,0 21,4.70101013 21,10.5 C21,16.2989899 16.2989899,21 10.5,21 Z M10.4993962,16.3209411 C10.3060108,16.1420524 10.1158813,15.9695979 9.92936804,15.7930319 C9.25056944,15.1505356 8.56863076,14.5115368 7.89635684,13.8617787 C7.36798627,13.3510896 6.86374545,12.814864 6.40279659,12.2369364 C6.01002874,11.7444685 5.65459442,11.2265977 5.41581936,10.6320507 C5.22854683,10.1657067 5.13043208,9.68015351 5.18172869,9.17620557 C5.28595631,8.15233105 5.79257794,7.41878191 6.72137353,7.04435842 C7.79357058,6.61210746 9.0242389,6.96142166 9.76906934,7.87009511 C10.0089383,8.1627432 10.2528868,8.45180043 10.5001812,8.74876022 C10.5596755,8.67778408 10.6166603,8.60983814 10.6736065,8.54183881 C10.8898733,8.28355081 11.0984444,8.01777407 11.3240028,7.76850993 C11.778517,7.26621725 12.3418532,6.96563991 12.9999839,6.88609378 C13.8383862,6.78477557 14.579253,7.01816786 15.1749552,7.65916903 C15.5416114,8.05369598 15.7464376,8.53324212 15.8098055,9.0763424 C15.8912932,9.77477057 15.7194895,10.4180277 15.4039368,11.0278859 C15.1258849,11.5652728 14.7685588,12.0440581 14.3818138,12.500297 C13.7200411,13.2809811 12.9901518,13.9907025 12.2506106,14.6899049 C11.755108,15.1583714 11.2550754,15.621672 10.7567029,16.0868814 C10.6740569,16.1640247 10.5895578,16.2390322 10.4993962,16.3209411 Z M16.8,9.64010679 L16.8,9.18677791 C16.7832572,9.05539796 16.7706968,8.92325713 16.7490766,8.79275822 C16.6140273,7.97744702 16.2466503,7.29517103 15.6460836,6.75133656 C15.1675039,6.31797764 14.6083888,6.05536459 13.9852366,5.93796095 C13.8655917,5.91541465 13.7434245,5.90732521 13.6224797,5.89202737 C13.6015802,5.88939763 13.5810023,5.88407142 13.5602701,5.88 L13.1103115,5.88 C13.0132263,5.89284165 12.9159738,5.90436176 12.8191073,5.91875188 C12.1048927,6.02482229 11.4707245,6.31899216 10.9192151,6.800287 C10.7723004,6.92850325 10.6387696,7.07320541 10.4937852,7.21553145 C10.4611361,7.17931587 10.42415,7.13733356 10.3862116,7.09631236 C9.8239822,6.48848323 9.14378086,6.1047155 8.3462768,5.9471984 C8.21009497,5.92030035 8.07088888,5.90983481 7.93314987,5.89126648 C7.91878785,5.88931754 7.90487625,5.88383114 7.89074587,5.88 L7.44078731,5.88 C7.42432761,5.88379109 7.40800947,5.88855665 7.39138247,5.89123978 C7.19517871,5.92280994 6.99577052,5.94029701 6.80315727,5.98757884 C5.1673538,6.38911397 4.04791394,7.93084599 4.216835,9.7761455 C4.2656736,10.3097147 4.41772315,10.812835 4.64423386,11.2930219 C4.96202578,11.9667278 5.39468814,12.5580978 5.86732223,13.1198732 C6.41162486,13.7668413 6.99978571,14.3699716 7.61107251,14.9477657 C8.48646094,15.7751577 9.37070338,16.5924846 10.2514583,17.4137627 C10.3335123,17.490292 10.4177025,17.5643517 10.5014038,17.64 C10.6938369,17.4647289 10.8819974,17.2965593 11.0667733,17.1244519 C11.7743088,16.4654831 12.4845082,15.8095178 13.1865615,15.1443017 C13.9205947,14.4487836 14.6356201,13.7327616 15.2789125,12.9441081 C15.6696085,12.465136 16.0264455,11.9613616 16.3040727,11.4014016 C16.5334532,10.9387419 16.6993372,10.4544035 16.764185,9.93609211 C16.7765266,9.83749708 16.7880831,9.73878191 16.8,9.64010679 Z" id="Combined-Shape" fill="#FFFFFF"></path>
            </g>
        </g>
    </g>
</svg>