<?xml version="1.0" encoding="UTF-8"?>
<svg width="377px" height="306px" viewBox="0 0 377 306" version="1.1" xmlns="http://www.w3.org/2000/svg" xmlns:xlink="http://www.w3.org/1999/xlink">
    <title>Group 56</title>
    <g id="Page-1" stroke="none" stroke-width="1" fill="none" fill-rule="evenodd">
        <g id="Artboard-Copy-74" transform="translate(0.000000, -118.000000)" fill="#FFFFFF" opacity="0.4">
            <g id="Rectangle-Copy-2" transform="translate(0.000000, 101.000000)">
                <g id="Group-56" transform="translate(0.000000, 17.000000)">
                    <path d="M146.085565,321.025389 L150.724875,328.211141 L159.299484,328.479559 L153.87004,335.093091 L156.26349,343.296408 L148.268676,340.198447 L141.173166,345 L141.661716,336.471202 L134.883156,331.235782 L143.179873,329.062937 L146.085565,321.025389 Z M202.953663,181.93815 C216.704476,194.557927 231.464725,206.266295 243.984236,219.99736 C266.236983,244.403607 283.898442,271.804529 289.226718,305.245806 C290.824272,315.271941 290.033178,325.1763 278.561842,331.419084 C270.603845,302.833235 267.039282,273.888114 254.502162,249.514064 C241.862915,224.942047 220.3145,204.908267 202.953663,181.93815 Z M231.56442,313.363402 L234.147079,318.327536 L239.71835,319.023445 L235.775048,323.003487 L236.832187,328.494893 L231.811897,325.989873 L226.894055,328.687758 L227.734772,323.159692 L223.638438,319.336174 L229.178013,318.424446 L231.56442,313.363402 Z M12.9990797,250.787486 L24.4825817,259.658341 L38.3313604,255.267703 L33.4074356,268.883685 L41.880236,280.642103 L27.3533771,280.186239 L18.7413109,291.843601 L14.6875569,277.946449 L0.891923244,273.392593 L12.912959,265.25909 L12.9990797,250.787486 Z M193.109271,208.594197 C212.178755,226.967741 217.577464,270.740231 199.685816,281.365683 C206.691044,254.690318 207.65662,230.778507 193.109271,208.594197 Z M166.201399,181.787938 C161.559634,185.859708 156.692567,189.761206 151.81917,193.657908 L149.991778,195.119269 C139.030774,203.889966 128.176298,212.741092 119.922588,223.557497 C110.949089,235.317087 104.955596,249.328657 98.8695321,263.270373 L97.9073575,265.470777 C95.8190377,270.235596 93.7009575,274.977937 91.4300952,279.604837 C90.10595,279.81683 88.7818048,280.028822 87.4576596,280.240815 C87.3238946,278.575101 87.0668502,276.87759 86.7933469,275.175849 L86.6097451,274.041032 C85.9361945,269.879955 85.306137,265.730213 86.2798234,261.994467 C91.8536551,240.607441 106.204111,224.542226 122.507488,210.74071 C135.807208,199.481511 150.901375,190.321199 166.201399,181.787938 Z M323.125699,230.844177 L335.00843,243.01064 L351.809962,240.160694 L343.86189,255.173278 L351.776026,270.204033 L334.980576,267.316151 L323.069993,279.455518 L320.638445,262.658052 L305.363072,255.129923 L320.655733,247.636223 L323.125699,230.844177 Z M172.255521,191.78857 C152.401347,216.210757 147.084917,244.221198 152.939521,275.442131 C142.514439,271.624989 139.638521,266.080027 141.363816,254.174649 C144.837776,230.208327 155.151445,209.346022 172.255521,191.78857 Z M116.552197,186.536445 C86.0722054,196.82271 65.0091404,217.516058 51.9751464,248.59545 C45.3595428,238.607158 48.6891194,232.3276 52.6884736,226.886766 L53.1296623,226.292829 L53.1296623,226.292829 L53.5735048,225.704784 L53.5735048,225.704784 L53.7215709,225.509933 C69.5095053,204.757928 91.1037011,192.74767 116.552197,186.536445 Z M233.4957,179.998274 C258.609638,180.687808 297.701695,216.143175 293.037093,239.782742 C283.660826,225.960505 277.301343,212.799429 267.466619,203.143724 C257.467018,193.326712 244.04308,186.964065 233.4957,179.998274 Z M274.163926,169.529378 C302.594309,167.46492 338.28476,188.556751 338.24094,210.334609 C320.300909,188.493313 301.871088,171.412765 274.163926,169.529378 Z M374.666738,193.878913 L374.070937,197.828033 L377,200.555565 L373.043892,201.211307 L371.343889,204.828252 L369.495337,201.284628 L365.515217,200.792423 L368.328386,197.946621 L367.568987,194.025555 L371.156281,195.810118 L374.666738,193.878913 Z M59.3339168,160.962485 C91.9723672,152.142636 125.099368,153.746767 157.903017,161.599738 C159.526183,161.988019 161.093323,162.608058 162.65502,163.25073 C141.247152,163.226503 119.834803,162.938958 98.4355788,163.351148 C77.0075415,163.763657 57.4056464,170.275496 39.6587071,182.452798 C31.0514432,188.358626 22.1019376,193.803807 13.0583076,199.030939 C9.55201214,201.057461 5.35867224,201.906707 1.02638673,203.453456 C-2.40659416,191.940185 3.26552395,184.364876 10.727287,180.647514 C26.3436204,172.867225 42.5503124,165.498171 59.3339168,160.962485 Z M185.179831,157.782724 L189.424396,162.183244 L195.47077,161.196283 L192.579485,166.575476 L195.390412,171.996749 L189.359405,170.920846 L185.04985,175.257928 L184.213935,169.214067 L178.739671,166.473464 L184.253954,163.813834 L185.179831,157.782724 Z M162.65486,163.250858 C163.567291,163.251814 164.479402,163.255321 165.391512,163.255321 L165.391512,163.255321 L165.601852,164.43706 C164.613225,164.066631 163.635163,163.654122 162.65486,163.250858 Z M303.516408,131.674861 C319.550539,131.192857 335.873766,133.238187 351.698518,136.129256 C358.475478,137.367102 364.650233,143.274204 370.385101,147.929434 C372.188832,149.393618 371.670188,153.690852 372.214444,156.691264 C369.501484,156.998893 366.609238,158.063956 364.108537,157.477072 C362.967602,157.209333 361.823137,156.946009 360.677147,156.682996 L358.383727,156.156167 C351.500928,154.569623 344.611318,152.895744 338.1478,150.247964 C306.728165,137.377303 275.39305,139.789556 243.949724,149.607205 C231.994639,153.340187 220.140402,157.393869 208.240384,161.301227 C237.026135,142.720792 269.148502,132.708365 303.516408,131.674861 Z M63.4007945,82.7598763 C63.4075202,75.3752013 81.5168706,74.0637162 89.8267141,77.0437266 C125.307146,89.7674277 150.041705,114.803277 168.041243,147.178534 C158.940947,137.175033 150.795981,126.02996 140.47879,117.481079 C129.607417,108.473146 117.301767,100.539522 104.438413,94.7366621 C92.0824992,89.1623721 63.3908723,93.441435 63.4007945,82.7598763 Z M85.0685315,112.349678 L84.2928053,120.635879 L90.7079942,125.969486 L82.5543845,127.795492 L79.4425152,135.518717 L75.178742,128.361337 L66.8404051,127.80123 L72.3588506,121.551751 L70.3172467,113.482005 L77.9919103,116.776976 L85.0685315,112.349678 Z M206.971753,125.277944 C217.797984,97.7542893 261.103871,70.9590604 277.842975,83.8670197 C263.756644,88.9137191 249.438523,91.91987 237.491443,98.9290153 C225.860671,105.752308 216.657286,116.673913 206.971753,125.277944 Z M237.591554,22.1144638 C246.523771,15.9462757 250.225359,15.3676793 261.097692,19.3445333 C244.062129,35.0463321 225.02338,47.9606671 212.459047,65.4744449 C199.816918,83.0969287 193.61431,105.294946 185.808704,122.761225 C185.009607,94.0647571 211.992267,39.7924163 237.591554,22.1144638 Z M130.305666,39.5762476 C131.77269,40.296977 133.307508,40.9408594 134.848568,41.5776672 L136.004572,42.0550368 C139.470325,43.4897071 142.889779,44.9768676 145.56183,47.3112684 C161.358088,61.1102342 174.689502,97.7205617 172.012719,119.893714 C168.855068,87.8436186 153.966758,62.3802772 126.676113,43.8804947 C127.885964,42.4456394 129.095815,41.0107841 130.305666,39.5762476 Z M356.489868,87.6333474 L363.188391,93.0313488 L371.451172,90.5970998 L368.365555,98.6085079 L373.243698,105.68141 L364.638355,105.234791 L359.390438,112.040232 L357.157703,103.752756 L349.036109,100.885914 L356.2616,96.2106005 L356.489868,87.6333474 Z M5.1071935,59.4458212 L7.88482497,62.3257329 L11.8425336,61.6798727 L9.9501201,65.200544 L11.7900288,68.7489497 L7.84256501,68.0447517 L5.02203329,70.88354 L4.47489496,66.9274072 L0.891763169,65.1339178 L4.50114735,63.3930281 L5.1071935,59.4458212 Z M315.947942,22.8384903 L314.400331,33.0919196 L322.006162,40.1740668 L311.734433,41.8773398 L307.320509,51.2681344 L302.519522,42.0673362 L292.186003,40.7893236 L299.490572,33.3995479 L297.5178,23.2188019 L306.833239,27.8526735 L315.947942,22.8384903 Z M65.9954301,-3.97903932e-13 L76.5303242,13.3577662 L93.5537218,12.2888771 L84.0509951,26.3932399 L90.3323609,42.1842987 L73.9239736,37.5434138 L60.7827289,48.371614 L60.1449878,31.3991346 L45.7420274,22.3003479 L61.7556683,16.4512644 L65.9954301,-3.97903932e-13 Z M168.451997,3.0383164 L170.794864,11.0264531 L178.731411,13.6331653 L171.82575,18.3202742 L171.788613,26.6421798 L165.177491,21.5508504 L157.217893,24.0871109 L160.038105,16.2532665 L155.155799,9.49914995 L163.509504,9.7487593 L168.451997,3.0383164 Z" id="Combined-Shape"></path>
                </g>
            </g>
        </g>
    </g>
</svg>