<?xml version="1.0" encoding="UTF-8"?>
<svg width="1015px" height="293px" viewBox="0 0 1015 293" version="1.1" xmlns="http://www.w3.org/2000/svg" xmlns:xlink="http://www.w3.org/1999/xlink">
    <!-- Generator: Sketch 53.2 (72643) - https://sketchapp.com -->
    <title>gamcare-logo</title>
    <desc>Created with Sketch.</desc>
    <g id="Page-1" stroke="none" stroke-width="1" fill="none" fill-rule="evenodd">
        <g id="gamcare-logo" fill="#4D4D4D" fill-rule="nonzero">
            <path d="M382.66,111.32 C383.38,113.83 382.48,115.32 380.5,115.99 L361.09,121.74 C358.75,122.46 357.49,121.74 356.77,119.41 C353.77,109.52 347.25,104.13 335.38,104.13 C317.05,104.13 310.94,114.91 310.94,129.47 L310.94,162.91 C310.94,177.47 317.05,188.25 335.38,188.25 C350.48,188.25 358.38,181.25 358.38,165.96 L358.38,161.65 L338.26,161.65 C336.64,161.65 335.56,160.75 335.56,158.77 L335.56,140.26 C335.477525,139.505605 335.728767,138.75283 336.247804,138.199191 C336.76684,137.645552 337.501858,137.346317 338.26,137.38 L382.12,137.38 C383.92,137.38 385,138.28 385,140.08 L385,167.76 C385,194.18 365.58,214.14 335.38,214.14 C299.61,214.14 282.9,192.93 282.9,163.81 L282.9,128.57 C282.9,99.45 299.61,78.24 335.38,78.24 C364.32,78.24 377.45,94.78 382.66,111.32 L382.66,111.32 Z M481.14,144.39 L481.14,209.28 C481.184011,210.006921 480.915121,210.717974 480.401125,211.23388 C479.88713,211.749787 479.177079,212.021314 478.45,211.98 L458.67,211.98 C457.917232,212.059337 457.167263,211.806686 456.615949,211.288028 C456.064635,210.76937 455.766718,210.036205 455.8,209.28 L455.8,198.68 C450.089841,208.311406 439.665802,214.154666 428.47,214 C409.78,214 397.74,201.95 397.74,183.44 C397.74,165.44 409.06,154.68 436.74,152.7 C442.727017,152.189126 448.743964,152.128957 454.74,152.52 L454.74,145.33 C454.74,135.62 449.74,131.85 441.08,131.85 C432.27,131.85 429.75,135.44 427.42,141.02 C426.52,143.17 425.8,143.53 423.82,143.02 L404.05,138.02 C402.05,137.48 401.89,136.4 402.25,134.96 C404.95,120.76 418.43,110.34 442.16,110.34 C467.12,110.24 481.14,122.1 481.14,144.39 L481.14,144.39 Z M454.72,178.39 L454.72,169 C449.440526,168.810763 444.154282,168.991204 438.9,169.54 C428.83,170.8 423.44,173.85 423.44,181.54 C423.44,188.54 428.11,192.33 435.84,192.33 C444.65,192.39 451.48,187.53 454.72,178.37 L454.72,178.39 Z M552.53,110.24 C565.11,110.24 573.38,117.61 577.15,128.24 C584.52,117.46 593.51,110.24 606.09,110.24 C623.53,110.24 633.42,124.08 633.42,144.75 L633.42,209.28 C633.42,210.9 631.98,211.98 630.18,211.98 L609.51,211.98 C607.71,211.98 606.27,210.9 606.27,209.28 L606.27,149.42 C606.27,140.42 602.32,135.04 595.27,135.04 C587.9,135.04 582.51,141.16 579.81,150.5 L579.81,209.28 C579.863134,209.979697 579.620945,210.669688 579.142155,211.182678 C578.663364,211.695667 577.991695,211.98481 577.29,211.98 L555,211.98 C553.39,211.98 552.67,210.9 552.67,209.28 L552.67,149.42 C552.67,140.42 548.67,135.04 541.67,135.04 C534.12,135.04 528.73,141.52 526.21,150.68 L526.21,209.28 C526.285688,210.014901 526.027083,210.744908 525.505651,211.268278 C524.984219,211.791648 524.255176,212.052961 523.52,211.98 L501.66,211.98 C500.923182,212.056198 500.191255,211.79632 499.667468,211.272532 C499.14368,210.748745 498.883802,210.016818 498.96,209.28 L498.96,114.91 C498.954948,114.209071 499.244388,113.538217 499.757767,113.060965 C500.271146,112.583713 500.961301,112.343906 501.66,112.4 L522.66,112.4 C523.357794,112.343726 524.047044,112.583794 524.558889,113.061389 C525.070735,113.538985 525.357888,114.209985 525.35,114.91 L525.35,126.24 C531.32,118 539.94,110.24 552.53,110.24 L552.53,110.24 Z M746.53,112.4 C747.07,114.73 746.35,116.53 744.2,117.07 L725.14,122.64 C722.8,123.36 721.55,122.46 720.83,120.3 C718.13,111.3 713.46,104.13 700.16,104.13 C683.8,104.13 678.58,114.91 678.58,129.47 L678.58,162.91 C678.58,177.47 684.52,188.25 700.16,188.25 C714.16,188.25 719.57,180.34 721.73,170.46 C722.27,168.3 723.73,167.22 726.04,168.12 L745.09,174.23 C747.25,174.95 747.97,176.57 747.43,178.9 C742.94,198.32 728.92,214.14 699.8,214.14 C667.08,214.14 650.54,192.93 650.54,163.81 L650.54,128.57 C650.54,99.45 667.44,78.24 699.8,78.24 C728.2,78.24 741.5,93.34 746.53,112.4 L746.53,112.4 Z M842.22,144.39 L842.22,209.28 C842.264011,210.006921 841.995121,210.717974 841.481125,211.23388 C840.96713,211.749787 840.257079,212.021314 839.53,211.98 L819.75,211.98 C818.997232,212.059337 818.247263,211.806686 817.695949,211.288028 C817.144635,210.76937 816.846718,210.036205 816.88,209.28 L816.88,198.68 C811.172842,208.31448 800.746858,214.158829 789.55,214 C770.86,214 758.82,201.95 758.82,183.44 C758.82,165.44 770.14,154.68 797.82,152.7 C803.807019,152.189164 809.823963,152.128994 815.82,152.52 L815.82,145.33 C815.82,135.62 810.82,131.85 802.16,131.85 C793.35,131.85 790.83,135.44 788.5,141.02 C787.6,143.17 786.88,143.53 784.9,143.02 L765.13,138.02 C763.13,137.48 762.97,136.4 763.33,134.96 C766.03,120.76 779.51,110.34 803.24,110.34 C828.2,110.24 842.22,122.1 842.22,144.39 L842.22,144.39 Z M815.8,178.39 L815.8,169 C810.520526,168.810763 805.234282,168.991204 799.98,169.54 C789.91,170.8 784.52,173.85 784.52,181.54 C784.52,188.54 789.2,192.33 796.92,192.33 C805.73,192.39 812.56,187.53 815.8,178.37 L815.8,178.39 Z M919.19,114.19 L919.19,133.43 C919.19,135.76 918.29,136.66 915.95,136.66 L913.07,136.66 C898.69,136.66 890.25,143.13 887.37,153.92 L887.37,209.28 C887.436607,209.959489 887.220142,210.636383 886.771623,211.151138 C886.323104,211.665894 885.682211,211.972974 885,212 L862.38,212 C861.707672,211.964852 861.078825,211.656786 860.638975,211.147088 C860.199125,210.63739 859.986391,209.970234 860.05,209.3 L860.05,114.91 C860.012132,114.201004 860.290135,113.511629 860.809253,113.027247 C861.328371,112.542865 862.03532,112.313197 862.74,112.4 L883.23,112.4 C885.39,112.4 885.93,113.83 885.93,115.27 L885.93,128.57 C890.6,119.77 899.41,111.14 914.87,111.14 C918.47,111.14 919.19,111.68 919.19,114.19 L919.19,114.19 Z M954.51,170.46 L954.51,174.23 C954.51,184.66 959.91,192.03 972.67,192.03 C985.07,192.03 988.49,187.35 991.72,181.42 C993.34,178.72 994.06,178.42 996.93,179.62 L1011.14,186.81 C1014.01,188.25 1014.19,189.69 1012.93,192.39 C1006.82,206.23 991.54,214.14 972.49,214.14 C943.73,214.14 928.63,197.06 928.63,173.69 L928.63,150.69 C928.63,128.04 942.83,110.25 972.31,110.25 C1000.31,110.25 1014.01,128.04 1014.01,150.15 L1014.01,166 C1014.01,168.7 1013.11,170.5 1009.34,170.5 L954.51,170.46 Z M954.51,149.46 L954.51,152.88 L989.21,152.88 L989.21,149.46 C989.21,139.76 983.81,132.21 971.95,132.21 C960.09,132.21 954.51,139.72 954.51,149.42 L954.51,149.46 Z" id="Shape"></path>
            <path d="M124.28,0 L3.65,0 C1.63644077,0.00549405312 0.00549405312,1.63644077 -6.28547321e-15,3.65 L-6.28547321e-15,179.11 C-0.00265231779,209.168717 11.9362675,237.997215 33.1900527,259.252876 C54.443838,280.508537 83.2712825,292.45 113.33,292.45 L124.33,292.45 C186.904809,292.422393 237.615528,241.684815 237.61,179.11 L237.61,113.33 C237.61,83.2730152 225.669909,54.4470863 204.416412,33.1935885 C183.162914,11.9400907 154.336985,1.51884421e-14 124.28,0 Z M201.22,181 C201.22,223.67 169.87,255.89 121.11,255.89 C63.34,255.89 36.35,221.64 36.35,174.61 L36.35,117.72 C36.35,70.72 63.35,36.44 121.11,36.44 C167.84,36.44 189.03,63.15 197.45,89.85 C198.61,93.92 197.16,96.24 193.97,97.4 L162.62,106.69 C158.84,107.85 156.81,106.69 155.62,102.92 C150.68,86.92 140.23,78.24 121.08,78.24 C91.47,78.24 81.6,95.66 81.6,119.17 L81.6,173.17 C81.6,196.68 91.47,214.1 121.08,214.1 C145.46,214.1 158.23,202.78 158.23,178.1 L158.23,171.1 L125.75,171.1 C123.14,171.1 121.4,169.65 121.4,166.46 L121.4,136.56 C121.4,133.65 123.14,131.91 125.75,131.91 L196.58,131.91 C199.48,131.91 201.22,133.36 201.22,136.27 L201.22,181 Z" id="Shape"></path>
        </g>
    </g>
</svg>