<?xml version="1.0" encoding="UTF-8"?>
<svg width="52px" height="52px" viewBox="0 0 52 52" version="1.1" xmlns="http://www.w3.org/2000/svg" xmlns:xlink="http://www.w3.org/1999/xlink">
    <!-- Generator: Sketch 52.3 (67297) - http://www.bohemiancoding.com/sketch -->
    <title>WISHLIST-Un</title>
    <desc>Created with Sketch.</desc>
    <defs>
        <circle id="path-1" cx="25" cy="25" r="25"></circle>
    </defs>
    <g id="Page-1" stroke="none" stroke-width="1" fill="none" fill-rule="evenodd">
        <g id="Mobile-Copy-85" transform="translate(-27.000000, -689.000000)">
            <g id="WISHLIST-Un" transform="translate(28.000000, 690.000000)">
                <mask id="mask-2" fill="white">
                    <use xlink:href="#path-1"></use>
                </mask>
                <use id="Mask" stroke="#4A4A4A" stroke-width="2" xlink:href="#path-1"></use>
                <g id="Fill-2" mask="url(#mask-2)" fill="#4A4A4A">
                    <g transform="translate(13.000000, 15.000000)" id="Fill-1">
                        <path d="M11.9988499,20.4202079 C12.1705863,20.260012 12.331537,20.1133136 12.4889579,19.962438 C13.4382388,19.0525897 14.3906818,18.1464747 15.3344964,17.2302562 C16.7431463,15.8627685 18.1334117,14.474708 19.393931,12.9478598 C20.1305883,12.0555557 20.8112094,11.119156 21.340832,10.0681441 C21.9418847,8.87539431 22.2691299,7.61732339 22.1139152,6.25134993 C21.9932144,5.189164 21.6030694,4.25127615 20.9046765,3.47966732 C19.7700057,2.22600857 18.3588309,1.76954406 16.7618741,1.96770041 C15.5082918,2.12327534 14.4352705,2.71113919 13.5695291,3.69351432 C13.1398941,4.18102071 12.7426159,4.70082216 12.330679,5.20597727 C12.2222101,5.33896916 12.1136676,5.47185662 12.0003452,5.6106705 C11.5293081,5.0298818 11.0646443,4.46454878 10.6077511,3.89219282 C9.18902647,2.11502535 6.84489634,1.43184282 4.80261625,2.2772316 C3.03348179,3.00952245 2.06848821,4.44418488 1.86995942,6.44666056 C1.77225158,7.43227303 1.95913681,8.38190928 2.31584641,9.29397676 C2.77065604,10.4567812 3.44767379,11.4696239 4.19580303,12.4327838 C5.07380085,13.5630844 6.03425957,14.6118249 7.0406797,15.6106217 C8.32120145,16.881407 9.62013227,18.1311496 10.913082,19.3877324 C11.2683453,19.733057 11.6304967,20.0703406 11.9988499,20.4202079 Z M24,7.35395036 C23.9773012,7.54693741 23.9552887,7.74000279 23.931781,7.9328332 C23.8082612,8.9465374 23.4922918,9.89379787 23.0553765,10.7986597 C22.5265629,11.8938194 21.8468732,12.8790925 21.1026906,13.8158577 C19.8773715,15.3582922 18.5154184,16.7586754 17.11726,18.1189574 C15.7800157,19.4199752 14.4272549,20.7029005 13.0795682,21.9917001 C12.7276141,22.3283048 12.3692131,22.6572078 12.0026739,23 C11.8432429,22.8520485 11.6828805,22.7072038 11.5265872,22.5575291 C9.84895883,20.9512878 8.16468751,19.3527744 6.49728097,17.7345758 C5.33292517,16.6045364 4.21261878,15.4249447 3.17585186,14.1596159 C2.27559647,13.0609055 1.45147768,11.9043147 0.846159741,10.5866924 C0.414710762,9.64755139 0.125092576,8.6635576 0.0320666751,7.62001246 C-0.289687731,4.01100831 1.84257867,0.995716091 4.9583948,0.210400796 C5.32527719,0.117927832 5.70510231,0.0837269331 6.07882375,0.0219825624 C6.11049423,0.0167349436 6.1415764,0.007414546 6.17292822,0 L7.02999214,0 C7.05690714,0.00749286866 7.08340543,0.0182230743 7.11076166,0.0220347775 C7.37312167,0.0583503884 7.63827613,0.0788187125 7.89767009,0.131425439 C9.41672544,0.439494603 10.712347,1.19006074 11.7832602,2.37884221 C11.8555238,2.45907073 11.9259735,2.54117899 11.9881623,2.61200879 C12.264323,2.33365003 12.5186674,2.05064412 12.798505,1.79988104 C13.848999,0.858573097 15.0569385,0.283240879 16.4173473,0.075790236 C16.6018548,0.0476462903 16.7870977,0.0251154692 16.9720219,0 L17.8290858,0 C17.8685759,0.00796280468 17.9077718,0.0183797197 17.9475805,0.0235229082 C18.1779513,0.0534421678 18.4106509,0.0692633469 18.638546,0.11335901 C19.8255025,0.342974967 20.8904836,0.856588923 21.8020639,1.70414463 C22.9460006,2.76776648 23.6457662,4.10214979 23.903003,5.696721 C23.9441845,5.95194848 23.9681089,6.21038718 24,6.46733774 L24,7.35395036 Z"></path>
                    </g>
                </g>
            </g>
        </g>
    </g>
</svg>