<?xml version="1.0" encoding="UTF-8"?>
<svg width="43px" height="42px" viewBox="0 0 43 42" version="1.1" xmlns="http://www.w3.org/2000/svg" xmlns:xlink="http://www.w3.org/1999/xlink">
    <!-- Generator: Sketch 53.2 (72643) - https://sketchapp.com -->
    <title>Combined Shape 2</title>
    <desc>Created with Sketch.</desc>
    <g id="Page-1" stroke="none" stroke-width="1" fill="none" fill-rule="evenodd">
        <g id="Desktop-Copy-22" transform="translate(-379.000000, -441.000000)" fill="#4A4A4A">
            <g id="Group" transform="translate(306.000000, 440.000000)">
                <g id="Combined-Shape-2" transform="translate(73.000000, 1.000000)">
                    <path d="M9.85381077,21.2556065 C9.84877353,21.2556065 9.84373629,21.2556065 9.83879592,21.2556065 C9.83879592,22.4199487 9.8256216,23.5844801 9.84315507,24.7485382 C9.85603878,25.6116414 9.8420895,26.482697 9.95610549,27.3354812 C10.332058,30.1487794 12.713704,32.3697295 15.6088578,32.5092726 C17.9697736,32.6228762 20.3386328,32.5922979 22.7040046,32.5991141 C24.1517268,32.6032796 25.6036145,32.6159653 27.0463963,32.5211063 C29.8591138,32.3361218 31.9987785,30.5452559 32.6736719,27.8735835 C32.811421,27.3282863 32.9206904,26.758943 32.9213685,26.2004867 C32.9260182,22.7085018 32.985787,19.2132034 32.8516221,15.7253839 C32.7253036,12.4426189 29.9647021,9.96984746 26.5975007,9.94466533 C23.1362385,9.91891519 19.674492,9.9257314 16.2132298,9.94674807 C14.9873399,9.95422697 13.8278059,10.2816893 12.7871314,10.9279044 C10.9196714,12.0874183 9.98100109,13.8111634 9.87250668,15.9228648 C9.781352,17.6962168 9.85381077,19.4777104 9.85381077,21.2556065 Z M0,22.0346431 L0,20.0510298 C0.031579622,19.8840326 0.0670340443,19.7175086 0.093867036,19.549754 C0.297197179,18.2795712 0.395229625,16.9835436 0.717031786,15.7428031 C3.61092635,4.58664679 15.3966157,-2.20751044 26.8117772,0.654637279 C37.6741016,3.37818863 44.8417071,13.7372264 42.5839578,25.0706044 C40.8034871,34.0090293 33.2444299,40.8317768 24.0573754,41.8490022 C19.6264445,42.3396751 15.3805352,41.65048 11.4572031,39.5470149 C5.21025015,36.1978864 1.47048669,31.0609215 0.285669648,24.1769228 C0.16351657,23.4672791 0.094060776,22.7489257 0,22.0346431 Z M28.9065039,15.1173396 C28.9058258,14.3495687 28.3278993,13.7800361 27.5432523,13.7736932 C26.754343,13.767445 26.1714761,14.3260906 26.161886,15.097743 C26.1521021,15.8906014 26.7403937,16.4725358 27.5455772,16.4663822 C28.3185998,16.4605127 28.907182,15.8771583 28.9065039,15.1173396 Z M15.419971,21.1790377 C15.3751202,24.216135 17.99836,26.9017238 21.0586772,26.951804 C24.5548126,27.0090792 27.3088269,24.5253261 27.3531933,21.2751274 C27.3963005,18.1177997 24.7347002,15.4526595 21.4885863,15.4027686 C18.1060794,15.3506057 15.4689872,17.8607716 15.419971,21.1790377 Z M21.3652708,30.4489958 C19.6110518,30.4489958 17.8538299,30.5115725 16.1030983,30.434038 C13.6312663,30.3243159 11.9389473,28.6078603 11.9077552,26.1859265 C11.8647449,22.8511879 11.8659074,19.5151238 11.9067865,16.1802905 C11.9378818,13.639925 13.6771827,11.9844367 16.3477919,11.9521543 C19.6796358,11.9120144 23.012739,11.9120144 26.3445828,11.9521543 C29.0279789,11.984626 30.793241,13.6971054 30.8290829,16.3182242 C30.8743212,19.637153 30.8701558,22.9575019 30.8256924,26.2764307 C30.7937253,28.6678809 29.1341484,30.2862587 26.6765563,30.4474811 C26.5159459,30.4579894 26.3554323,30.4786274 26.1948218,30.4789114 C24.585036,30.4812782 22.9752503,30.4803315 21.3653676,30.4803315 C21.3653676,30.4698231 21.3653676,30.4595041 21.3652708,30.4489958 Z M17.4948587,21.1750427 C17.4944713,19.074607 19.2077142,17.4049183 21.357744,17.4103144 C23.4584669,17.4157106 25.1942806,19.1165457 25.1972835,21.1724866 C25.2002865,23.2349597 23.4210751,24.9640063 21.3111495,24.9490485 C19.1992865,24.9341854 17.4952462,23.2490655 17.4948587,21.1750427 Z" id="Combined-Shape"></path>
                </g>
            </g>
        </g>
    </g>
</svg>