<?xml version="1.0" encoding="UTF-8"?>
<svg width="33px" height="33px" viewBox="0 0 33 33" version="1.1" xmlns="http://www.w3.org/2000/svg" xmlns:xlink="http://www.w3.org/1999/xlink">
    <title>Combined Shape 3</title>
    <g id="Page-1" stroke="none" stroke-width="1" fill="none" fill-rule="evenodd">
        <g id="Combined-Shape-3" fill="#4A4A4A">
            <path d="M14.8112656,15.9567454 C15.0768365,16.1869972 15.3101021,16.4331422 15.5867492,16.6164181 C15.8580633,16.7962237 16.1734257,16.9120034 16.4904289,17.0661081 C16.2446343,17.4287034 15.991524,17.8028555 15.7354585,18.180517 L15.349689,18.7486356 L10.3171731,26.1442525 C9.45928501,27.4040483 8.59662806,28.6607257 7.74212437,29.9227345 C7.65643812,30.0492774 7.5659317,30.0989691 7.41173748,30.0974935 C7.23082719,30.0956746 7.04990729,30.0945619 6.86802592,30.0939159 L5.75758521,30.0937264 L5.17943378,30.0942414 C8.41638439,25.3430489 11.615953,20.6467286 14.8112656,15.9567454 Z M19.4371436,15.917656 C22.6560442,20.6426446 25.8588434,25.3439945 29.0843076,30.0785895 C28.9942114,30.0846752 28.9399076,30.0915154 28.8856037,30.091616 C28.2022162,30.0926722 27.5186747,30.0987076 26.8354923,30.0864356 C26.7389863,30.0847255 26.6074571,30.0168269 26.554025,29.9387687 C25.2116071,27.9789634 23.8791372,26.0125191 22.5415908,24.0495452 C21.123127,21.9679248 19.7009198,19.8887689 18.2812253,17.8080035 C18.1108784,17.5584384 17.945967,17.3054029 17.7589546,17.0246547 C18.463315,16.8481183 19.0002001,16.4828741 19.4371436,15.917656 Z M23.0543084,26.004492 C23.2981373,26.3618398 23.538992,26.7149629 23.7941535,27.0889585 C21.7753219,28.1057276 19.6508567,28.6201475 17.4116304,28.6585731 C14.9820073,28.7002679 12.6752986,28.1888153 10.4952477,27.0942898 C10.5357063,27.0236249 10.5648325,26.9637233 10.6021119,26.9091529 C10.8061487,26.6107511 11.0121342,26.3137073 11.2245807,26.0060008 C15.1570719,27.8044086 19.0847942,27.8086334 23.0543084,26.004492 Z M30.9897216,9.75618426 C33.0162963,15.6230766 30.8247589,21.8093438 26.6010063,25.2316348 C26.3549724,24.8726775 26.1104256,24.5159332 25.8655198,24.1586357 C29.0265784,21.3031723 30.6075948,17.7961841 30.3825851,13.584861 C30.1956752,10.0880324 28.7454188,7.1216177 26.1210915,4.75507461 C20.8592072,0.00996786567 12.868285,0.192942039 7.84479404,5.04437297 C5.11047455,7.68502526 3.77210764,10.9312828 3.87902316,14.7063951 C3.98604124,18.484676 5.57069842,21.6020771 8.41398456,24.1571771 C8.16430991,24.5192024 7.92160912,24.8708669 7.67824171,25.2235876 C3.92112275,22.2357974 1.32540885,16.5179802 3.07728498,10.4224959 C4.78239518,4.48996827 10.2082167,0.200737805 16.6792976,0.00689985453 C23.2304754,-0.189352268 28.9387384,3.81867737 30.9897216,9.75618426 Z M17.9850565,18.5646605 C19.0612369,20.1433786 20.1306997,21.7121382 21.2144179,23.3018206 C20.3185838,23.9331268 19.3737789,24.0855214 18.3806183,23.7133365 C17.2573131,23.2924154 16.6208453,22.4470526 16.5214677,21.2819628 C16.4216286,20.1118435 16.9384126,19.2083896 17.9850565,18.5646605 Z M11.1940957,14.0125216 C11.5741201,14.5122554 11.7506717,15.0805416 11.7483362,15.7030461 C11.7467233,17.7194838 9.6907148,19.1024024 7.7885416,18.3435475 C7.47543554,18.2186643 7.22663262,17.9437001 6.93921704,17.7507675 C5.7542239,16.9552473 5.75073697,15.3020419 6.2552654,14.3796268 C7.28001346,12.5061281 9.89905904,12.3092725 11.1940957,14.0125216 Z M28.1599371,13.373983 C28.6988734,13.8313681 29.0917174,15.1392462 28.6019058,16.2386001 C28.0568675,17.4619318 26.7344994,18.1769796 25.4193616,17.9488906 C24.1736549,17.7328724 23.2214145,16.7155501 23.088911,15.6880178 C25.4618715,16.7259109 27.667818,15.280425 28.1599371,13.373983 Z M17.1536487,12.2374961 C18.3251556,12.2511261 19.2652429,13.1806329 19.2683274,14.3284211 C19.2714476,15.4967801 18.3310526,16.4140149 17.1330347,16.4110046 C15.9313248,16.4079292 15.0067748,15.4973837 15.0118306,14.3218325 C15.0169792,13.1565415 15.975373,12.2238158 17.1536487,12.2374961 Z M24.6586103,9.65712648 C26.2890078,9.65566917 27.5902492,10.9329174 27.5822864,12.5269755 C27.5742503,14.1059954 26.2913154,15.3535694 24.6746092,15.3543745 C23.0378018,15.3551789 21.7719939,14.1136905 21.7706595,12.5061533 C21.7692761,10.9294973 23.057544,9.65858629 24.6586103,9.65712648 Z M11.8081343,7.94534852 C11.9119218,7.97643099 12.0285803,8.04528521 12.0868838,8.13093804 C12.4317825,8.63766283 12.8921089,9.00999868 13.424738,9.31096554 C13.5257052,9.36800037 13.6363127,9.46833943 13.6688233,9.57114295 C13.7472109,9.81883036 13.8116052,10.0707873 13.87486,10.3230944 L13.9704942,10.7013278 L13.908191,10.7170703 C13.896038,11.9590615 13.0249714,13.0895482 11.8344914,13.4134497 C11.7023982,13.4494108 11.6070716,13.4516238 11.4974896,13.3350897 C10.7422097,12.5317234 9.80099418,12.1550119 8.68707294,12.175482 C8.6044634,12.1769909 8.48365143,12.0990332 8.44170568,12.0247974 C7.8721562,11.0179868 7.99491675,9.77539202 8.74178702,8.87133463 C9.47306865,7.98603739 10.6962129,7.61289682 11.8081343,7.94534852 Z M10.6304932,8.79091251 L10.2844472,8.7951876 C10.0882046,8.79961359 9.95564991,8.89346455 9.93811269,9.09333793 C9.91939606,9.30674074 10.0452846,9.42448196 10.2476805,9.45400528 C10.3298628,9.46597555 10.4142557,9.46346079 10.5068911,9.46045425 L10.6527801,9.45732476 L10.6522289,10.909041 L10.6546774,12.0657378 C10.6559081,12.2914629 10.7937958,12.4319376 10.9889102,12.4298487 C11.1791019,12.4277128 11.3233994,12.2795932 11.3242198,12.0621165 C11.3276042,11.0898085 11.3273991,10.1175004 11.3245275,9.14519235 C11.3239121,8.92535175 11.2032027,8.80077038 10.9765008,8.79493613 L10.6304932,8.79091251 Z M23.7433109,5.70337674 C25.2808945,6.29852061 25.8519311,7.95906906 25.4603177,9.04645269 C23.2193992,9.00737327 22.7024102,9.24863965 21.450191,10.9178389 C20.2779149,10.4940007 19.3630053,8.96326432 19.9260936,7.4042117 C20.4785161,5.87443093 22.2074708,5.10883642 23.7433109,5.70337674 Z M15.0993785,3.31996965 C16.7083417,3.3353097 17.9996863,4.62643944 17.9862,6.20636459 C17.9728677,7.77889634 16.6712161,9.03054429 15.0587147,9.0213907 C13.4304196,9.01203564 12.1547662,7.74932272 12.1626266,6.15491254 C12.1705087,4.5780554 13.4896462,3.30462959 15.0993785,3.31996965 Z M14.4029149,4.5334435 C13.9325892,4.54320078 13.5324124,4.84919717 13.407293,5.29466233 C13.2372025,5.9003682 13.6021511,6.42228216 14.3387144,6.61149295 C14.344355,6.65419363 14.34897,6.67858683 14.350611,6.70318122 C14.3969666,7.39760794 14.9047256,7.87204317 15.5997534,7.87008771 C16.2440155,7.86827102 16.7915666,7.36637458 16.8200261,6.75171615 C16.8520751,6.05804386 16.3848774,5.51998512 15.6744661,5.46264851 C15.5097085,5.44937056 15.4670448,5.38710503 15.4257144,5.25100604 C15.2893138,4.80267405 14.8804709,4.52353533 14.4029149,4.5334435 Z M15.6119782,6.10851013 C15.9003168,6.11459585 16.1509144,6.38241814 16.1448123,6.6780537 C16.1386589,6.97645551 15.8877535,7.20932258 15.5775191,7.20459483 C15.2689768,7.19991737 15.0259683,6.95895276 15.0274486,6.6589918 C15.0288912,6.36556922 15.308615,6.10212263 15.6119782,6.10851013 Z M14.428467,5.18816217 C14.6275298,5.18922334 14.8057736,5.3606296 14.8102349,5.55517168 C14.8147986,5.75670481 14.6238891,5.94093636 14.4166729,5.93495123 C14.2108926,5.92896609 14.0476734,5.75987341 14.0519808,5.55703261 C14.0562882,5.35464446 14.2272504,5.18711094 14.428467,5.18816217 Z M1.28998571,33 L33,33 L33,30.7886681 L1.28998571,30.7886681 L1.28998571,33 Z M1.99760235,12.2494966 L0,12.2494966 L0,17.5045973 L2.19015283,17.5045973 C1.81669206,15.7557303 1.74095383,14.0193366 1.99760235,12.2494966" id="Combined-Shape"></path>
        </g>
    </g>
</svg>