<?xml version="1.0" encoding="UTF-8"?>
<svg width="20px" height="27px" viewBox="0 0 20 27" version="1.1" xmlns="http://www.w3.org/2000/svg" xmlns:xlink="http://www.w3.org/1999/xlink">
    <title>Group 7 Copy 2</title>
    <g id="Page-1" stroke="none" stroke-width="1" fill="none" fill-rule="evenodd">
        <g id="Group-6" transform="translate(-0.000000, 0.000000)" fill="#4A4A4A">
            <path d="M16.533512,22.7284825 L14.03632,24.1108789 L13.9811793,24.1257898 L13.882867,24.0717378 L7.97134568,14.2532113 C7.81789267,13.998549 7.5589663,13.8157925 7.25922142,13.7508516 C6.96070417,13.6864994 6.64428407,13.7450638 6.39129121,13.9118304 L2.43742103,16.5277105 L2.21204971,2.32342048 C2.24560477,2.25671387 2.29000384,2.19697221 2.35118044,2.15155286 C2.43864865,2.08827967 2.54657727,2.0532587 2.65327826,2.0532587 L2.67967217,2.05669213 L15.4725379,9.31054564 L11.1447539,11.2809412 C10.8665947,11.4068009 10.6567733,11.640176 10.5644969,11.9207361 C10.4733458,12.2017868 10.5093561,12.5087353 10.6628091,12.7633976 L16.5742282,22.5819241 L16.5898804,22.6330331 L16.533512,22.7284825 Z M13.4709256,12.7004152 L18.7106956,10.3796457 C19.0873728,10.2125581 19.3351757,9.8663713 19.3536012,9.47731403 C19.3731784,9.08874503 19.1609703,8.72253902 18.8014624,8.52459246 L3.710192,0.199118418 C3.61816886,0.14872847 3.52980991,0.113865657 3.42794585,0.0886706832 C3.18998386,0.0291988263 2.94825302,0 2.71029103,0 C2.09680348,0.000585929625 1.51409499,0.190524783 1.04173051,0.52411405 C0.56947072,0.855945527 0.202634474,1.34002105 0.0381653701,1.91286492 C0.0112598578,2.00778551 -0.00109364586,2.1033897 7.57612461e-05,2.20182588 L0.267647405,18.5110793 C0.273719466,18.9002343 0.508121964,19.2514991 0.878622384,19.4301099 C1.2491228,19.6080372 1.6919645,19.5816704 2.03545472,19.3608726 L6.81039797,16.2869881 L12.2489756,25.0747606 C12.6881532,25.7825636 13.4868386,26.1808005 14.3026933,26.1790485 C14.7038681,26.1796286 15.1148838,26.0829502 15.4841279,25.8844177 L15.4853842,25.8838318 L18.0421407,24.5060183 C18.8014624,24.0962582 19.2284958,23.3512487 19.2259833,22.5902237 C19.2272395,22.2165959 19.1229676,21.8327144 18.9095032,21.4876018 L13.4709256,12.7004152 Z" id="Fill-4"></path>
        </g>
    </g>
</svg>