<?xml version="1.0" encoding="UTF-8"?>
<svg width="70px" height="52px" viewBox="0 0 70 52" version="1.1" xmlns="http://www.w3.org/2000/svg" xmlns:xlink="http://www.w3.org/1999/xlink">
    <!-- Generator: Sketch 52.3 (67297) - http://www.bohemiancoding.com/sketch -->
    <title>Combined Shape Copy 5</title>
    <desc>Created with Sketch.</desc>
    <g id="Page-1" stroke="none" stroke-width="1" fill="none" fill-rule="evenodd">
        <g id="Combined-Shape-Copy-5" transform="translate(3.000000, 3.000000)" fill="#E1E1E1" fill-rule="nonzero">
            <path d="M38.8093942,31.4095462 C39.292793,38.2262633 43.9706592,43 49.9064117,43 C56.0027471,43 60.9979003,37.8770723 60.9979003,31.5484428 C60.9979003,25.4667733 56.3703831,20.4584093 50.5470304,20.1151049 C49.0648244,20.0277244 47.8695059,18.8692511 47.7357759,17.3905062 C47.4586431,14.3260558 48.3304249,10.4935638 50.9447314,6.15894341 C50.2563606,5.44861718 49.6669623,4.83513887 48.9914526,4.12838559 C48.8766222,4.00866898 48.774164,3.90191342 48.6820078,3.80600094 C42.3236391,10.2966602 38.0455756,20.6769827 38.8093942,31.4095462 Z M66.9979003,31.5484428 C66.9979003,41.1573371 59.3508468,49 49.9064117,49 C40.6962109,49 33.5225981,41.6793678 32.8244776,31.8347208 C31.8687792,18.4060177 37.626212,5.54232278 46.0711772,-1.9925153 C46.8055076,-2.64541795 47.7455416,-3 48.7159033,-3 C49.7158121,-3 50.6825349,-2.62280686 51.4266843,-1.93161124 C51.5526679,-1.81439276 51.6717424,-1.70160319 51.789127,-1.58828566 C51.8553737,-1.52418052 51.8553737,-1.52418052 51.921143,-1.45993141 C52.2671069,-1.12117875 52.4998453,-0.881626264 53.3252035,-0.0211415012 C54.3179793,1.01754527 55.1170515,1.84669361 56.3287586,3.08927491 C57.6596592,4.45408679 57.8492056,6.57465889 56.7864632,8.15370386 C55.3504671,10.2915892 54.4653322,12.2522864 54.0185036,14.0178048 C53.969993,14.2094806 53.9274988,14.3949921 53.8906083,14.574262 C61.4372023,16.4170719 66.9979003,23.3647276 66.9979003,31.5484428 Z M3.08823585,31.4089947 C3.57376823,38.2264225 8.25222088,43 14.1853871,43 C20.2814392,43 25.2769701,37.8768566 25.2769701,31.5484428 C25.2769701,25.4668765 20.648945,20.4584223 14.8249732,20.1151057 C13.3428289,20.0277349 12.1475335,18.869357 12.0137222,17.3906819 C11.7365955,14.328307 12.6093614,10.4951598 15.224477,6.15899798 C14.5701786,5.48380521 14.0006854,4.89121033 13.2768872,4.13504786 C13.1622385,4.0152441 13.057749,3.90615274 12.9619286,3.80627271 C6.60373222,10.2967409 2.32522856,20.6773658 3.08823585,31.4089947 Z M10.3433968,-1.98536714 C11.0787545,-2.64323626 12.0216287,-3 12.9949546,-3 C13.9910498,-3 14.9560918,-2.62493513 15.7042161,-1.93400268 C16.2556344,-1.42163963 16.5458186,-1.12718092 17.6115184,-0.0135630509 C18.6892464,1.11235502 19.4172053,1.8675951 20.608521,3.08934336 C21.9393233,4.45414139 22.1288496,6.57462398 21.0662814,8.1535105 C19.6297407,10.2925655 18.7441005,12.2539205 18.2968865,14.0195164 C18.2484779,14.2106331 18.2060532,14.3956147 18.1692034,14.5743805 C25.7160146,16.4173679 31.2769701,23.3648915 31.2769701,31.5484428 C31.2769701,41.1571652 23.6294926,49 14.1853871,49 C4.97777096,49 -2.19618638,41.6796406 -2.8966441,31.835703 L-2.89671643,31.8336674 C-3.85111904,18.4061356 1.90624444,5.54298282 10.3433968,-1.98536714 Z" id="Shape"></path>
        </g>
    </g>
</svg>