<?xml version="1.0" encoding="UTF-8"?>
<svg width="197px" height="179px" viewBox="0 0 197 179" version="1.1" xmlns="http://www.w3.org/2000/svg" xmlns:xlink="http://www.w3.org/1999/xlink">
    <!-- Generator: Sketch 52.3 (67297) - http://www.bohemiancoding.com/sketch -->
    <title>Group 10</title>
    <desc>Created with Sketch.</desc>
    <g id="Page-1" stroke="none" stroke-width="1" fill="none" fill-rule="evenodd">
        <g id="Mobile-Copy-169" transform="translate(-48.000000, -808.000000)" fill="#FFFFFF">
            <g id="Group-10" transform="translate(48.000000, 808.000000)">
                <path d="M114.231585,60.3559742 C104.172031,67.7566257 97.3136052,77.2286518 93.5478173,88.9497491 C89.9600561,100.117161 86.1188687,111.222782 79.1322641,121.017085 C72.5980566,130.178142 64.8536867,138.039593 54.5164105,143.252963 C49.3733245,145.846523 43.9374369,147.356539 38.0776364,147.335538 C29.2127456,147.30323 20.3474359,147.3525 11.482545,147.320999 C4.75104216,147.296768 0.0146947336,143.015496 3.37129917e-05,137.027127 C-0.0146273076,130.967276 4.75397437,126.46146 11.4645329,126.383112 C18.7229948,126.298707 26.0086843,125.998642 33.2361485,126.462268 C40.9415621,126.956587 46.8323602,123.986634 52.1978748,119.186004 C61.4879352,110.873851 66.8333433,100.374416 70.5781869,88.9339987 C73.9401684,78.6631464 77.5333751,68.4977004 84.3289676,59.702536 C93.6072992,47.6951052 105.109079,38.4823543 120.068347,33.9930969 C125.053513,32.4972162 130.455052,32.0602446 135.708305,31.6870822 C141.054132,31.3070542 146.451482,31.6022725 151.826631,31.6014648 L154.062646,31.6014648 C154.145585,31.388633 154.228944,31.176205 154.311883,30.9633732 C150.449752,27.2943462 146.590971,23.6220884 142.723813,19.9583116 C140.269977,17.6337196 137.881068,15.2941848 137.558526,11.7107753 C137.136707,7.02807109 139.393667,3.11632702 143.807053,1.01991328 C147.754637,-0.855591518 152.666079,-0.124613119 156.002927,3.04888316 C163.694518,10.3639173 171.312803,17.7512415 178.958316,25.1111036 C184.038569,30.0017933 189.117146,34.8945023 194.191116,39.7916537 C194.926261,40.5012278 195.627896,41.2427064 196.750092,42.3791557 C193.520898,45.3503204 190.304689,48.2108287 187.202417,51.1815895 C178.302759,59.7037476 169.474311,68.2957727 160.558735,76.8025843 C158.292979,78.9644226 156.036019,81.263168 153.370227,82.878186 C148.770436,85.6655964 142.962159,84.2214093 139.605204,79.9369066 C136.463976,75.9286411 136.828826,70.0194278 140.542672,66.4303643 C145.118586,62.0085508 149.766129,57.6553927 154.593375,53.0728447 C153.94075,52.8285121 153.653394,52.6277959 153.365619,52.6273921 C147.153954,52.6217381 140.940614,52.5607559 134.730624,52.6697969 C126.945622,52.8067039 120.295383,55.8949867 114.231585,60.3559742 Z M190.939134,131.458566 C192.760452,133.208472 194.706179,134.838433 197,136.885576 C190.466211,143.069007 184.385239,148.786389 178.348668,154.546579 C170.869872,161.682706 163.454747,168.881025 155.959614,176.000593 C151.63587,180.107804 144.97097,179.962012 140.558422,175.777665 C136.452917,171.885306 136.42192,165.371521 140.583974,161.23483 C144.321696,157.520167 148.157019,153.895968 151.943333,150.226537 C152.755972,149.439019 153.544735,148.628885 154.720968,147.452454 C153.435824,147.394299 152.704449,147.333721 151.972655,147.332913 C144.645077,147.326855 137.317498,147.29172 129.990339,147.339779 C115.000493,147.438723 102.469928,141.982636 92.0275114,131.796997 C87.773721,127.64819 87.9927985,127.724115 90.7855135,122.746596 C93.5954028,117.738384 95.9700693,112.503206 98.5290457,107.364549 C98.9169344,106.585108 99.2704744,105.789109 99.7723002,104.718084 C100.929264,107.035003 101.807669,109.177456 103.009035,111.134943 C108.558022,120.176056 116.578019,125.760973 127.655886,126.200368 C136.422757,126.548087 145.216437,126.270235 154.52828,126.270235 C153.094432,124.812721 151.960507,123.613674 150.77464,122.464301 C147.578956,119.36673 144.364423,116.287332 141.151565,113.205914 C136.514912,108.759466 136.234677,102.162487 140.512344,98.0213526 C144.949188,93.7255419 151.774103,93.7675429 156.442171,98.2434731 C167.964477,109.292151 179.428138,120.39858 190.939134,131.458566 Z M11.7952856,52.6008588 C5.98407588,52.5895508 2.14749623,50.0622233 0.551958306,45.2979403 C-1.53912212,39.0539309 2.71089831,32.0102877 9.47507433,31.8604573 C24.3279449,31.5309113 39.2210285,31.3451377 54.0500225,32.0421923 C64.6139162,32.5389345 73.5814341,37.5758199 81.1515474,44.6986188 C81.5423683,45.0661273 81.8146444,46.1226132 81.5637315,46.4671019 C77.6563601,51.8266678 73.6564148,57.1236362 69.672806,62.4319125 C66.0289141,59.8379488 62.7720731,57.3138521 59.2940601,55.1172822 C55.654357,52.8189407 51.3863245,52.6384173 47.1823815,52.6238785 C35.3865433,52.5830891 23.590705,52.6242824 11.7952856,52.6008588 Z M70.414734,62.8104977 C69.363681,63.2993914 69.5954457,63.2647102 69.6927869,63.1360539 C69.8295281,62.9525789 69.9662693,62.7702227 70.1041693,62.5878664 C70.2084634,62.6617039 70.309281,62.7355414 70.414734,62.8104977 Z" id="Combined-Shape"></path>
            </g>
        </g>
    </g>
</svg>