<?xml version="1.0" encoding="UTF-8"?>
<svg width="18px" height="18px" viewBox="0 0 18 18" version="1.1" xmlns="http://www.w3.org/2000/svg" xmlns:xlink="http://www.w3.org/1999/xlink">
    <title>Group 6</title>
    <g id="Page-1" stroke="none" stroke-width="1" fill="none" fill-rule="evenodd">
        <g id="Mobile-Copy-246" transform="translate(-76.000000, -758.000000)" fill="#4A4A4A">
            <g id="Group-6" transform="translate(76.000000, 758.000000)">
                <path d="M11.197663,0.095900363 C11.4265914,-0.0290146111 11.6735924,-0.0354835028 11.8977885,0.097658459 C12.4686784,0.436700509 13.0078848,0.821565753 13.3754907,1.38895742 C13.5181118,1.6091026 13.6083626,1.86445477 13.7103313,2.10883011 C13.7344884,2.16671204 13.7193902,2.24688573 13.7059822,2.31351306 C13.6499613,2.59183318 13.5612429,2.86623139 13.5333676,3.14694072 C13.478451,3.69979429 13.7608763,4.17781608 14.2224512,4.37587235 C14.4850912,4.48859335 14.7628519,4.51931495 15.0389,4.4694797 C15.6236937,4.36392632 16.1545623,4.51363495 16.6621978,4.78208269 C17.1302175,5.02959105 17.5343744,5.35414007 17.8072451,5.81791678 C18.0948083,6.30666747 18.0666627,6.72085685 17.6820432,7.13716496 C17.2546307,7.59981469 16.8054273,8.04253932 16.3600772,8.48828427 C14.1939676,10.6563998 12.0265734,12.823208 9.85836799,14.9891823 C8.99585864,15.8507846 8.13147892,16.710516 7.26401198,17.567092 C7.15028018,17.6793847 7.02018831,17.7793257 6.88489095,17.8647061 C6.62164251,18.0308236 6.3383834,18.0393436 6.0559806,17.9156232 C5.6272836,17.7278451 5.28067991,17.4283827 4.9937026,17.0669362 C4.81304322,16.8394205 4.65590991,16.5899738 4.51337897,16.3362445 C4.33335057,16.0157526 4.29380246,15.6692048 4.35971597,15.3020107 C4.41936489,14.9696404 4.43126312,14.631004 4.36136099,14.2953204 C4.27899727,13.899839 4.03467783,13.6736982 3.63919673,13.6118719 C3.50996117,13.5916763 3.37829188,13.5871909 3.22082055,13.5731036 C3.00753117,13.5993623 2.76949887,13.6270185 2.5319398,13.6583938 C2.30391283,13.6885068 2.0814519,13.6644119 1.86843293,13.5819392 C1.09450684,13.2823416 0.521295865,12.7518924 0.125273937,12.0298334 C-0.0705061072,11.6728948 -0.0336170725,11.320081 0.213564248,10.9964111 C0.306564276,10.8746291 0.410155536,10.759564 0.51859172,10.651103 C3.29802387,7.87078687 6.078425,5.09143996 8.8594571,2.31270163 C9.51221499,1.66047056 10.1654461,1.00869028 10.8243785,0.362747779 C10.9325217,0.256743606 11.0641008,0.168771188 11.197663,0.095900363 Z M11.1129783,3.75104955 C10.7626113,3.44013703 10.3377902,3.40592178 9.93518822,3.64416633 C9.75657949,3.74987748 9.58648881,3.88067532 9.43924816,4.027003 C7.82180934,5.63448877 6.20903517,7.24670787 4.59657648,8.85921999 C4.32359311,9.13217566 4.04448036,9.40087133 3.79272452,9.69271526 C3.53254078,9.99434143 3.41912446,10.3497698 3.54410099,10.7499621 C3.62076348,10.9953742 3.76708022,11.1992007 3.94627485,11.3789773 C4.40694836,11.8411536 4.87084431,12.3001069 5.33239666,12.7614267 C5.77272149,13.2015142 6.2072324,13.6475973 6.65307819,14.0820273 C6.9026707,14.3252306 7.19474082,14.4965773 7.61070581,14.5039027 C7.66023672,14.4942107 7.76096609,14.4818589 7.85732377,14.4541802 C8.13571542,14.3742319 8.35709469,14.2017807 8.55794501,14.0012 C10.3439647,12.2172509 12.1305252,10.4337753 13.9127365,8.64601704 C14.0702755,8.48799126 14.2226089,8.31490896 14.3352591,8.12397523 C14.6169633,7.64644931 14.5635339,7.20859325 14.1653036,6.79149624 C13.5230468,6.11882167 12.8699509,5.4563125 12.2133396,4.79756745 C11.8560546,4.43911873 11.4914007,4.08684588 11.1129783,3.75104955 Z M10.1325524,4.41192008 C10.3775704,4.24266953 10.605034,4.2597997 10.8305371,4.45648105 C10.9321454,4.54510712 11.0273988,4.64123891 11.1229227,4.73660435 C11.905795,5.51821326 12.6905602,6.29795137 13.4673933,7.08553329 C13.569655,7.18919334 13.6367629,7.33051721 13.7063946,7.46169821 C13.7291995,7.50463633 13.715814,7.57203001 13.7061918,7.62599003 C13.6682436,7.83908028 13.5391432,7.99841336 13.390866,8.14602581 C12.7104582,8.8233661 12.0299603,9.50059369 11.3507244,10.1790835 C10.3132343,11.2154135 9.27811046,12.2541101 8.23800643,13.2877804 C8.11967759,13.40537 7.98388448,13.5104049 7.84169156,13.5976335 C7.64336511,13.7193028 7.42897154,13.7091374 7.2345661,13.5845154 C7.10965717,13.5044545 6.99407754,13.4054376 6.88803002,13.3009887 C6.15340416,12.5772842 5.42121203,11.8511004 4.69152123,11.1224372 C4.58619482,11.017267 4.48645696,10.9021568 4.4065495,10.7772869 C4.38710219,10.7469034 4.37174616,10.7139003 4.35850921,10.6795406 L4.28873895,10.4672084 C4.3097862,10.269062 4.38804864,10.1057844 4.51304771,9.97250723 C4.75660097,9.71287251 5.00982155,9.46218605 5.26214074,9.21091357 C6.77934595,7.70001038 8.29704692,6.18958053 9.81621263,4.68061575 C9.91417026,4.5833119 10.0192263,4.49022297 10.1325524,4.41192008 Z" id="Combined-Shape"></path>
            </g>
        </g>
    </g>
</svg>