<?xml version="1.0" encoding="UTF-8"?>
<svg width="22px" height="22px" viewBox="0 0 22 22" version="1.1" xmlns="http://www.w3.org/2000/svg" xmlns:xlink="http://www.w3.org/1999/xlink">
    <!-- Generator: Sketch 52.3 (67297) - http://www.bohemiancoding.com/sketch -->
    <title>Group 3</title>
    <desc>Created with Sketch.</desc>
    <g id="Page-1" stroke="none" stroke-width="1" fill="none" fill-rule="evenodd">
        <g id="Mobile-Copy-93" transform="translate(-226.000000, -1026.000000)" fill="#4A4A4A">
            <g id="Group-3" transform="translate(226.000000, 1026.000000)">
                <path d="M10.0106628,9.27256719 C9.77610224,9.29759761 9.58974072,9.31768154 9.40331962,9.3373483 C6.92503312,9.59867782 5.39195939,11.666131 5.89307408,14.0713757 C6.37363419,16.3781674 8.68718615,17.6900595 10.8022226,16.8104189 C12.4993755,16.1046802 13.2648995,14.7127504 13.378754,12.9449471 C13.4404178,11.9882487 13.3957935,11.0246371 13.3984149,10.0641841 C13.3994278,9.69218432 13.3985937,9.32012499 13.3985937,8.90324928 C14.2997183,9.40206982 15.1757605,9.84403554 16.2049789,9.70815611 L16.2049789,7.7978582 C14.4475326,7.64511304 13.6006243,6.58871007 13.3720812,4.95744176 L11.4037866,4.95744176 C11.3929433,4.99945711 11.3838278,5.01793195 11.3838874,5.03640678 C11.391573,7.52157003 11.4081358,10.0066141 11.4003906,12.4917177 C11.3990203,12.9215258 11.3504639,13.3676633 11.227613,13.777447 C10.8737764,14.9577506 9.70341648,15.4072254 8.6499496,14.7902256 C7.98171724,14.398857 7.6840631,13.7991401 7.73416861,13.0257597 C7.77938868,12.3277089 8.19208889,11.907913 8.80050444,11.6613037 C9.11871317,11.5323375 9.46206401,11.466722 9.78855414,11.3564093 C9.8731556,11.3278032 9.99940242,11.2400775 10.001011,11.1767863 C10.0169781,10.5555551 10.0106628,9.93372788 10.0106628,9.27256719 M11.9584028,22 L10.0570148,22 C9.71890689,21.9426088 9.38020316,21.8881379 9.04269101,21.8272901 C2.86940607,20.7144495 -1.14106048,14.6154894 0.290312769,8.51807878 C1.61873439,2.85959449 7.04186654,-0.773690344 12.7949444,0.140515992 C17.1061036,0.825574782 20.711913,4.17714818 21.7000819,8.42987634 C21.8245413,8.96540816 21.9012189,9.51202488 22,10.0534567 L22,11.9554112 C21.940779,12.3032148 21.8819154,12.6510781 21.8221582,12.9987626 C21.0840403,17.2935061 17.5877957,20.8991382 13.3213799,21.7604231 C12.8693579,21.851665 12.4128079,21.9206774 11.9584028,22" id="Fill-1"></path>
            </g>
        </g>
    </g>
</svg>