<?xml version="1.0" encoding="UTF-8"?>
<svg width="18px" height="19px" viewBox="0 0 18 19" version="1.1" xmlns="http://www.w3.org/2000/svg" xmlns:xlink="http://www.w3.org/1999/xlink">
    <title>Group 6 Copy</title>
    <g id="Page-1" stroke="none" stroke-width="1" fill="none" fill-rule="evenodd">
        <g id="Mobile-Copy-246" transform="translate(-76.000000, -794.000000)" fill="#4A4A4A">
            <g id="Group-6-Copy" transform="translate(76.000000, 794.000000)">
                <path d="M3.31274798,11.275115 C4.19434425,10.9298168 5.05007242,11.0210974 5.84563471,11.5350292 C6.40922056,11.8990949 6.97430788,12.2633721 7.51419202,12.6599852 C8.16456259,13.1377133 8.89442504,13.4091669 9.67514427,13.5779273 C10.0948468,13.6686373 10.521306,13.6271288 10.9442474,13.6529553 C11.3138439,13.675506 11.6826896,13.7108855 12.0516426,13.7429679 C12.0969869,13.7469412 12.1416019,13.7637855 12.1855305,13.7777767 C12.3874347,13.8421106 12.5237034,13.961606 12.5571647,14.181322 C12.5953662,14.4319158 12.5275,14.6334982 12.3054976,14.7731561 C12.074851,14.918309 11.8170922,14.9983883 11.5487803,15.0105196 C11.0679038,15.032246 10.5859119,15.0326264 10.1043275,15.0360291 C9.57594029,15.0397911 9.04738148,15.0297944 8.51912297,15.0386709 C7.84168313,15.0500414 7.19785466,14.8904958 6.56119034,14.6886174 C6.35171443,14.6222123 6.14532725,14.5462543 5.92637066,14.4853231 C5.99119108,14.5453878 6.05498192,14.6066149 6.12104641,14.6653482 C6.56136193,15.0567622 7.0388709,15.3909647 7.60140573,15.5929276 C7.86191002,15.6864274 8.13062947,15.7303875 8.40859365,15.7298802 C9.37615956,15.7281472 10.3437898,15.7362206 11.3112914,15.7276188 C11.8412873,15.7228847 12.3442997,15.603199 12.7818054,15.2883559 C13.1905687,14.9942036 13.3589688,14.5276347 13.2264751,13.9733569 C13.221649,13.9532155 13.2179382,13.9328206 13.2136054,13.9118973 C13.5293637,13.729019 13.8429984,13.5488248 14.1552174,13.3662847 C14.7349119,13.0273692 15.3114532,12.6831066 15.8939361,12.3489041 C16.2344899,12.1535141 16.5942626,12.0004145 16.9929875,11.9626469 C17.3626698,11.9276479 17.6885522,12.0170475 17.9298377,12.3125313 C17.9682752,12.3595771 17.9901966,12.4312659 17.9931137,12.4927678 C18.0014576,12.6683123 18.0032594,12.8448713 17.9926633,13.0201622 C17.988116,13.0955285 17.9628056,13.1799826 17.9190915,13.2408716 C17.7309578,13.5030894 17.4777249,13.6994939 17.2093701,13.8753554 C15.9470236,14.7027143 14.6872511,15.5340464 13.4178691,16.3508802 C12.4922155,16.9464762 11.5544645,17.5238754 10.6192659,18.104973 C10.2007001,18.3650351 9.74865173,18.5256797 9.24415928,18.4966196 C8.86581139,18.4748297 8.50213496,18.3819006 8.16481998,18.2168177 C7.39546899,17.8402825 6.63332503,17.4494602 5.8678564,17.0652108 C5.34067037,16.8005625 4.81575798,16.5312857 4.2843035,16.2752181 C3.90044308,16.0902475 3.51686151,16.1120162 3.15189811,16.3357478 C2.77644591,16.5659254 2.40395373,16.800795 2.03006734,17.0335088 C2.00016672,17.0521284 1.96960117,17.0697336 1.92762448,17.0947993 C1.84021773,16.9060456 1.75454839,16.722174 1.66980138,16.5378797 C1.12837288,15.3607844 0.587180311,14.1835834 0.0455373078,13.0065727 C0.0324960063,12.9782099 0.0152720505,12.9517282 0,12.9243799 L0,12.9243799 L0,12.6921733 C0.324552522,12.5479292 0.647324735,12.3996907 0.974000758,12.2602441 C1.75201735,11.9281762 2.52514346,11.5835966 3.31274798,11.275115 Z M11.8188661,0.5 C11.8580973,0.529673073 11.9092329,0.571625388 11.9636074,0.608928076 C12.4788032,0.96244766 12.9967659,1.31207846 13.5095593,1.66893733 C14.123573,2.09623803 14.7035677,2.56272242 15.1780523,3.14331287 C15.6268404,3.6924972 15.953688,4.30265505 16.0326865,5.01111024 C16.1537905,6.09671358 15.940518,7.10540785 15.2252627,7.97017504 C14.9397268,8.31540984 14.5722967,8.53444953 14.0999571,8.53299124 C14.0714721,8.5329067 14.0427298,8.53142728 14.0145451,8.52755963 C13.9760861,8.5222971 13.9380347,8.51411798 13.8913177,8.50568525 C13.9044233,8.3079493 13.9157487,8.11285518 13.9305059,7.91801468 C13.9898138,7.13501752 14.0051717,6.35233738 13.9446412,5.56815668 C13.8560118,4.42039629 13.4096261,3.41521036 12.7131176,2.50637739 C12.7075193,2.49904366 12.6987679,2.49407702 12.6716986,2.47152633 C12.7548583,2.68536689 12.830189,2.87729081 12.9042113,3.06970082 C13.1397054,3.68184533 13.3326438,4.30565618 13.4232465,4.95620238 C13.4933435,5.45920747 13.513077,5.96529821 13.4803665,6.47176939 C13.4344002,7.18347932 13.3970138,7.89647846 13.3218332,8.60541975 C13.2610024,9.17922597 13.1013323,9.73534248 12.8775066,10.2816736 C13.2436927,10.4210779 13.499907,10.6709742 13.6460211,11.0392247 C14.147575,10.7673694 14.6544269,10.6728341 15.1773874,10.9566726 C15.5041706,11.1339925 15.7689648,11.4628902 15.84451,11.7841371 C15.6690745,11.8838716 15.4904429,11.9852969 15.3119401,12.0869124 C14.5245501,12.5350096 13.7374604,12.9836141 12.9488906,13.4296824 C12.9187969,13.4467169 12.8619772,13.4573899 12.8390906,13.4413064 C12.5290808,13.2237884 12.1779952,13.1567493 11.8070474,13.1521842 C11.1214568,13.1437937 10.4379038,13.1114577 9.76477533,12.9676151 C9.00119426,12.8044132 8.30695945,12.5073655 7.74341649,11.9558986 C7.63400255,11.8488092 7.62295605,11.8138314 7.70757436,11.6733492 C7.87511648,11.3951747 8.13115927,11.2378483 8.45167928,11.1964877 C8.61158537,11.1758603 8.7765321,11.1928948 8.95816654,11.1928948 C9.09951881,10.8235876 9.4012705,10.6138049 9.8096906,10.5673509 C10.1986346,10.5231161 10.5645417,10.5898805 10.8479326,10.8927191 C11.0698278,10.5147045 11.3901762,10.254262 11.822298,10.1823196 C12.0147216,10.1502794 12.0936987,10.0547296 12.1721824,9.91479694 C12.3984319,9.51144181 12.5069664,9.07405986 12.5647513,8.62139755 C12.5743393,8.54624268 12.5292524,8.50663631 12.4643462,8.49554061 C12.3487977,8.4758431 12.2319193,8.45720232 12.1150409,8.45257383 C11.6979552,8.43615219 11.2805049,8.42837464 10.8717845,8.32948553 C10.0423534,8.12879072 9.56919871,7.60443962 9.42728875,6.78238559 C9.33947446,6.27375869 9.38400365,5.76732978 9.45465833,5.26001322 C9.59731901,4.23551022 10.051255,3.34922793 10.6690652,2.53011162 C10.9793967,2.11864078 11.30618,1.71520111 11.5262519,1.24632851 C11.6388618,1.0064289 11.720992,0.752622681 11.8188661,0.5 Z" id="Combined-Shape"></path>
            </g>
        </g>
    </g>
</svg>