<?xml version="1.0" encoding="UTF-8"?>
<svg width="177px" height="137px" viewBox="0 0 177 137" version="1.1" xmlns="http://www.w3.org/2000/svg" xmlns:xlink="http://www.w3.org/1999/xlink">
    <title>Group 3</title>
    <g id="Page-1" stroke="none" stroke-width="1" fill="none" fill-rule="evenodd">
        <g id="Desktop-Copy-104" transform="translate(-871.000000, -821.000000)" fill="#FFFFFF">
            <g id="Group-3" transform="translate(871.000000, 821.000000)">
                <g id="Group" fill-rule="nonzero">
                    <g id="Trustpilot_ratings_4halfstar-RGB" transform="translate(0.494847, 62.321277)">
                        <path d="M33.0947161,0 L33.0947161,33.6787227 L0,33.6787227 L0,0 L33.0947161,0 Z M21.5805128,21.4000217 L16.5473581,22.6980558 L23.6834062,27.9954383 L21.5805128,21.4000217 Z M16.5473581,5.68328446 L13.8239387,14.1731291 L4.96420742,14.1731291 L12.1347292,19.4354296 L9.4113099,27.9252742 L16.5818317,22.6629738 L20.9944605,19.4354296 L28.1305087,14.1731291 L19.2707774,14.1731291 L16.5473581,5.68328446 Z" id="Combined-Shape"></path>
                        <path d="M68.9473253,0 L68.9473253,33.6787227 L35.8526091,33.6787227 L35.8526091,0 L68.9473253,0 Z M57.433122,21.4000217 L52.3999672,22.6980558 L59.5360154,27.9954383 L57.433122,21.4000217 Z M52.3999672,5.68328446 L49.6765479,14.1731291 L40.8168166,14.1731291 L47.9873384,19.4354296 L45.263919,27.9252742 L52.4344409,22.6629738 L56.8470697,19.4354296 L63.9831179,14.1731291 L55.1233866,14.1731291 L52.3999672,5.68328446 Z" id="Combined-Shape"></path>
                        <path d="M104.799934,0 L104.799934,33.6787227 L71.7052183,33.6787227 L71.7052183,0 L104.799934,0 Z M93.2857311,21.4000217 L88.2525764,22.6980558 L95.3886245,27.9954383 L93.2857311,21.4000217 Z M88.2525764,5.68328446 L85.529157,14.1731291 L76.6694257,14.1731291 L83.8399475,19.4354296 L81.1165282,27.9252742 L88.28705,22.6629738 L92.6996788,19.4354296 L99.835727,14.1731291 L90.9759957,14.1731291 L88.2525764,5.68328446 Z" id="Combined-Shape"></path>
                        <path d="M140.652544,0 L140.652544,33.6787227 L107.557827,33.6787227 L107.557827,0 L140.652544,0 Z M129.13834,21.4000217 L124.105186,22.6980558 L131.241234,27.9954383 L129.13834,21.4000217 Z M124.105186,5.68328446 L121.381766,14.1731291 L112.522035,14.1731291 L119.692557,19.4354296 L116.969137,27.9252742 L124.139659,22.6629738 L128.552288,19.4354296 L135.688336,14.1731291 L126.828605,14.1731291 L124.105186,5.68328446 Z" id="Combined-Shape"></path>
                        <path d="M176.505153,0 L176.505153,33.6787227 L143.410437,33.6787227 L143.410437,0 L176.505153,0 Z M164.990949,21.4000217 L159.957795,22.6980558 L167.093843,27.9954383 L164.990949,21.4000217 Z M159.957795,5.68328446 L157.234375,14.1731291 L148.374644,14.1731291 L155.545166,19.4354296 L152.821746,27.9252742 L159.992268,22.6629738 L164.404897,19.4354296 L171.540945,14.1731291 L162.681214,14.1731291 L159.957795,5.68328446 Z" id="Combined-Shape"></path>
                    </g>
                    <g id="Trustpilot_brandmark_gr-wht_RGB">
                        <g id="Type" transform="translate(46.491792, 15.731732)">
                            <path d="M0.0156222418,0 L17.9343336,0 L17.9343336,3.41439206 L10.8887026,3.41439206 L10.8887026,22.6083811 L7.01438658,22.6083811 L7.01438658,3.41439206 L0,3.41439206 L0,0 L0.0156222418,0 Z M17.1688438,6.23844531 L20.480759,6.23844531 L20.480759,9.39755572 L20.543248,9.39755572 C20.6526037,8.95081283 20.8556929,8.52002505 21.1525154,8.10519237 C21.449338,7.69035969 21.8086496,7.29148211 22.2304501,6.95642494 C22.6522507,6.60541268 23.1209179,6.33417592 23.6364519,6.11080448 C24.1519859,5.90338814 24.6831421,5.79170242 25.2142983,5.79170242 C25.6204766,5.79170242 25.9172992,5.80765752 26.0735216,5.82361262 C26.229744,5.83956773 26.3859665,5.87147793 26.5578111,5.88743304 L26.5578111,9.36564551 C26.3078553,9.3177802 26.0578994,9.28586999 25.7923213,9.25395979 C25.5267432,9.22204958 25.2767873,9.20609448 25.0268314,9.20609448 C24.4331862,9.20609448 23.8707855,9.3337353 23.3396293,9.57306185 C22.8084731,9.8123884 22.3554281,10.1793558 21.964872,10.6420538 C21.574316,11.1207068 21.2618711,11.6950906 21.0275375,12.3971151 C20.7932039,13.0991396 20.6838482,13.8968948 20.6838482,14.8063357 L20.6838482,22.592426 L17.1532215,22.592426 L17.1532215,6.23844531 L17.1688438,6.23844531 Z M42.7893204,22.6083811 L39.3211827,22.6083811 L39.3211827,20.3268013 L39.2586937,20.3268013 C38.821271,21.1564667 38.180759,21.8106259 37.3215357,22.3052341 C36.4623124,22.7998423 35.5874669,23.055124 34.6969991,23.055124 C32.5879965,23.055124 31.0570168,22.5286056 30.1196823,21.4596136 C29.1823477,20.3906217 28.7136805,18.7791563 28.7136805,16.6252174 L28.7136805,6.23844531 L32.2443071,6.23844531 L32.2443071,16.2742051 C32.2443071,17.7101644 32.5098853,18.731291 33.0566637,19.3216298 C33.5878199,19.9119686 34.3533098,20.2151156 35.3218888,20.2151156 C36.0717564,20.2151156 36.6810238,20.1034299 37.1809356,19.8641033 C37.6808473,19.6247768 38.0870256,19.3216298 38.3838482,18.9227523 C38.696293,18.5398298 38.9150044,18.0611767 39.0556046,17.5187032 C39.1962048,16.9762297 39.2586937,16.3858909 39.2586937,15.7476867 L39.2586937,6.25440041 L42.7893204,6.25440041 L42.7893204,22.6083811 Z M48.8038835,17.3591522 C48.9132392,18.412189 49.3037952,19.1461237 49.9755516,19.5769115 C50.6629303,19.9917442 51.4752868,20.2151156 52.4282436,20.2151156 C52.7563107,20.2151156 53.1312445,20.1832054 53.553045,20.1353401 C53.9748455,20.0874748 54.3810238,19.9757891 54.7403354,19.8321931 C55.1152692,19.6885972 55.4120918,19.4652258 55.6620477,19.1780339 C55.8963813,18.890842 56.005737,18.5238747 55.9901147,18.0611767 C55.9744925,17.5984787 55.8026478,17.2155562 55.490203,16.9283644 C55.1777582,16.6252174 54.7872021,16.401846 54.3029126,16.2103847 C53.8186231,16.0348786 53.2718447,15.8753276 52.646955,15.7476867 C52.0220653,15.6200459 51.3971756,15.47645 50.7566637,15.3328541 C50.1005296,15.1892581 49.4600177,14.9977969 48.8507502,14.7903806 C48.2414828,14.5829642 47.6947043,14.2957724 47.2104148,13.928805 C46.7261253,13.5777927 46.3355693,13.1150947 46.0543689,12.5566661 C45.7575463,11.9982375 45.6169462,11.3121681 45.6169462,10.4825027 C45.6169462,9.58901695 45.8356575,8.85508221 46.2574581,8.24878829 C46.6792586,7.64249438 47.2260371,7.16384128 47.866549,6.79687391 C48.5226831,6.42990654 49.2413063,6.17462489 50.0380406,6.01507386 C50.8347749,5.87147793 51.6002648,5.79170242 52.3188879,5.79170242 C53.1468667,5.79170242 53.9436011,5.88743304 54.6934687,6.06293917 C55.4433363,6.23844531 56.1307149,6.52563716 56.7399823,6.94046984 C57.3492498,7.33934742 57.8491615,7.86586582 58.2553398,8.50406994 C58.6615181,9.14227407 58.911474,9.92407412 59.0208297,10.833515 L55.3339806,10.833515 C55.1621359,9.97193943 54.7872021,9.38160061 54.1779347,9.09440876 C53.5686673,8.7912618 52.8656664,8.64766587 52.0845543,8.64766587 C51.8345984,8.64766587 51.5377758,8.66362097 51.1940865,8.71148628 C50.8503972,8.75935159 50.5379523,8.83912711 50.2255075,8.95081283 C49.9286849,9.06249855 49.678729,9.23800468 49.4600177,9.46137613 C49.2569285,9.68474757 49.1475728,9.97193943 49.1475728,10.3389068 C49.1475728,10.7856497 49.3037952,11.136662 49.6006178,11.4078987 C49.8974404,11.6791355 50.2879965,11.9025069 50.772286,12.0939681 C51.2565755,12.2694743 51.8033539,12.4290253 52.4282436,12.5566661 C53.0531333,12.684307 53.6936452,12.8279029 54.3497793,12.9714988 C54.9902913,13.1150947 55.6151809,13.306556 56.2400706,13.5139723 C56.8649603,13.7213887 57.4117387,14.0085805 57.8960282,14.3755479 C58.3803177,14.7425152 58.7708738,15.1892581 59.0676964,15.7317316 C59.364519,16.2742051 59.5207414,16.9602746 59.5207414,17.7580297 C59.5207414,18.731291 59.30203,19.5450013 58.8646072,20.2310707 C58.4271845,20.901185 57.8647838,21.4596136 57.1774051,21.8744463 C56.4900265,22.289279 55.7089144,22.6083811 54.8653133,22.7998423 C54.0217123,22.9913035 53.1781112,23.0870342 52.3501324,23.0870342 C51.3346867,23.0870342 50.3973522,22.9753484 49.5381289,22.7360219 C48.6789056,22.4966953 47.929038,22.1456831 47.3041483,21.6829851 C46.6792586,21.204332 46.1793469,20.6139932 45.8200353,19.9119686 C45.4607237,19.2099441 45.2732568,18.3643236 45.2420124,17.3910624 L48.8038835,17.3910624 L48.8038835,17.3591522 Z M60.4580759,6.23844531 L63.1294793,6.23844531 L63.1294793,1.32427356 L66.6601059,1.32427356 L66.6601059,6.23844531 L69.8470432,6.23844531 L69.8470432,8.93485773 L66.6601059,8.93485773 L66.6601059,17.6782542 C66.6601059,18.0611767 66.6757282,18.3802788 66.7069726,18.6674706 C66.7382171,18.9387074 66.8163283,19.1780339 66.925684,19.3694951 C67.0350397,19.5609564 67.2068844,19.7045523 67.441218,19.8002829 C67.6755516,19.8960135 67.9723742,19.9438789 68.3785525,19.9438789 C68.6285084,19.9438789 68.8784643,19.9438789 69.1284201,19.9279237 C69.378376,19.9119686 69.6283319,19.8800584 69.8782877,19.816238 L69.8782877,22.6083811 C69.4877317,22.6562464 69.0971756,22.6881566 68.7378641,22.7360219 C68.3629303,22.7838872 67.9879965,22.7998423 67.5974404,22.7998423 C66.6601059,22.7998423 65.9102383,22.7041117 65.3478376,22.5286056 C64.7854369,22.3530994 64.3323919,22.0818627 64.019947,21.7308504 C63.69188,21.3798381 63.4887908,20.9490503 63.3638129,20.4225319 C63.2544572,19.8960135 63.176346,19.2897196 63.1607237,18.6196053 L63.1607237,8.96676793 L60.4893204,8.96676793 L60.4893204,6.23844531 L60.4580759,6.23844531 Z M72.3466019,6.23844531 L75.6897617,6.23844531 L75.6897617,8.45620463 L75.7522507,8.45620463 C76.2521624,7.49889845 76.939541,6.82878412 77.8300088,6.41395144 C78.7204766,5.99911876 79.6734334,5.79170242 80.7201236,5.79170242 C81.9855252,5.79170242 83.0790821,6.01507386 84.0164166,6.47777185 C84.9537511,6.92451474 85.7348632,7.54676376 86.3597529,8.34451891 C86.9846425,9.14227407 87.4376876,10.06767 87.7501324,11.1207068 C88.0625772,12.1737437 88.2187996,13.306556 88.2187996,14.5031887 C88.2187996,15.6040908 88.0781995,16.6730827 87.7969991,17.6942093 C87.5157988,18.731291 87.0939982,19.6407319 86.5315975,20.438487 C85.9691968,21.2362422 85.2505737,21.8584912 84.3757282,22.3371443 C83.5008826,22.8157974 82.4854369,23.055124 81.2981465,23.055124 C80.7826125,23.055124 80.2670786,23.0072586 79.7515446,22.911528 C79.2360106,22.8157974 78.7360989,22.6562464 78.2674316,22.44883 C77.7987643,22.2414137 77.3457193,21.9701769 76.9551633,21.6351198 C76.548985,21.3000626 76.2209179,20.9171401 75.9397176,20.4863524 L75.8772286,20.4863524 L75.8772286,28.6553651 L72.3466019,28.6553651 L72.3466019,6.23844531 L72.3466019,6.23844531 Z M84.688173,14.4393683 C84.688173,13.7054335 84.5944395,12.9874539 84.4069726,12.2854294 C84.2195057,11.5834048 83.9383054,10.9771109 83.5633716,10.4346374 C83.1884378,9.89216391 82.7197705,9.46137613 82.1729921,9.14227407 C81.6105914,8.823172 80.9700794,8.64766587 80.2514563,8.64766587 C78.7673433,8.64766587 77.6425419,9.17418427 76.8926743,10.2272211 C76.1428067,11.2802579 75.7678729,12.684307 75.7678729,14.4393683 C75.7678729,15.2690336 75.8616064,16.0348786 76.0646955,16.7369031 C76.2677846,17.4389277 76.548985,18.0452216 76.9551633,18.5557849 C77.3457193,19.0663482 77.8143866,19.4652258 78.361165,19.7524176 C78.9079435,20.0555646 79.5484554,20.1991605 80.2670786,20.1991605 C81.0794351,20.1991605 81.7511915,20.0236544 82.3135922,19.6885972 C82.8759929,19.35354 83.329038,18.9067972 83.6883495,18.3802788 C84.0476611,17.8378052 84.3132392,17.2315113 84.4694616,16.5454419 C84.6100618,15.8593725 84.688173,15.1573479 84.688173,14.4393683 Z M90.9214475,0 L94.4520741,0 L94.4520741,3.41439206 L90.9214475,3.41439206 L90.9214475,0 Z M90.9214475,6.23844531 L94.4520741,6.23844531 L94.4520741,22.6083811 L90.9214475,22.6083811 L90.9214475,6.23844531 Z M97.607767,0 L101.138394,0 L101.138394,22.6083811 L97.607767,22.6083811 L97.607767,0 Z M111.964607,23.055124 C110.683583,23.055124 109.54316,22.8317525 108.543336,22.4009647 C107.543513,21.9701769 106.699912,21.363883 105.996911,20.6139932 C105.309532,19.8481482 104.778376,18.9387074 104.419064,17.8856706 C104.059753,16.8326338 103.872286,15.6679112 103.872286,14.4074581 C103.872286,13.16296 104.059753,12.0141926 104.419064,10.9611558 C104.778376,9.90811901 105.309532,8.99867814 105.996911,8.23283319 C106.684289,7.46698824 107.543513,6.87664943 108.543336,6.44586165 C109.54316,6.01507386 110.683583,5.79170242 111.964607,5.79170242 C113.245631,5.79170242 114.386055,6.01507386 115.385878,6.44586165 C116.385702,6.87664943 117.229303,7.48294335 117.932304,8.23283319 C118.619682,8.99867814 119.150838,9.90811901 119.51015,10.9611558 C119.869462,12.0141926 120.056929,13.16296 120.056929,14.4074581 C120.056929,15.6679112 119.869462,16.8326338 119.51015,17.8856706 C119.150838,18.9387074 118.619682,19.8481482 117.932304,20.6139932 C117.244925,21.3798381 116.385702,21.9701769 115.385878,22.4009647 C114.386055,22.8317525 113.245631,23.055124 111.964607,23.055124 Z M111.964607,20.1991605 C112.745719,20.1991605 113.433098,20.0236544 114.011121,19.6885972 C114.589144,19.35354 115.057811,18.9067972 115.432745,18.3643236 C115.807679,17.8218501 116.073257,17.1996011 116.260724,16.5135317 C116.432568,15.8274623 116.526302,15.1254377 116.526302,14.4074581 C116.526302,13.7054335 116.432568,13.0193641 116.260724,12.3173396 C116.088879,11.615315 115.807679,11.0090211 115.432745,10.4665476 C115.057811,9.92407412 114.589144,9.49328633 114.011121,9.15822917 C113.433098,8.823172 112.745719,8.64766587 111.964607,8.64766587 C111.183495,8.64766587 110.496117,8.823172 109.918094,9.15822917 C109.340071,9.49328633 108.871403,9.94002922 108.49647,10.4665476 C108.121536,11.0090211 107.855958,11.615315 107.668491,12.3173396 C107.496646,13.0193641 107.402913,13.7054335 107.402913,14.4074581 C107.402913,15.1254377 107.496646,15.8274623 107.668491,16.5135317 C107.840335,17.1996011 108.121536,17.8218501 108.49647,18.3643236 C108.871403,18.9067972 109.340071,19.35354 109.918094,19.6885972 C110.496117,20.0396095 111.183495,20.1991605 111.964607,20.1991605 Z M121.087996,6.23844531 L123.7594,6.23844531 L123.7594,1.32427356 L127.290026,1.32427356 L127.290026,6.23844531 L130.476964,6.23844531 L130.476964,8.93485773 L127.290026,8.93485773 L127.290026,17.6782542 C127.290026,18.0611767 127.305649,18.3802788 127.336893,18.6674706 C127.368138,18.9387074 127.446249,19.1780339 127.555605,19.3694951 C127.66496,19.5609564 127.836805,19.7045523 128.071139,19.8002829 C128.305472,19.8960135 128.602295,19.9438789 129.008473,19.9438789 C129.258429,19.9438789 129.508385,19.9438789 129.758341,19.9279237 C130.008297,19.9119686 130.258252,19.8800584 130.508208,19.816238 L130.508208,22.6083811 C130.117652,22.6562464 129.727096,22.6881566 129.367785,22.7360219 C128.992851,22.7838872 128.617917,22.7998423 128.227361,22.7998423 C127.290026,22.7998423 126.540159,22.7041117 125.977758,22.5286056 C125.415357,22.3530994 124.962312,22.0818627 124.649868,21.7308504 C124.321801,21.3798381 124.118711,20.9490503 123.993733,20.4225319 C123.884378,19.8960135 123.806267,19.2897196 123.790644,18.6196053 L123.790644,8.96676793 L121.119241,8.96676793 L121.119241,6.23844531 L121.087996,6.23844531 Z" id="Shape"></path>
                        </g>
                        <g id="Star">
                            <path d="M21.1993822,0 L26.1984996,15.7317316 L42.3831421,15.7317316 L29.2917034,25.4483894 L34.2908208,41.164166 L21.1993822,31.4475082 L8.09232127,41.164166 L13.1070609,25.4483894 L0,15.7157765 L16.1846425,15.7317316 L21.1993822,0 Z M29.2917034,25.4483894 L21.1993822,31.4475082 L30.4165049,29.0063774 L29.2917034,25.4483894 Z" id="Combined-Shape"></path>
                        </g>
                    </g>
                </g>
                <g id="Excellent-2" transform="translate(41.000000, 114.000000)">
                    <path d="M0,0 L11.8347067,0 L11.8347067,3.41208791 L2.87809016,3.41208791 L2.87809016,9.32005495 L11.1669898,9.32005495 L11.1669898,12.5425824 L2.87809016,12.5425824 L2.87809016,19.1456044 L11.9958798,19.1456044 L11.9958798,22.5576923 L0,22.5576923 L0,0 Z M17.3376151,13.9642857 L13.21619,6.2239011 L16.3936016,6.2239011 L18.8802714,11.2472527 L21.482065,6.2239011 L24.5213282,6.2239011 L20.4689772,13.7747253 L25.027872,22.5576923 L21.8734852,22.5576923 L18.8572467,16.5233516 L15.9331071,22.5576923 L12.8477945,22.5576923 L17.3376151,13.9642857 Z M34.5370819,11.6895604 C34.4296327,10.6785664 34.1341517,9.91506668 33.6506302,9.39903846 C33.1671086,8.88301024 32.5569596,8.625 31.8201648,8.625 C31.4824672,8.625 31.1217502,8.70398273 30.7380029,8.86195055 C30.3542556,9.01991837 30.0012134,9.31478722 29.6788657,9.74656593 C29.356518,10.1783446 29.087899,10.7786134 28.8730005,11.5473901 C28.658102,12.3161668 28.5506544,13.3218802 28.5506544,14.5645604 C28.5506544,15.2385565 28.6082156,15.9125424 28.7233398,16.5865385 C28.838464,17.2605345 29.0226599,17.8608032 29.2759331,18.3873626 C29.5292063,18.913922 29.8553866,19.3404288 30.2544838,19.6668956 C30.6535809,19.9933624 31.1370952,20.1565934 31.7050412,20.1565934 C32.4725357,20.1565934 33.1057093,19.8301315 33.6045807,19.1771978 C34.1034522,18.5242641 34.4142828,17.6080645 34.5370819,16.4285714 L37.1619001,16.4285714 C36.9163019,18.5558714 36.3291774,20.1829156 35.400509,21.3097527 C34.4718406,22.4365899 33.2400303,23 31.7050412,23 C30.7686979,23 29.9436536,22.7841139 29.2298837,22.3523352 C28.5161137,21.9205564 27.9136396,21.3308188 27.422443,20.5831044 C26.9312465,19.83539 26.5590173,18.945518 26.3057441,17.9134615 C26.0524709,16.8814051 25.9258362,15.7651159 25.9258362,14.5645604 C25.9258362,13.3429426 26.0486334,12.1950603 26.2942317,11.1208791 C26.53983,10.0466979 26.9082218,9.11470175 27.3994183,8.32486264 C27.8906148,7.53502352 28.5007638,6.91369274 29.2298837,6.46085165 C29.9590035,6.00801056 30.8147471,5.78159341 31.7971401,5.78159341 C32.4878852,5.78159341 33.1440832,5.90270025 33.7657538,6.14491758 C34.3874243,6.38713491 34.9400121,6.75045545 35.4235337,7.23489011 C35.9070553,7.71932477 36.302309,8.33012452 36.6093068,9.06730769 C36.9163047,9.80449087 37.1005006,10.6785664 37.1619001,11.6895604 L34.5370819,11.6895604 Z M47.4769753,12.9532967 C47.4462755,12.3846125 47.3580149,11.836999 47.212191,11.3104396 C47.066367,10.7838802 46.8668214,10.3257803 46.6135482,9.93612637 C46.360275,9.54647241 46.0532818,9.2305415 45.6925594,8.98832418 C45.3318369,8.74610685 44.9289083,8.625 44.4837615,8.625 C44.0232648,8.625 43.6049865,8.73557582 43.2289142,8.95673077 C42.8528419,9.17788572 42.530499,9.4832856 42.2618759,9.87293956 C41.9932528,10.2625935 41.7783576,10.7206933 41.6171837,11.2472527 C41.4560099,11.7738122 41.3677493,12.3424878 41.3523994,12.9532967 L47.4769753,12.9532967 Z M41.3523994,15.3228022 C41.3523994,15.9546735 41.4176355,16.5654732 41.5481095,17.1552198 C41.6785836,17.7449663 41.8742918,18.2609868 42.1352399,18.7032967 C42.3961881,19.1456066 42.7262058,19.4983961 43.125303,19.7616758 C43.5244001,20.0249555 44.0002396,20.1565934 44.5528357,20.1565934 C45.3203302,20.1565934 45.9381541,19.9301763 46.4063257,19.4773352 C46.8744974,19.0244941 47.2237022,18.3452426 47.4539506,17.4395604 L49.9406205,17.4395604 C49.8024714,18.3241802 49.5645517,19.1140075 49.2268541,19.8090659 C48.8891565,20.5041244 48.4823905,21.0885965 48.0065439,21.5625 C47.5306972,22.0364035 46.9972965,22.3944585 46.4063257,22.6366758 C45.8153549,22.8788932 45.1975311,23 44.5528357,23 C43.6164923,23 42.7876107,22.7893794 42.0661658,22.3681319 C41.3447209,21.9468843 40.7345719,21.3571466 40.2357004,20.5989011 C39.736829,19.8406555 39.3607623,18.934987 39.1074891,17.8818681 C38.8542159,16.8287493 38.7275812,15.670336 38.7275812,14.4065934 C38.7275812,13.2481627 38.8618907,12.14767 39.1305138,11.1050824 C39.3991369,10.0624948 39.7828784,9.14629516 40.2817499,8.35645604 C40.7806213,7.56661693 41.3830955,6.94002063 42.0891905,6.47664835 C42.7952855,6.01327607 43.5934678,5.78159341 44.4837615,5.78159341 C45.4201049,5.78159341 46.2604988,6.05013468 47.0049685,6.58722527 C47.7494382,7.12431587 48.367262,7.83516041 48.8584586,8.71978022 C49.3496551,9.60440003 49.7065347,10.6206444 49.9291081,11.768544 C50.1516815,12.9164435 50.2092427,14.1011844 50.1017935,15.3228022 L41.3523994,15.3228022 Z M52.1740184,0 L54.7988366,0 L54.7988366,22.5576923 L52.1740184,22.5576923 L52.1740184,0 Z M57.7229762,0 L60.3477945,0 L60.3477945,22.5576923 L57.7229762,22.5576923 L57.7229762,0 Z M71.376636,12.9532967 C71.3459362,12.3846125 71.2576756,11.836999 71.1118517,11.3104396 C70.9660277,10.7838802 70.7664821,10.3257803 70.5132089,9.93612637 C70.2599357,9.54647241 69.9529425,9.2305415 69.5922201,8.98832418 C69.2314976,8.74610685 68.828569,8.625 68.3834222,8.625 C67.9229255,8.625 67.5046472,8.73557582 67.1285749,8.95673077 C66.7525026,9.17788572 66.4301597,9.4832856 66.1615366,9.87293956 C65.8929135,10.2625935 65.6780183,10.7206933 65.5168444,11.2472527 C65.3556705,11.7738122 65.26741,12.3424878 65.2520601,12.9532967 L71.376636,12.9532967 Z M65.2520601,15.3228022 C65.2520601,15.9546735 65.3172962,16.5654732 65.4477702,17.1552198 C65.5782443,17.7449663 65.7739525,18.2609868 66.0349006,18.7032967 C66.2958488,19.1456066 66.6258665,19.4983961 67.0249636,19.7616758 C67.4240608,20.0249555 67.8999003,20.1565934 68.4524964,20.1565934 C69.2199909,20.1565934 69.8378148,19.9301763 70.3059864,19.4773352 C70.7741581,19.0244941 71.1233629,18.3452426 71.3536112,17.4395604 L73.8402811,17.4395604 C73.7021321,18.3241802 73.4642124,19.1140075 73.1265148,19.8090659 C72.7888172,20.5041244 72.3820512,21.0885965 71.9062046,21.5625 C71.4303579,22.0364035 70.8969572,22.3944585 70.3059864,22.6366758 C69.7150156,22.8788932 69.0971918,23 68.4524964,23 C67.516153,23 66.6872713,22.7893794 65.9658265,22.3681319 C65.2443816,21.9468843 64.6342326,21.3571466 64.1353611,20.5989011 C63.6364897,19.8406555 63.260423,18.934987 63.0071498,17.8818681 C62.7538766,16.8287493 62.6272419,15.670336 62.6272419,14.4065934 C62.6272419,13.2481627 62.7615514,12.14767 63.0301745,11.1050824 C63.2987976,10.0624948 63.6825391,9.14629516 64.1814106,8.35645604 C64.680282,7.56661693 65.2827562,6.94002063 65.9888512,6.47664835 C66.6949462,6.01327607 67.4931285,5.78159341 68.3834222,5.78159341 C69.3197655,5.78159341 70.1601595,6.05013468 70.9046292,6.58722527 C71.6490989,7.12431587 72.2669227,7.83516041 72.7581192,8.71978022 C73.2493158,9.60440003 73.6061954,10.6206444 73.8287688,11.768544 C74.0513422,12.9164435 74.1089034,14.1011844 74.0014542,15.3228022 L65.2520601,15.3228022 Z M76.0046049,6.2239011 L78.4912748,6.2239011 L78.4912748,8.625 L78.5373243,8.68818681 C78.9364214,7.78250463 79.4583099,7.07166009 80.1030053,6.55563187 C80.7477008,6.03960365 81.46146,5.78159341 82.2443044,5.78159341 C83.5490451,5.78159341 84.5774724,6.24495874 85.3296171,7.1717033 C86.0817617,8.09844786 86.4578284,9.48854385 86.4578284,11.342033 L86.4578284,22.5576923 L83.8330102,22.5576923 L83.8330102,12.2898352 C83.8023104,11.0050302 83.6027648,10.073034 83.2343674,9.49381868 C82.86597,8.91460333 82.2903578,8.625 81.5075133,8.625 C81.0623665,8.625 80.6632753,8.73557582 80.3102278,8.95673077 C79.9571803,9.17788572 79.6578619,9.4832856 79.4122637,9.87293956 C79.1666654,10.2625935 78.9747947,10.7206933 78.8366457,11.2472527 C78.6984966,11.7738122 78.6294232,12.3319568 78.6294232,12.9217033 L78.6294232,22.5576923 L76.0046049,22.5576923 L76.0046049,6.2239011 Z M88.0235095,6.2239011 L90.0036355,6.2239011 L90.0036355,1.32692308 L92.6284537,1.32692308 L92.6284537,6.2239011 L95,6.2239011 L95,8.90934066 L92.6284537,8.90934066 L92.6284537,17.6291209 C92.6284537,18.0082437 92.639966,18.3347056 92.6629908,18.6085165 C92.6860156,18.8823274 92.7397394,19.11401 92.8241638,19.3035714 C92.9085882,19.4931328 93.0352229,19.6353017 93.2040717,19.7300824 C93.3729205,19.8248631 93.6031655,19.8722527 93.8948134,19.8722527 C94.0790121,19.8722527 94.263208,19.8669872 94.4474067,19.856456 C94.6316054,19.8459249 94.8158013,19.8090663 95,19.7458791 L95,22.5260989 C94.7083521,22.5682237 94.4243833,22.6103478 94.1480853,22.6524725 C93.8717873,22.6945973 93.5878186,22.7156593 93.2961706,22.7156593 C92.6054255,22.7156593 92.0490003,22.6261456 91.6268783,22.4471154 C91.2047563,22.2680852 90.8747386,22.0048094 90.6368153,21.6572802 C90.398892,21.309751 90.2377206,20.8727133 90.1532962,20.3461538 C90.0688718,19.8195944 90.0189854,19.2193257 90.0036355,18.5453297 L90.0036355,8.90934066 L88.0235095,8.90934066 L88.0235095,6.2239011 Z" id="Excellent"></path>
                </g>
            </g>
        </g>
    </g>
</svg>