<?xml version="1.0" encoding="UTF-8"?>
<svg width="66px" height="14px" viewBox="0 0 66 14" version="1.1" xmlns="http://www.w3.org/2000/svg" xmlns:xlink="http://www.w3.org/1999/xlink">
    <title>Group 3 Copy 6</title>
    <g id="Page-1" stroke="none" stroke-width="1" fill="none" fill-rule="evenodd">
        <g id="Mobile-Copy-75" transform="translate(-57.000000, -1424.000000)" fill="#00B67A" fill-rule="nonzero">
            <g id="Group-3-Copy-6" transform="translate(57.000000, 1424.000000)">
                <g id="Trustpilot_ratings_4halfstar-RGB" transform="translate(0.005954, 0.006109)">
                    <path d="M12.0053635,0 L12.0053635,12.0730909 L0,12.0730909 L0,0 L12.0053635,0 Z M7.82849742,7.67144318 L6.00268173,8.13676023 L8.59133822,10.0357568 L7.82849742,7.67144318 Z M6.00268173,2.03733409 L5.01474036,5.08075909 L1.80080452,5.08075909 L4.4019666,6.96717955 L3.41402523,10.0106045 L6.01518732,8.12418409 L7.61590244,6.96717955 L10.2045589,5.08075909 L6.9906231,5.08075909 L6.00268173,2.03733409 Z" id="Combined-Shape"></path>
                    <path d="M25.0111739,0 L25.0111739,12.0730909 L13.0058104,12.0730909 L13.0058104,0 L25.0111739,0 Z M20.8343078,7.67144318 L19.0084921,8.13676023 L21.5971486,10.0357568 L20.8343078,7.67144318 Z M19.0084921,2.03733409 L18.0205508,5.08075909 L14.8066149,5.08075909 L17.407777,6.96717955 L16.4198356,10.0106045 L19.0209977,8.12418409 L20.6217129,6.96717955 L23.2103693,5.08075909 L19.9964335,5.08075909 L19.0084921,2.03733409 Z" id="Combined-Shape"></path>
                    <path d="M38.0169843,0 L38.0169843,12.0730909 L26.0116208,12.0730909 L26.0116208,0 L38.0169843,0 Z M33.8401182,7.67144318 L32.0143026,8.13676023 L34.602959,10.0357568 L33.8401182,7.67144318 Z M32.0143026,2.03733409 L31.0263612,5.08075909 L27.8124253,5.08075909 L30.4135874,6.96717955 L29.4256461,10.0106045 L32.0268081,8.12418409 L33.6275233,6.96717955 L36.2161798,5.08075909 L33.0022439,5.08075909 L32.0143026,2.03733409 Z" id="Combined-Shape"></path>
                    <path d="M51.0227947,0 L51.0227947,12.0730909 L39.0174312,12.0730909 L39.0174312,0 L51.0227947,0 Z M46.8459287,7.67144318 L45.020113,8.13676023 L47.6087695,10.0357568 L46.8459287,7.67144318 Z M45.020113,2.03733409 L44.0321716,5.08075909 L40.8182358,5.08075909 L43.4193978,6.96717955 L42.4314565,10.0106045 L45.0326186,8.12418409 L46.6333337,6.96717955 L49.2219902,5.08075909 L46.0080543,5.08075909 L45.020113,2.03733409 Z" id="Combined-Shape"></path>
                    <path d="M64.0286051,0 L64.0286051,12.0730909 L52.0232416,12.0730909 L52.0232416,0 L64.0286051,0 Z M59.8517391,7.67144318 L58.0259234,8.13676023 L60.6145799,10.0357568 L59.8517391,7.67144318 Z M58.0259234,2.03733409 L57.037982,5.08075909 L53.8240462,5.08075909 L56.4252082,6.96717955 L55.4372669,10.0106045 L58.038429,8.12418409 L59.6391441,6.96717955 L62.2278006,5.08075909 L59.0138647,5.08075909 L58.0259234,2.03733409 Z" id="Combined-Shape"></path>
                </g>
            </g>
        </g>
    </g>
</svg>