<?xml version="1.0" encoding="UTF-8"?>
<svg width="241px" height="21px" viewBox="0 0 241 21" version="1.1" xmlns="http://www.w3.org/2000/svg" xmlns:xlink="http://www.w3.org/1999/xlink">
    <title>Group 3</title>
    <g id="Page-1" stroke="none" stroke-width="1" fill="none" fill-rule="evenodd">
        <g id="Artboard-Copy-77" transform="translate(-162.000000, -404.000000)" fill="#4A4A4A">
            <g id="Group-3" transform="translate(162.000000, 404.000000)">
                <g id="Group" fill-rule="nonzero">
                    <g id="Trustpilot_ratings_4halfstar-RGB" transform="translate(88.867257, 2.969697)">
                        <path d="M17.2748893,1.13686838e-13 L17.2748893,18.030303 L0,18.030303 L0,1.13686838e-13 L17.2748893,1.13686838e-13 Z M11.2646674,11.4567551 L8.63744463,12.151673 L12.3623426,14.9876894 L11.2646674,11.4567551 Z M8.63744463,3.04261364 L7.2158652,7.58775253 L2.59123339,7.58775253 L6.33412606,10.4049874 L4.91254664,14.9501263 L8.65543931,12.1328914 L10.9587579,10.4049874 L14.6836559,7.58775253 L10.0590241,7.58775253 L8.63744463,3.04261364 Z" id="Combined-Shape"></path>
                        <path d="M35.9893526,1.13686838e-13 L35.9893526,18.030303 L18.7144634,18.030303 L18.7144634,1.13686838e-13 L35.9893526,1.13686838e-13 Z M29.9791307,11.4567551 L27.351908,12.151673 L31.076806,14.9876894 L29.9791307,11.4567551 Z M27.351908,3.04261364 L25.9303286,7.58775253 L21.3056968,7.58775253 L25.0485894,10.4049874 L23.62701,14.9501263 L27.3699027,12.1328914 L29.6732213,10.4049874 L33.3981192,7.58775253 L28.7734874,7.58775253 L27.351908,3.04261364 Z" id="Combined-Shape"></path>
                        <path d="M54.703816,1.13686838e-13 L54.703816,18.030303 L37.4289267,18.030303 L37.4289267,1.13686838e-13 L54.703816,1.13686838e-13 Z M48.6935941,11.4567551 L46.0663714,12.151673 L49.7912694,14.9876894 L48.6935941,11.4567551 Z M46.0663714,3.04261364 L44.6447919,7.58775253 L40.0201601,7.58775253 L43.7630528,10.4049874 L42.3414734,14.9501263 L46.0843661,12.1328914 L48.3876846,10.4049874 L52.1125826,7.58775253 L47.4879508,7.58775253 L46.0663714,3.04261364 Z" id="Combined-Shape"></path>
                        <path d="M73.4182794,1.13686838e-13 L73.4182794,18.030303 L56.1433901,18.030303 L56.1433901,1.13686838e-13 L73.4182794,1.13686838e-13 Z M67.4080575,11.4567551 L64.7808348,12.151673 L68.5057327,14.9876894 L67.4080575,11.4567551 Z M64.7808348,3.04261364 L63.3592553,7.58775253 L58.7346235,7.58775253 L62.4775162,10.4049874 L61.0559368,14.9501263 L64.7988294,12.1328914 L67.102148,10.4049874 L70.827046,7.58775253 L66.2024142,7.58775253 L64.7808348,3.04261364 Z" id="Combined-Shape"></path>
                        <path d="M92.1327428,1.13686838e-13 L92.1327428,18.030303 L74.8578535,18.030303 L74.8578535,1.13686838e-13 L92.1327428,1.13686838e-13 Z M86.1225209,11.4567551 L83.4952981,12.151673 L87.2201961,14.9876894 L86.1225209,11.4567551 Z M83.4952981,3.04261364 L82.0737187,7.58775253 L77.4490869,7.58775253 L81.1919796,10.4049874 L79.7704001,14.9501263 L83.5132928,12.1328914 L85.8166114,10.4049874 L89.5415094,7.58775253 L84.9168776,7.58775253 L83.4952981,3.04261364 Z" id="Combined-Shape" fill-opacity="0.503600647"></path>
                        <path d="M83.8578535,0 L83.8578535,4.202 L83.4952981,3.04261364 L82.0737187,7.58775253 L77.4490869,7.58775253 L81.1919796,10.4049874 L79.7704001,14.9501263 L83.5132928,12.1328914 L83.8578535,11.873 L83.8578535,12.055 L83.4952981,12.151673 L83.8578535,12.427 L83.8578535,18.030303 L74.8578535,18.030303 L74.8578535,0 L83.8578535,0 Z" id="Combined-Shape"></path>
                    </g>
                    <g id="Trustpilot_brandmark_gr-wht_RGB">
                        <g id="Type" transform="translate(20.980318, 7.275658)">
                            <path d="M0.007049838,0 L8.09321403,0 L8.09321403,1.57909819 L4.91373709,1.57909819 L4.91373709,10.4559913 L3.16537726,10.4559913 L3.16537726,1.57909819 L0,1.57909819 L0,0 L0.007049838,0 Z M7.74777197,2.88517473 L9.24233762,2.88517473 L9.24233762,4.34620951 L9.27053698,4.34620951 C9.31988584,4.13959853 9.41153374,3.94036652 9.54548066,3.74851347 C9.67942758,3.55666041 9.84157385,3.37218633 10.0319195,3.21722809 C10.2222651,3.0548909 10.4337602,2.92944852 10.6664049,2.82614303 C10.8990496,2.7302165 11.138744,2.67856376 11.3784385,2.67856376 C11.5617343,2.67856376 11.6956812,2.68594272 11.7661796,2.69332168 C11.836678,2.70070065 11.9071764,2.71545857 11.9847246,2.72283754 L11.9847246,4.33145158 C11.8719272,4.30931469 11.7591298,4.29455677 11.6392825,4.27979884 C11.5194353,4.26504091 11.4066379,4.25766195 11.2938405,4.25766195 C11.0259466,4.25766195 10.7721525,4.31669366 10.532458,4.42737811 C10.2927635,4.53806256 10.0883182,4.70777872 9.91207223,4.92176867 C9.73582628,5.14313757 9.59482952,5.40878026 9.48908195,5.73345465 C9.38333438,6.05812905 9.33398552,6.42707722 9.33398552,6.84767814 L9.33398552,10.4486123 L7.74072213,10.4486123 L7.74072213,2.88517473 L7.74777197,2.88517473 Z M19.3095063,10.4559913 L17.7444423,10.4559913 L17.7444423,9.40079952 L17.7162429,9.40079952 C17.5188474,9.78450562 17.2298041,10.0870431 16.842063,10.315791 C16.4543219,10.5445389 16.059531,10.6626023 15.6576902,10.6626023 C14.7059621,10.6626023 14.015078,10.4190965 13.5920877,9.92470593 C13.1690974,9.43031537 12.9576023,8.68504006 12.9576023,7.68887998 L12.9576023,2.88517473 L14.5508656,2.88517473 L14.5508656,7.52654279 C14.5508656,8.1906495 14.6707129,8.66290317 14.9174572,8.93592482 C15.1571517,9.20894647 15.5025938,9.34914677 15.9396837,9.34914677 C16.278076,9.34914677 16.5530196,9.29749403 16.7786144,9.18680958 C17.0042093,9.07612512 17.1875051,8.93592482 17.321452,8.75145073 C17.4624487,8.57435561 17.5611465,8.3529867 17.624595,8.10210194 C17.6880436,7.85121718 17.7162429,7.57819553 17.7162429,7.28303699 L17.7162429,2.8925537 L19.3095063,2.8925537 L19.3095063,10.4559913 Z M22.0236939,8.02831231 C22.0730428,8.5153239 22.2492887,8.85475622 22.5524318,9.05398823 C22.8626246,9.24584129 23.2292162,9.34914677 23.6592563,9.34914677 C23.8073029,9.34914677 23.9764991,9.33438885 24.1668447,9.31225196 C24.3571903,9.29011507 24.5404861,9.23846232 24.7026324,9.17205165 C24.8718285,9.10564098 25.0057754,9.00233549 25.1185728,8.86951415 C25.2243204,8.7366928 25.2736692,8.56697664 25.2666194,8.3529867 C25.2595696,8.13899676 25.1820214,7.96190163 25.0410246,7.82908029 C24.9000278,7.68887998 24.7237819,7.58557449 24.5052369,7.49702693 C24.2866919,7.41585833 24.0399476,7.3420687 23.7579541,7.28303699 C23.4759606,7.22400528 23.193967,7.15759461 22.9049237,7.09118394 C22.6088305,7.02477327 22.3197871,6.9362257 22.0448434,6.84029918 C21.7698998,6.74437265 21.5231554,6.61155131 21.3046104,6.44183515 C21.0860655,6.27949795 20.9098195,6.06550801 20.7829224,5.80724429 C20.6489755,5.54898056 20.585527,5.23168513 20.585527,4.84797903 C20.585527,4.43475707 20.6842247,4.09532475 20.8745703,3.81492414 C21.064916,3.53452352 21.3116603,3.31315462 21.6007036,3.14343846 C21.8967968,2.9737223 22.2210894,2.85565888 22.5806311,2.78186925 C22.9401729,2.71545857 23.2856149,2.67856376 23.6099075,2.67856376 C23.9835489,2.67856376 24.3430906,2.72283754 24.6814829,2.80400614 C25.0198751,2.88517473 25.3300679,3.01799608 25.6050116,3.20984913 C25.8799553,3.39432322 26.1055501,3.63782901 26.2888459,3.93298755 C26.4721417,4.22814609 26.5849391,4.58971531 26.634288,5.01031623 L24.9705262,5.01031623 C24.892978,4.6118522 24.7237819,4.33883055 24.4488382,4.2060092 C24.1738945,4.0658089 23.8566518,3.99939823 23.5041599,3.99939823 C23.3913625,3.99939823 23.2574156,4.00677719 23.1023191,4.02891408 C22.9472227,4.05105097 22.8062259,4.08794579 22.6652292,4.13959853 C22.5312823,4.19125128 22.4184849,4.27241988 22.3197871,4.37572536 C22.2281392,4.47903085 22.1787904,4.6118522 22.1787904,4.78156836 C22.1787904,4.98817934 22.2492887,5.15051653 22.3832357,5.27595891 C22.5171826,5.40140129 22.6934285,5.50470678 22.9119735,5.59325435 C23.1305185,5.67442294 23.3772628,5.74821258 23.6592563,5.80724429 C23.9412499,5.866276 24.2302932,5.93268667 24.5263864,5.99909734 C24.8154298,6.06550801 25.0974233,6.15405557 25.3794168,6.2499821 C25.6614103,6.34590862 25.9081547,6.47872997 26.1266996,6.64844613 C26.3452446,6.81816229 26.5214906,7.02477327 26.6554375,7.27565803 C26.7893844,7.52654279 26.8598828,7.84383822 26.8598828,8.21278639 C26.8598828,8.66290317 26.7611851,9.03923031 26.5637896,9.35652574 C26.3663941,9.66644221 26.1126,9.92470593 25.8024071,10.116559 C25.4922142,10.308412 25.1397223,10.4559913 24.7590311,10.5445389 C24.3783398,10.6330864 23.9976486,10.6773602 23.6240072,10.6773602 C23.1657677,10.6773602 22.7427774,10.6257075 22.3550363,10.515023 C21.9672952,10.4043386 21.628903,10.2420014 21.3469095,10.0280114 C21.064916,9.80664251 20.8393211,9.53362086 20.6771749,9.20894647 C20.5150286,8.88427207 20.4304305,8.49318701 20.4163309,8.04307023 L22.0236939,8.04307023 L22.0236939,8.02831231 Z M27.2828731,2.88517473 L28.4883954,2.88517473 L28.4883954,0.612453972 L30.0816588,0.612453972 L30.0816588,2.88517473 L31.5198257,2.88517473 L31.5198257,4.13221957 L30.0816588,4.13221957 L30.0816588,8.17589158 C30.0816588,8.3529867 30.0887086,8.50056597 30.1028083,8.63338731 C30.116908,8.75882969 30.1521571,8.86951415 30.201506,8.95806171 C30.2508549,9.04660927 30.3284031,9.11301994 30.4341507,9.15729372 C30.5398982,9.2015675 30.6738452,9.22370439 30.8571409,9.22370439 C30.9699384,9.22370439 31.0827358,9.22370439 31.1955332,9.21632543 C31.3083306,9.20894647 31.421128,9.19418854 31.5339254,9.16467269 L31.5339254,10.4559913 C31.3576794,10.4781282 31.1814335,10.4928861 31.0192872,10.515023 C30.8500911,10.5371599 30.680895,10.5445389 30.504649,10.5445389 C30.0816588,10.5445389 29.7432665,10.5002651 29.4894724,10.4190965 C29.2356782,10.3379279 29.0312329,10.2124855 28.8902361,10.0501483 C28.7421895,9.88781111 28.6505416,9.6885791 28.5941429,9.4450733 C28.5447941,9.2015675 28.5095449,8.92116689 28.5024951,8.61125042 L28.5024951,4.1469775 L27.2969728,4.1469775 L27.2969728,2.88517473 L27.2828731,2.88517473 Z M32.6477998,2.88517473 L34.1564651,2.88517473 L34.1564651,3.91085066 L34.1846645,3.91085066 C34.4102593,3.46811285 34.7204522,3.15819638 35.1222929,2.96634333 C35.5241337,2.77449028 35.9541738,2.67856376 36.426513,2.67856376 C36.9975498,2.67856376 37.4910385,2.78186925 37.9140288,2.99585919 C38.3370191,3.20247017 38.689511,3.49024974 38.9715045,3.85919792 C39.253498,4.22814609 39.4579433,4.65612598 39.5989401,5.14313757 C39.7399368,5.63014916 39.8104352,6.15405557 39.8104352,6.70747784 C39.8104352,7.21662632 39.7469867,7.71101687 39.6200896,8.18327054 C39.4931925,8.66290317 39.3028469,9.08350409 39.0490527,9.45245226 C38.7952585,9.82140044 38.470966,10.10918 38.0761751,10.3305489 C37.6813841,10.5519178 37.2231447,10.6626023 36.687357,10.6626023 C36.4547123,10.6626023 36.2220677,10.6404654 35.989423,10.5961916 C35.7567784,10.5519178 35.5311835,10.4781282 35.3196884,10.3822017 C35.1081933,10.2862751 34.903748,10.1608328 34.727502,10.0058745 C34.5442062,9.85091629 34.3961596,9.67382117 34.2692625,9.47458915 L34.2410632,9.47458915 L34.2410632,13.2526185 L32.6477998,13.2526185 L32.6477998,2.88517473 L32.6477998,2.88517473 Z M38.2171718,6.67796198 C38.2171718,6.33852966 38.1748728,6.0064763 38.0902747,5.68180191 C38.0056767,5.35712751 37.8787796,5.0767269 37.7095835,4.82584214 C37.5403874,4.57495738 37.3288922,4.37572536 37.0821479,4.22814609 C36.8283537,4.08056682 36.5393104,3.99939823 36.2150178,3.99939823 C35.5452832,3.99939823 35.0376949,4.24290402 34.6993027,4.72991561 C34.3609104,5.21692721 34.1917143,5.866276 34.1917143,6.67796198 C34.1917143,7.06166808 34.2340133,7.41585833 34.3256612,7.74053273 C34.4173091,8.06520712 34.5442062,8.34560774 34.727502,8.58173457 C34.903748,8.8178614 35.1152431,9.00233549 35.3619874,9.13515683 C35.6087318,9.27535714 35.8977751,9.34176781 36.2220677,9.34176781 C36.5886592,9.34176781 36.8918023,9.26059921 37.1455964,9.10564098 C37.3993906,8.95068274 37.6038359,8.74407177 37.7659822,8.50056597 C37.9281285,8.24968121 38.0479757,7.9692806 38.1184741,7.65198517 C38.1819226,7.33468973 38.2171718,7.01001534 38.2171718,6.67796198 Z M41.0300572,0 L42.6233206,0 L42.6233206,1.57909819 L41.0300572,1.57909819 L41.0300572,0 Z M41.0300572,2.88517473 L42.6233206,2.88517473 L42.6233206,10.4559913 L41.0300572,10.4559913 L41.0300572,2.88517473 Z M44.0473879,0 L45.6406512,0 L45.6406512,10.4559913 L44.0473879,10.4559913 L44.0473879,0 Z M50.526189,10.6626023 C49.9481023,10.6626023 49.4334641,10.5592968 48.9822745,10.3600648 C48.5310848,10.1608328 48.1503936,9.88043215 47.8331509,9.53362086 C47.522958,9.17943061 47.2832635,8.75882969 47.1211172,8.2718181 C46.9589709,7.78480651 46.8743729,7.24614217 46.8743729,6.66320405 C46.8743729,6.0876449 46.9589709,5.55635953 47.1211172,5.06934794 C47.2832635,4.58233634 47.522958,4.16173542 47.8331509,3.80754517 C48.1433437,3.45335493 48.5310848,3.18033328 48.9822745,2.98110126 C49.4334641,2.78186925 49.9481023,2.67856376 50.526189,2.67856376 C51.1042757,2.67856376 51.6189139,2.78186925 52.0701035,2.98110126 C52.5212931,3.18033328 52.9019844,3.46073389 53.2192271,3.80754517 C53.52942,4.16173542 53.7691145,4.58233634 53.9312607,5.06934794 C54.093407,5.55635953 54.1780051,6.0876449 54.1780051,6.66320405 C54.1780051,7.24614217 54.093407,7.78480651 53.9312607,8.2718181 C53.7691145,8.75882969 53.52942,9.17943061 53.2192271,9.53362086 C52.9090342,9.88781111 52.5212931,10.1608328 52.0701035,10.3600648 C51.6189139,10.5592968 51.1042757,10.6626023 50.526189,10.6626023 Z M50.526189,9.34176781 C50.8786809,9.34176781 51.1888737,9.26059921 51.4497178,9.10564098 C51.7105618,8.95068274 51.9220569,8.74407177 52.091253,8.49318701 C52.2604491,8.24230225 52.3802964,7.95452267 52.4648944,7.63722724 C52.5424426,7.31993181 52.5847417,6.99525741 52.5847417,6.66320405 C52.5847417,6.33852966 52.5424426,6.02123423 52.4648944,5.69655983 C52.3873462,5.37188544 52.2604491,5.09148483 52.091253,4.84060007 C51.9220569,4.58971531 51.7105618,4.39048329 51.4497178,4.23552506 C51.1888737,4.08056682 50.8786809,3.99939823 50.526189,3.99939823 C50.1736971,3.99939823 49.8635042,4.08056682 49.6026602,4.23552506 C49.3418162,4.39048329 49.1303211,4.59709427 48.9611249,4.84060007 C48.7919288,5.09148483 48.6720816,5.37188544 48.5874835,5.69655983 C48.5099353,6.02123423 48.4676363,6.33852966 48.4676363,6.66320405 C48.4676363,6.99525741 48.5099353,7.31993181 48.5874835,7.63722724 C48.6650317,7.95452267 48.7919288,8.24230225 48.9611249,8.49318701 C49.1303211,8.74407177 49.3418162,8.95068274 49.6026602,9.10564098 C49.8635042,9.26797818 50.1736971,9.34176781 50.526189,9.34176781 Z M54.6432944,2.88517473 L55.8488167,2.88517473 L55.8488167,0.612453972 L57.4420801,0.612453972 L57.4420801,2.88517473 L58.880247,2.88517473 L58.880247,4.13221957 L57.4420801,4.13221957 L57.4420801,8.17589158 C57.4420801,8.3529867 57.4491299,8.50056597 57.4632296,8.63338731 C57.4773292,8.75882969 57.5125784,8.86951415 57.5619273,8.95806171 C57.6112762,9.04660927 57.6888244,9.11301994 57.794572,9.15729372 C57.9003195,9.2015675 58.0342665,9.22370439 58.2175622,9.22370439 C58.3303596,9.22370439 58.4431571,9.22370439 58.5559545,9.21632543 C58.6687519,9.20894647 58.7815493,9.19418854 58.8943467,9.16467269 L58.8943467,10.4559913 C58.7181007,10.4781282 58.5418548,10.4928861 58.3797085,10.515023 C58.2105124,10.5371599 58.0413163,10.5445389 57.8650703,10.5445389 C57.4420801,10.5445389 57.1036878,10.5002651 56.8498937,10.4190965 C56.5960995,10.3379279 56.3916542,10.2124855 56.2506574,10.0501483 C56.1026108,9.88781111 56.0109629,9.6885791 55.9545642,9.4450733 C55.9052154,9.2015675 55.8699662,8.92116689 55.8629163,8.61125042 L55.8629163,4.1469775 L54.657394,4.1469775 L54.657394,2.88517473 L54.6432944,2.88517473 Z" id="Shape"></path>
                        </g>
                        <g id="Star">
                            <path d="M9.56663017,0 L11.8225783,7.27565803 L19.1262105,7.27565803 L13.2184463,11.7694468 L15.4743944,19.0377259 L9.56663017,14.5439371 L3.65181609,19.0377259 L5.91481409,11.7694468 L0,7.26827906 L7.30363217,7.27565803 L9.56663017,0 Z M13.2184463,11.7694468 L9.56663017,14.5439371 L13.7260346,13.4149557 L13.2184463,11.7694468 Z" id="Combined-Shape"></path>
                        </g>
                    </g>
                </g>
                <g id="Excellent-2" transform="translate(191.000000, 8.000000)">
                    <path d="M0,0 L6.22879302,0 L6.22879302,1.63186813 L1.51478429,1.63186813 L1.51478429,4.45741758 L5.87736306,4.45741758 L5.87736306,5.99862637 L1.51478429,5.99862637 L1.51478429,9.15659341 L6.31362094,9.15659341 L6.31362094,10.7884615 L0,10.7884615 L0,0 Z M9.12506059,6.67857143 L6.95588948,2.97664835 L8.62821134,2.97664835 L9.93698497,5.37912088 L11.30635,2.97664835 L12.9059622,2.97664835 L10.7731459,6.58791209 L13.1725642,10.7884615 L11.5123606,10.7884615 L9.9248667,7.90247253 L8.38584586,10.7884615 L6.76199709,10.7884615 L9.12506059,6.67857143 Z M18.1774115,5.59065934 C18.1208593,5.10714044 17.965343,4.74198841 17.710858,4.49519231 C17.4563729,4.2483962 17.1352419,4.125 16.7474552,4.125 C16.5697196,4.125 16.3798685,4.16277435 16.1778963,4.23832418 C15.975924,4.313874 15.7901123,4.45489823 15.6204556,4.6614011 C15.450799,4.86790396 15.3094205,5.154989 15.196316,5.52266484 C15.0832116,5.89034067 15.0266602,6.37133402 15.0266602,6.96565934 C15.0266602,7.28800527 15.0569556,7.61034637 15.1175473,7.93269231 C15.1781389,8.25503824 15.2750842,8.54212328 15.4083858,8.79395604 C15.5416875,9.0457888 15.7133614,9.24977028 15.9234125,9.40590659 C16.1334636,9.56204291 16.3879449,9.64010989 16.6868638,9.64010989 C17.0908083,9.64010989 17.4240575,9.48397592 17.6866214,9.1717033 C17.9491853,8.85943067 18.1127804,8.42124824 18.1774115,7.85714286 L19.5588948,7.85714286 C19.4296326,8.87454721 19.1206197,9.65269877 18.6318468,10.1916209 C18.143074,10.730543 17.4947528,11 16.6868638,11 C16.1940515,11 15.7598177,10.8967501 15.3841493,10.6902473 C15.0084809,10.4837444 14.6913892,10.2016959 14.4328648,9.84409341 C14.1743403,9.48649089 13.9784301,9.0608999 13.8451285,8.56730769 C13.7118268,8.07371548 13.6451769,7.53983804 13.6451769,6.96565934 C13.6451769,6.38140734 13.7098071,5.83242015 13.8390693,5.31868132 C13.9683316,4.80494249 14.162222,4.35920519 14.4207465,3.98145604 C14.679271,3.6037069 15.000402,3.3065487 15.3841493,3.08997253 C15.7678966,2.87339635 16.2182879,2.76510989 16.7353369,2.76510989 C17.0988869,2.76510989 17.4442543,2.82303056 17.7714493,2.93887363 C18.0986444,3.0547167 18.3894801,3.2284787 18.6439651,3.46016484 C18.8984501,3.69185098 19.1064784,3.9839726 19.2680562,4.33653846 C19.429634,4.68910433 19.5265793,5.10714044 19.5588948,5.59065934 L18.1774115,5.59065934 Z M24.9878817,6.19505495 C24.9717239,5.92307556 24.925271,5.66117342 24.8485216,5.40934066 C24.7717721,5.1575079 24.6667481,4.93841668 24.5334464,4.75206044 C24.4001448,4.5657042 24.2385694,4.41460681 24.0487155,4.29876374 C23.8588615,4.18292067 23.6467939,4.125 23.4125061,4.125 C23.1701394,4.125 22.9499929,4.17788409 22.7520601,4.28365385 C22.5541273,4.38942361 22.3844732,4.53548442 22.2430926,4.72184066 C22.101712,4.9081969 21.9886092,5.12728812 21.9037809,5.37912088 C21.8189526,5.63095364 21.7724996,5.90292894 21.7644207,6.19505495 L24.9878817,6.19505495 Z M21.7644207,7.3282967 C21.7644207,7.63049602 21.7987555,7.92261764 21.8674261,8.20467033 C21.9360966,8.48672302 22.0391009,8.73351543 22.1764421,8.94505495 C22.3137832,9.15659446 22.4874767,9.32531988 22.6975279,9.45123626 C22.907579,9.57715264 23.1580208,9.64010989 23.4488609,9.64010989 C23.8528054,9.64010989 24.1779758,9.53182343 24.424382,9.31524725 C24.6707881,9.09867108 24.8545801,8.77381169 24.9757635,8.34065934 L26.2845371,8.34065934 C26.2118271,8.76373838 26.0866062,9.14148185 25.9088706,9.4739011 C25.731135,9.80632034 25.5170476,10.0858505 25.266602,10.3125 C25.0161564,10.5391495 24.7354192,10.7103932 24.424382,10.8262363 C24.1133447,10.9420793 23.7881743,11 23.4488609,11 C22.9560486,11 22.5197951,10.8992684 22.1400873,10.6978022 C21.7603794,10.496336 21.4392484,10.2142875 21.1766844,9.85164835 C20.9141205,9.48900918 20.7161907,9.05586332 20.582889,8.5521978 C20.4495873,8.04853228 20.3829375,7.49450852 20.3829375,6.89010989 C20.3829375,6.33607782 20.4536267,5.80975524 20.5950073,5.31112637 C20.7363878,4.81249751 20.9383571,4.37431508 21.200921,3.99656593 C21.4634849,3.61881679 21.7805766,3.3191403 22.1522055,3.09752747 C22.5238345,2.87591464 22.9439304,2.76510989 23.4125061,2.76510989 C23.9053183,2.76510989 24.3476309,2.89354267 24.7394571,3.15041209 C25.1312833,3.4072815 25.4564537,3.74725063 25.7149782,4.17032967 C25.9735027,4.59340871 26.161334,5.07943865 26.2784779,5.62843407 C26.3956218,6.17742948 26.4259172,6.7440447 26.369365,7.3282967 L21.7644207,7.3282967 Z M27.4600097,0 L28.841493,0 L28.841493,10.7884615 L27.4600097,10.7884615 L27.4600097,0 Z M30.3805138,0 L31.7619971,0 L31.7619971,10.7884615 L30.3805138,10.7884615 L30.3805138,0 Z M37.5666505,6.19505495 C37.5504927,5.92307556 37.5040398,5.66117342 37.4272904,5.40934066 C37.3505409,5.1575079 37.2455169,4.93841668 37.1122152,4.75206044 C36.9789135,4.5657042 36.8173382,4.41460681 36.6274842,4.29876374 C36.4376303,4.18292067 36.2255627,4.125 35.9912748,4.125 C35.7489081,4.125 35.5287617,4.17788409 35.3308289,4.28365385 C35.1328961,4.38942361 34.9632419,4.53548442 34.8218614,4.72184066 C34.6804808,4.9081969 34.567378,5.12728812 34.4825497,5.37912088 C34.3977213,5.63095364 34.3512684,5.90292894 34.3431895,6.19505495 L37.5666505,6.19505495 Z M34.3431895,7.3282967 C34.3431895,7.63049602 34.3775243,7.92261764 34.4461949,8.20467033 C34.5148654,8.48672302 34.6178697,8.73351543 34.7552109,8.94505495 C34.892552,9.15659446 35.0662455,9.32531988 35.2762967,9.45123626 C35.4863478,9.57715264 35.7367896,9.64010989 36.0276297,9.64010989 C36.4315742,9.64010989 36.7567446,9.53182343 37.0031508,9.31524725 C37.2495569,9.09867108 37.4333489,8.77381169 37.5545322,8.34065934 L38.8633059,8.34065934 C38.7905959,8.76373838 38.6653749,9.14148185 38.4876394,9.4739011 C38.3099038,9.80632034 38.0958164,10.0858505 37.8453708,10.3125 C37.5949252,10.5391495 37.314188,10.7103932 37.0031508,10.8262363 C36.6921135,10.9420793 36.366943,11 36.0276297,11 C35.5348174,11 35.0985639,10.8992684 34.718856,10.6978022 C34.3391482,10.496336 34.0180171,10.2142875 33.7554532,9.85164835 C33.4928893,9.48900918 33.2949595,9.05586332 33.1616578,8.5521978 C33.0283561,8.04853228 32.9617063,7.49450852 32.9617063,6.89010989 C32.9617063,6.33607782 33.0323955,5.80975524 33.1737761,5.31112637 C33.3151566,4.81249751 33.5171258,4.37431508 33.7796898,3.99656593 C34.0422537,3.61881679 34.3593454,3.3191403 34.7309743,3.09752747 C35.1026032,2.87591464 35.5226992,2.76510989 35.9912748,2.76510989 C36.4840871,2.76510989 36.9263997,2.89354267 37.3182259,3.15041209 C37.710052,3.4072815 38.0352225,3.74725063 38.293747,4.17032967 C38.5522714,4.59340871 38.7401028,5.07943865 38.8572467,5.62843407 C38.9743906,6.17742948 39.004686,6.7440447 38.9481338,7.3282967 L34.3431895,7.3282967 Z M40.0024237,2.97664835 L41.3111973,2.97664835 L41.3111973,4.125 L41.3354338,4.15521978 C41.545485,3.72206743 41.8201631,3.3820983 42.1594765,3.1353022 C42.4987899,2.88850609 42.8744526,2.76510989 43.286476,2.76510989 C43.9731817,2.76510989 44.5144592,2.9867194 44.9103248,3.42994505 C45.3061904,3.87317071 45.5041202,4.53799923 45.5041202,5.42445055 L45.5041202,10.7884615 L44.1226369,10.7884615 L44.1226369,5.87774725 C44.1064792,5.26327532 44.0014552,4.81753802 43.8075618,4.54052198 C43.6136684,4.26350594 43.3107146,4.125 42.8986912,4.125 C42.6644034,4.125 42.4543554,4.17788409 42.268541,4.28365385 C42.0827265,4.38942361 41.9251905,4.53548442 41.7959283,4.72184066 C41.666666,4.9081969 41.5656814,5.12728812 41.4929714,5.37912088 C41.4202614,5.63095364 41.3839069,5.89789236 41.3839069,6.17994505 L41.3839069,10.7884615 L40.0024237,10.7884615 L40.0024237,2.97664835 Z M46.3281629,2.97664835 L47.3703345,2.97664835 L47.3703345,0.634615385 L48.7518177,0.634615385 L48.7518177,2.97664835 L50,2.97664835 L50,4.26098901 L48.7518177,4.26098901 L48.7518177,8.43131868 C48.7518177,8.61263827 48.7578768,8.76877224 48.7699952,8.89972527 C48.7821135,9.03067831 48.8103892,9.14148306 48.8548231,9.23214286 C48.899257,9.32280265 48.9659068,9.39079648 49.0547746,9.43612637 C49.1436424,9.48145627 49.2648239,9.50412088 49.4183228,9.50412088 C49.5152695,9.50412088 49.6122147,9.50160259 49.7091614,9.49656593 C49.8061081,9.49152928 49.9030533,9.47390125 50,9.44368132 L50,10.7733516 C49.8465011,10.7934983 49.6970439,10.8136446 49.5516238,10.8337912 C49.4062038,10.8539378 49.2567466,10.864011 49.1032477,10.864011 C48.7396976,10.864011 48.4468423,10.8212001 48.2246728,10.7355769 C48.0025033,10.6499538 47.8288098,10.5240393 47.703587,10.3578297 C47.5783642,10.19162 47.4935371,9.98260199 47.4491032,9.73076923 C47.4046694,9.47893647 47.3784134,9.19185143 47.3703345,8.86950549 L47.3703345,4.26098901 L46.3281629,4.26098901 L46.3281629,2.97664835 Z" id="Excellent"></path>
                </g>
            </g>
        </g>
    </g>
</svg>