<?xml version="1.0" encoding="UTF-8"?>
<svg width="63px" height="64px" viewBox="0 0 63 64" version="1.1" xmlns="http://www.w3.org/2000/svg" xmlns:xlink="http://www.w3.org/1999/xlink">
    <!-- Generator: Sketch 52.3 (67297) - http://www.bohemiancoding.com/sketch -->
    <title>Fill 27</title>
    <desc>Created with Sketch.</desc>
    <g id="Page-1" stroke="none" stroke-width="1" fill="none" fill-rule="evenodd">
        <g id="Artboard-Copy" transform="translate(-821.000000, -2509.000000)" fill="#4A4A4A">
            <g id="Fill-27" transform="translate(821.000000, 2509.000000)">
                <path d="M50.0856611,19.2943012 C49.7337167,19.1461531 49.66605,19.0892642 49.6228833,19.1046716 C49.3809944,19.1888198 49.1387167,19.2769185 48.9084944,19.388721 C46.99905,20.3190914 45.3781611,20.6722765 43.24355,19.2532148 C39.0902167,16.4917333 33.4132167,18.9687704 32.0509389,23.8268444 C31.7242722,24.9906963 31.7923278,26.268721 31.6628278,27.6660543 C25.3192722,27.2769185 20.2123833,24.4593383 15.9034944,19.6751407 C13.8828278,23.7138568 15.0137167,26.9126716 18.0272167,30.0463012 C16.7353278,29.7199802 15.83855,29.4932148 14.76055,29.2210173 C15.0778833,32.8919309 16.9593278,35.1943506 19.83905,36.9223506 C19.1561611,36.9650173 18.4736611,37.0068938 17.6476611,37.0582519 C18.8053833,40.3163259 21.2188278,41.7626469 24.4792722,42.4200296 C21.2413833,44.931437 17.7316611,45.6453136 13.5927167,45.6133136 C14.1997722,46.0139062 14.3957722,46.160079 14.6061611,46.2793877 C27.8299389,53.7776593 44.5929944,45.6271407 46.9624944,30.4472889 C47.4104944,27.5787457 47.5921056,24.7832889 50.3018833,23.0414617 C50.51305,22.9059556 50.5908278,22.5563259 50.82805,22.1320296 C49.6178278,22.4204247 48.6176056,22.659437 47.4513278,22.9375605 C48.43055,21.5832889 49.2374944,20.4672395 50.0856611,19.2943012 M31.6029389,0.185165432 C48.7027722,0.0619061728 62.8198278,14.2130173 62.9586611,31.6166716 C63.1009944,49.4023506 49.2087167,63.8043259 31.79855,63.8165728 C15.5709944,63.8284247 0.543161111,51.3468444 0.38955,32.2088691 C0.239438889,13.5109926 14.7838833,0.405214815 31.6029389,0.185165432" id="Fill-5"></path>
            </g>
        </g>
    </g>
</svg>