<?xml version="1.0" encoding="UTF-8"?>
<svg width="478px" height="329px" viewBox="0 0 478 329" version="1.1" xmlns="http://www.w3.org/2000/svg" xmlns:xlink="http://www.w3.org/1999/xlink">
    <title>WINTECHPRIZES</title>
    <defs>
        <text id="text-1" font-family="Montserrat-ExtraBoldItalic, Montserrat" font-size="49" font-style="italic" font-weight="700" line-spacing="35" fill="#FFFFFF">
            <tspan x="394.431" y="28.688">Win</tspan>
        </text>
        <filter x="-0.7%" y="-28.6%" width="101.4%" height="154.3%" filterUnits="objectBoundingBox" id="filter-2">
            <feOffset dx="0" dy="2" in="SourceAlpha" result="shadowOffsetOuter1"></feOffset>
            <feGaussianBlur stdDeviation="2" in="shadowOffsetOuter1" result="shadowBlurOuter1"></feGaussianBlur>
            <feColorMatrix values="0 0 0 0 0   0 0 0 0 0   0 0 0 0 0  0 0 0 0.5 0" type="matrix" in="shadowBlurOuter1"></feColorMatrix>
        </filter>
        <filter x="-3.0%" y="-4.9%" width="106.1%" height="110.8%" filterUnits="objectBoundingBox" id="filter-3">
            <feOffset dx="0" dy="2" in="SourceAlpha" result="shadowOffsetOuter1"></feOffset>
            <feGaussianBlur stdDeviation="2" in="shadowOffsetOuter1" result="shadowBlurOuter1"></feGaussianBlur>
            <feColorMatrix values="0 0 0 0 0   0 0 0 0 0   0 0 0 0 0  0 0 0 0.5 0" type="matrix" in="shadowBlurOuter1" result="shadowMatrixOuter1"></feColorMatrix>
            <feMerge>
                <feMergeNode in="shadowMatrixOuter1"></feMergeNode>
                <feMergeNode in="SourceGraphic"></feMergeNode>
            </feMerge>
        </filter>
    </defs>
    <g id="Page-1" stroke="none" stroke-width="1" fill="none" fill-rule="evenodd">
        <g id="WINTECHPRIZES" transform="translate(-253.000000, 5.000000)">
            <g id="Group-2-Copy" fill="#FFFFFF" fill-opacity="1">
                <g id="Win">
                    <use filter="url(#filter-2)" xlink:href="#text-1"></use>
                    <use xlink:href="#text-1"></use>
                </g>
            </g>
            <g id="TECH-PRIZES" filter="url(#filter-3)" transform="translate(259.000000, 70.000000)" fill-rule="nonzero">
                <path d="M33.9551084,117 L73.0448916,117 L73.0448916,32.0642857 L107,32.0642857 L107,2 L0,2 L0,32.0642857 L33.9551084,32.0642857 L33.9551084,117 Z M154.666667,87.7571429 L154.666667,72.6428571 L204,72.6428571 L204,44.7142857 L154.666667,44.7142857 L154.666667,31.2428571 L210.833333,31.2428571 L210.833333,2 L116,2 L116,117 L213,117 L213,87.7571429 L154.666667,87.7571429 Z M288.261364,121 C310.835227,121 328.630682,112.734973 340,97.8579235 L315.448864,75.8729508 C308.693182,84.4685792 300.619318,89.4275956 290.238636,89.4275956 C274.090909,89.4275956 263.215909,78.1871585 263.215909,60.5 C263.215909,42.8128415 274.090909,31.5724044 290.238636,31.5724044 C300.619318,31.5724044 308.693182,36.5314208 315.448864,45.1270492 L340,23.1420765 C328.630682,8.26502732 310.835227,0 288.261364,0 C251.1875,0 224,24.9603825 224,60.5 C224,96.0396175 251.1875,121 288.261364,121 Z M426.008696,2 L426.008696,42.7428571 L389.991304,42.7428571 L389.991304,2 L351,2 L351,117 L389.991304,117 L389.991304,74.6142857 L426.008696,74.6142857 L426.008696,117 L465,117 L465,2 L426.008696,2 Z" id="Combined-Shape" fill="#FFFFFF"></path>
                <path d="M41.9945,156.9 L0.5435,156.9 L0.5435,243 L29.5715,243 L29.5715,221.844 L41.9945,221.844 C65.9795,221.844 81.2315,209.298 81.2315,189.372 C81.2315,169.446 65.9795,156.9 41.9945,156.9 Z M40.1495,199.458 L29.5715,199.458 L29.5715,179.286 L40.1495,179.286 C48.1445,179.286 51.9575,183.099 51.9575,189.372 C51.9575,195.645 48.1445,199.458 40.1495,199.458 Z M142.2395,243 L173.2355,243 L155.1545,216.432 C165.4865,211.143 171.3905,201.795 171.3905,189.372 C171.3905,169.446 156.1385,156.9 132.1535,156.9 L90.7025,156.9 L90.7025,243 L119.7305,243 L119.7305,221.352 L127.6025,221.352 L142.2395,243 Z M142.1165,189.372 C142.1165,195.645 138.3035,199.458 130.3085,199.458 L119.7305,199.458 L119.7305,179.286 L130.3085,179.286 C138.3035,179.286 142.1165,183.099 142.1165,189.372 Z M182.3375,243 L211.3655,243 L211.3655,156.9 L182.3375,156.9 L182.3375,243 Z M260.0735,220.491 L299.4335,174.735 L299.4335,156.9 L223.5425,156.9 L223.5425,179.409 L261.6725,179.409 L222.3125,225.165 L222.3125,243 L301.4015,243 L301.4015,220.491 L260.0735,220.491 Z M338.4245,221.106 L338.4245,209.79 L374.8325,209.79 L374.8325,188.88 L338.4245,188.88 L338.4245,178.794 L379.8755,178.794 L379.8755,156.9 L309.8885,156.9 L309.8885,243 L381.4745,243 L381.4745,221.106 L338.4245,221.106 Z M424.7705,244.968 C451.4615,244.968 464.8685,231.684 464.8685,215.94 C464.8685,184.206 417.2675,192.816 417.2675,182.484 C417.2675,179.532 419.9735,177.072 428.4605,177.072 C435.9635,177.072 443.9585,179.163 452.4455,183.468 L461.1785,162.435 C452.1995,157.392 440.2685,154.932 428.7065,154.932 C402.0155,154.932 388.6085,167.97 388.6085,183.96 C388.6085,216.063 436.2095,207.33 436.2095,218.154 C436.2095,221.106 433.2575,222.828 425.0165,222.828 C415.5455,222.828 404.7215,219.753 396.6035,214.956 L387.2555,236.112 C395.8655,241.401 410.3795,244.968 424.7705,244.968 Z" id="Combined-Shape" stroke="#FFFFFF" stroke-width="5" stroke-linejoin="round"></path>
            </g>
        </g>
    </g>
</svg>