<?xml version="1.0" encoding="UTF-8"?>
<svg width="515px" height="321px" viewBox="0 0 515 321" version="1.1" xmlns="http://www.w3.org/2000/svg" xmlns:xlink="http://www.w3.org/1999/xlink">
    <title>Group 2</title>
    <defs>
        <filter x="-2.7%" y="-5.1%" width="105.6%" height="111.2%" filterUnits="objectBoundingBox" id="filter-1">
            <feOffset dx="0" dy="2" in="SourceAlpha" result="shadowOffsetOuter1"></feOffset>
            <feGaussianBlur stdDeviation="2" in="shadowOffsetOuter1" result="shadowBlurOuter1"></feGaussianBlur>
            <feColorMatrix values="0 0 0 0 0   0 0 0 0 0   0 0 0 0 0  0 0 0 0.5 0" type="matrix" in="shadowBlurOuter1" result="shadowMatrixOuter1"></feColorMatrix>
            <feMerge>
                <feMergeNode in="shadowMatrixOuter1"></feMergeNode>
                <feMergeNode in="SourceGraphic"></feMergeNode>
            </feMerge>
        </filter>
        <text id="text-2" font-family="Montserrat-ExtraBoldItalic, Montserrat" font-size="49" font-style="italic" font-weight="700" line-spacing="35" fill="#FFFFFF">
            <tspan x="426.918" y="31.9711914">Win</tspan>
        </text>
        <filter x="-0.7%" y="-9.2%" width="101.4%" height="117.4%" filterUnits="objectBoundingBox" id="filter-3">
            <feOffset dx="0" dy="2" in="SourceAlpha" result="shadowOffsetOuter1"></feOffset>
            <feGaussianBlur stdDeviation="2" in="shadowOffsetOuter1" result="shadowBlurOuter1"></feGaussianBlur>
            <feColorMatrix values="0 0 0 0 0   0 0 0 0 0   0 0 0 0 0  0 0 0 0.5 0" type="matrix" in="shadowBlurOuter1"></feColorMatrix>
        </filter>
    </defs>
    <g id="Page-1" stroke="none" stroke-width="1" fill="none" fill-rule="evenodd">
        <g id="Desktop-Copy-104" transform="translate(-235.000000, -1637.000000)">
            <g id="Group-2" transform="translate(0.000000, 1642.000000)">
                <g id="Group-13-Copy" filter="url(#filter-1)" transform="translate(241.000000, 70.000000)">
                    <path d="M24.5491412,85.0983607 L24.5491412,23.6516393 L0,23.6516393 L0,1.90163934 L77.3597328,1.90163934 L77.3597328,23.6516393 L52.8105916,23.6516393 L52.8105916,85.0983607 L24.5491412,85.0983607 Z M134.840649,85.0983607 L120.590172,64.1803279 L112.92605,64.1803279 L112.92605,85.0983607 L84.6645992,85.0983607 L84.6645992,1.90163934 L125.020992,1.90163934 C148.372615,1.90163934 163.221851,14.0245902 163.221851,33.2786885 C163.221851,45.2827869 157.47376,54.3155738 147.414599,59.4262295 L165.01813,85.0983607 L134.840649,85.0983607 Z M134.720897,33.2786885 C134.720897,27.2172131 131.008588,23.5327869 123.224714,23.5327869 L112.92605,23.5327869 L112.92605,43.0245902 L123.224714,43.0245902 C131.008588,43.0245902 134.720897,39.3401639 134.720897,33.2786885 Z M173.879771,85.0983607 L173.879771,1.90163934 L202.141221,1.90163934 L202.141221,85.0983607 L173.879771,85.0983607 Z M256.149332,1.90163934 C279.500954,1.90163934 294.350191,14.0245902 294.350191,33.2786885 C294.350191,52.5327869 279.500954,64.6557377 256.149332,64.6557377 L244.054389,64.6557377 L244.054389,85.0983607 L215.792939,85.0983607 L215.792939,1.90163934 L256.149332,1.90163934 Z M254.353053,43.0245902 C262.136927,43.0245902 265.849237,39.3401639 265.849237,33.2786885 C265.849237,27.2172131 262.136927,23.5327869 254.353053,23.5327869 L244.054389,23.5327869 L244.054389,43.0245902 L254.353053,43.0245902 Z M336.023855,87 C322.012882,87 307.882156,83.5532787 299.499523,78.442623 L308.600668,58 C316.504294,62.6352459 327.042462,65.6065574 336.263359,65.6065574 C344.286737,65.6065574 347.160782,63.942623 347.160782,61.0901639 C347.160782,50.6311475 300.816794,59.0696721 300.816794,28.0491803 C300.816794,12.5983607 313.869752,0 339.855916,0 C351.112595,0 362.728531,2.37704918 371.47042,7.25 L362.968034,27.5737705 C354.705153,23.4139344 346.921279,21.3934426 339.616412,21.3934426 C331.353531,21.3934426 328.718989,23.7704918 328.718989,26.6229508 C328.718989,36.6065574 375.062977,28.2868852 375.062977,58.9508197 C375.062977,74.1639344 362.010019,87 336.023855,87 Z M502,44.9262295 C500.443225,51.8196721 497.808683,58.1188525 494.096374,63.704918 L502,70.3606557 L487.510019,86.6434426 L478.648378,79.0368852 C470.625,84.147541 461.164599,87 450.626431,87 C430.508111,87 415.658874,76.7786885 415.658874,62.8729508 C415.658874,52.4139344 420.808206,45.045082 431.945134,38.8647541 C427.035305,33.6352459 424.760019,28.4057377 424.760019,22.9385246 C424.760019,9.62704918 436.73521,0.475409836 454.9375,0.475409836 C471.583015,0.475409836 482.719943,8.67622951 482.719943,21.5122951 C482.719943,29.9508197 478.049618,36.3688525 468.229962,41.8360656 L477.091603,49.3237705 C478.528626,46.1147541 479.606393,42.4303279 480.324905,38.5081967 L502,44.9262295 Z M455.057252,17.8278689 C451.344943,17.8278689 449.30916,19.8483607 449.30916,22.5819672 C449.30916,24.602459 450.147424,26.147541 453.500477,29.2377049 C458.410305,26.6229508 460.086832,24.3647541 460.086832,22.1065574 C460.086832,19.6106557 458.410305,17.8278689 455.057252,17.8278689 Z M452.662214,67.0327869 C455.895515,67.0327869 459.128817,66.3196721 462.122615,65.0122951 L446.79437,51.9385246 C443.441317,54.3155738 442.124046,56.8114754 442.124046,59.9016393 C442.124046,63.8237705 445.956107,67.0327869 452.662214,67.0327869 Z" id="TRIPS-&amp;-STAYS" fill="#FFFFFF"></path>
                    <g id="TRIPS-&amp;-STAYS-2" transform="translate(1.000000, 127.000000)" stroke="#FFFFFF" stroke-linejoin="round" stroke-width="5">
                        <path d="M45.5726215,110 C28.0906651,110 10.4592902,105.642077 0,99.1803279 L11.3558008,73.3333333 C21.2174172,79.1939891 34.3662392,82.9508197 45.8714584,82.9508197 C55.8824933,82.9508197 59.4685356,80.8469945 59.4685356,77.2404372 C59.4685356,64.0163934 1.64360274,74.6857923 1.64360274,35.4644809 C1.64360274,15.9289617 17.9302118,0 50.3540113,0 C64.3993439,0 78.8929317,3.00546448 89.8004772,9.16666667 L79.1917686,34.863388 C68.8818968,29.6038251 59.1696988,27.0491803 50.0551745,27.0491803 C39.7453027,27.0491803 36.4580972,30.0546448 36.4580972,33.6612022 C36.4580972,46.284153 94.2830301,35.7650273 94.2830301,74.5355191 C94.2830301,93.7704918 77.9964211,110 45.5726215,110 Z M125.959738,107.595628 L125.959738,29.9043716 L95.3289591,29.9043716 L95.3289591,2.40437158 L191.853266,2.40437158 L191.853266,29.9043716 L161.222487,29.9043716 L161.222487,107.595628 L125.959738,107.595628 Z M274.033403,107.595628 L267.010737,89.2622951 L227.265434,89.2622951 L220.242768,107.595628 L184.382344,107.595628 L230.104384,2.40437158 L264.76946,2.40437158 L310.4915,107.595628 L274.033403,107.595628 Z M236.977632,63.715847 L257.298539,63.715847 L247.138085,37.2677596 L236.977632,63.715847 Z M411.050104,2.40437158 L371.603639,69.4262295 L371.603639,107.595628 L336.340889,107.595628 L336.340889,68.9754098 L296.894423,2.40437158 L334.099612,2.40437158 L355.466448,38.7704918 L376.982702,2.40437158 L411.050104,2.40437158 Z M452.289591,110 C434.807635,110 417.17626,105.642077 406.71697,99.1803279 L418.072771,73.3333333 C427.934387,79.1939891 441.083209,82.9508197 452.588428,82.9508197 C462.599463,82.9508197 466.185506,80.8469945 466.185506,77.2404372 C466.185506,64.0163934 408.360573,74.6857923 408.360573,35.4644809 C408.360573,15.9289617 424.647182,0 457.070981,0 C471.116314,0 485.609902,3.00546448 496.517447,9.16666667 L485.908738,34.863388 C475.598867,29.6038251 465.886669,27.0491803 456.772144,27.0491803 C446.462273,27.0491803 443.175067,30.0546448 443.175067,33.6612022 C443.175067,46.284153 501,35.7650273 501,74.5355191 C501,93.7704918 484.713391,110 452.289591,110 Z" id="TRIPS-&amp;-STAYS"></path>
                    </g>
                </g>
                <g id="Win" fill="#FFFFFF" fill-opacity="1">
                    <use filter="url(#filter-3)" xlink:href="#text-2"></use>
                    <use xlink:href="#text-2"></use>
                </g>
            </g>
        </g>
    </g>
</svg>