<?xml version="1.0" encoding="UTF-8"?>
<svg width="689px" height="339px" viewBox="0 0 689 339" version="1.1" xmlns="http://www.w3.org/2000/svg" xmlns:xlink="http://www.w3.org/1999/xlink">
    <title>WINLIFESTYLEPRIZES</title>
    <defs>
        <text id="text-1" font-family="Montserrat-ExtraBoldItalic, Montserrat" font-size="49" font-style="italic" font-weight="700" line-spacing="35" fill="#FFFFFF">
            <tspan x="394.431" y="28.688">Win</tspan>
        </text>
        <filter x="-0.7%" y="-28.6%" width="101.4%" height="154.3%" filterUnits="objectBoundingBox" id="filter-2">
            <feOffset dx="0" dy="2" in="SourceAlpha" result="shadowOffsetOuter1"></feOffset>
            <feGaussianBlur stdDeviation="2" in="shadowOffsetOuter1" result="shadowBlurOuter1"></feGaussianBlur>
            <feColorMatrix values="0 0 0 0 0   0 0 0 0 0   0 0 0 0 0  0 0 0 0.5 0" type="matrix" in="shadowBlurOuter1"></feColorMatrix>
        </filter>
        <filter x="-2.1%" y="-4.7%" width="104.2%" height="110.4%" filterUnits="objectBoundingBox" id="filter-3">
            <feOffset dx="0" dy="2" in="SourceAlpha" result="shadowOffsetOuter1"></feOffset>
            <feGaussianBlur stdDeviation="2" in="shadowOffsetOuter1" result="shadowBlurOuter1"></feGaussianBlur>
            <feColorMatrix values="0 0 0 0 0   0 0 0 0 0   0 0 0 0 0  0 0 0 0.5 0" type="matrix" in="shadowBlurOuter1" result="shadowMatrixOuter1"></feColorMatrix>
            <feMerge>
                <feMergeNode in="shadowMatrixOuter1"></feMergeNode>
                <feMergeNode in="SourceGraphic"></feMergeNode>
            </feMerge>
        </filter>
    </defs>
    <g id="Page-1" stroke="none" stroke-width="1" fill="none" fill-rule="evenodd">
        <g id="WINLIFESTYLEPRIZES" transform="translate(-147.000000, 5.000000)">
            <g id="Win" fill="#FFFFFF" fill-opacity="1">
                <use filter="url(#filter-2)" xlink:href="#text-1"></use>
                <use xlink:href="#text-1"></use>
            </g>
            <g id="LIFESTYLE-PRIZES" filter="url(#filter-3)" transform="translate(154.000000, 70.000000)" fill-rule="nonzero">
                <path d="M2.2635,88.068 L70.1595,88.068 L70.1595,65.559 L31.2915,65.559 L31.2915,1.968 L2.2635,1.968 L2.2635,88.068 Z M78.1545,88.068 L107.1825,88.068 L107.1825,1.968 L78.1545,1.968 L78.1545,88.068 Z M191.1915,23.862 L191.1915,1.968 L121.2045,1.968 L121.2045,88.068 L150.2325,88.068 L150.2325,60.516 L186.1485,60.516 L186.1485,38.622 L150.2325,38.622 L150.2325,23.862 L191.1915,23.862 Z M228.9525,66.174 L228.9525,54.858 L265.3605,54.858 L265.3605,33.948 L228.9525,33.948 L228.9525,23.862 L270.4035,23.862 L270.4035,1.968 L200.4165,1.968 L200.4165,88.068 L272.0025,88.068 L272.0025,66.174 L228.9525,66.174 Z M315.2985,90.036 C341.9895,90.036 355.3965,76.752 355.3965,61.008 C355.3965,29.274 307.7955,37.884 307.7955,27.552 C307.7955,24.6 310.5015,22.14 318.9885,22.14 C326.4915,22.14 334.4865,24.231 342.9735,28.536 L351.7065,7.503 C342.7275,2.46 330.7965,-9.09494702e-13 319.2345,-9.09494702e-13 C292.5435,-9.09494702e-13 279.1365,13.038 279.1365,29.028 C279.1365,61.131 326.7375,52.398 326.7375,63.222 C326.7375,66.174 323.7855,67.896 315.5445,67.896 C306.0735,67.896 295.2495,64.821 287.1315,60.024 L277.7835,81.18 C286.3935,86.469 300.9075,90.036 315.2985,90.036 Z M461.0535,1.968 L478.6425,31.734 L496.3545,1.968 L524.3985,1.968 L491.9265,56.826 L491.9265,88.068 L462.8985,88.068 L462.8985,56.457 L435.7145,10.842 L435.7155,24.477 L410.5005,24.477 L410.5005,88.068 L381.4725,88.068 L381.4725,24.477 L356.2575,24.477 L356.2575,1.968 L461.0535,1.968 Z M528.0885,88.068 L595.9845,88.068 L595.9845,65.559 L557.1165,65.559 L557.1165,1.968 L528.0885,1.968 L528.0885,88.068 Z M632.5155,66.174 L632.5155,54.858 L668.9235,54.858 L668.9235,33.948 L632.5155,33.948 L632.5155,23.862 L673.9665,23.862 L673.9665,1.968 L603.9795,1.968 L603.9795,88.068 L675.5655,88.068 L675.5655,66.174 L632.5155,66.174 Z" id="Combined-Shape" fill="#FFFFFF"></path>
                <g id="Combined-Shape-3" transform="translate(0.000000, 124.068000)" stroke="#FFFFFF" stroke-linejoin="round" stroke-width="5">
                    <path d="M60.2582781,2.86338798 L0,2.86338798 L0,128.136612 L42.1986755,128.136612 L42.1986755,97.3551913 L60.2582781,97.3551913 C95.1258278,97.3551913 117.298013,79.1010929 117.298013,50.1092896 C117.298013,21.1174863 95.1258278,2.86338798 60.2582781,2.86338798 Z M57.5761589,64.784153 L42.1986755,64.784153 L42.1986755,35.4344262 L57.5761589,35.4344262 C69.1986755,35.4344262 74.7417219,40.9822404 74.7417219,50.1092896 C74.7417219,59.2363388 69.1986755,64.784153 57.5761589,64.784153 Z M205.986755,128.136612 L251.046358,128.136612 L224.761589,89.4808743 C239.781457,81.7855191 248.364238,68.1844262 248.364238,50.1092896 C248.364238,21.1174863 226.192053,2.86338798 191.324503,2.86338798 L131.066225,2.86338798 L131.066225,128.136612 L173.264901,128.136612 L173.264901,96.6393443 L184.708609,96.6393443 L205.986755,128.136612 Z M205.807947,50.1092896 C205.807947,59.2363388 200.264901,64.784153 188.642384,64.784153 L173.264901,64.784153 L173.264901,35.4344262 L188.642384,35.4344262 C200.264901,35.4344262 205.807947,40.9822404 205.807947,50.1092896 Z M264.278146,128.136612 L306.476821,128.136612 L306.476821,2.86338798 L264.278146,2.86338798 L264.278146,128.136612 Z M377.284768,95.386612 L434.503311,28.8128415 L434.503311,2.86338798 L324.178808,2.86338798 L324.178808,35.613388 L379.609272,35.613388 L322.390728,102.187158 L322.390728,128.136612 L437.364238,128.136612 L437.364238,95.386612 L377.284768,95.386612 Z M491.18543,96.2814208 L491.18543,79.8169399 L544.112583,79.8169399 L544.112583,49.3934426 L491.18543,49.3934426 L491.18543,34.7185792 L551.443709,34.7185792 L551.443709,2.86338798 L449.701987,2.86338798 L449.701987,128.136612 L553.768212,128.136612 L553.768212,96.2814208 L491.18543,96.2814208 Z M616.708609,131 C655.509934,131 675,111.672131 675,88.7650273 C675,42.5928962 605.801325,55.1202186 605.801325,40.0874317 C605.801325,35.7923497 609.735099,32.2131148 622.072848,32.2131148 C632.980132,32.2131148 644.602649,35.2554645 656.940397,41.5191257 L669.635762,10.9166667 C656.582781,3.57923497 639.238411,0 622.430464,0 C583.629139,0 564.139073,18.9699454 564.139073,42.2349727 C564.139073,88.9439891 633.337748,76.2377049 633.337748,91.9863388 C633.337748,96.2814208 629.046358,98.7868852 617.066225,98.7868852 C603.298013,98.7868852 587.562914,94.3128415 575.761589,87.3333333 L562.172185,118.114754 C574.688742,125.810109 595.788079,131 616.708609,131 Z" id="Combined-Shape"></path>
                </g>
            </g>
        </g>
    </g>
</svg>