<?xml version="1.0" encoding="UTF-8"?>
<svg width="43px" height="42px" viewBox="0 0 43 42" version="1.1" xmlns="http://www.w3.org/2000/svg" xmlns:xlink="http://www.w3.org/1999/xlink">
    <!-- Generator: Sketch 53.2 (72643) - https://sketchapp.com -->
    <title>Combined Shape 3</title>
    <desc>Created with Sketch.</desc>
    <g id="Page-1" stroke="none" stroke-width="1" fill="none" fill-rule="evenodd">
        <g id="Desktop-Copy-22" transform="translate(-451.000000, -440.000000)" fill="#4A4A4A">
            <g id="Group" transform="translate(306.000000, 440.000000)">
                <g id="Combined-Shape-3" transform="translate(145.000000, 0.000000)">
                    <path d="M34.5343877,26.0907194 C35.0320049,23.1812249 34.8788991,20.2526009 34.7090313,17.3353265 C34.6486318,16.298588 34.3554366,15.2245975 33.9279578,14.2706003 C33.3456876,12.9710847 32.2271259,12.1260975 30.7404548,11.9992395 C24.9535249,11.5056286 19.1586354,11.5372058 13.3644014,11.8773241 C12.6603957,11.9186948 11.9208059,11.9726049 11.2725177,12.2133237 C9.61869444,12.8272941 8.66157268,14.1369693 8.43860948,15.7788 C7.95344679,19.3533376 7.81335735,22.9561573 8.54639219,26.5177894 C9.03960815,28.913903 10.3365592,29.9081725 12.808913,30.0079381 C15.7764493,30.1277484 18.7452966,30.2177205 21.7134884,30.320598 C21.7139567,30.2514028 21.7145185,30.1822076 21.7149867,30.1129208 C24.2336001,30.1129208 26.752307,30.1237211 29.2707331,30.1054155 C29.9098443,30.1008391 30.5599118,30.0599261 31.1849766,29.9379191 C33.0742175,29.569061 34.1570078,28.2970037 34.5343877,26.0907194 Z M24.9244957,0.261038079 C36.8699296,2.21223365 44.8480981,13.2755986 42.6295159,24.8155502 C40.4660892,36.0681952 29.5184179,43.6654834 18.0228434,41.6863717 C9.25517358,40.1768907 3.55280301,35.0629423 0.837071854,26.7945703 C0.435625715,25.5721213 0.273062034,24.2748023 -1.13686838e-13,23.0119894 L-1.13686838e-13,18.9674552 C0.0899906087,18.5177777 0.180636716,18.0682834 0.269690898,17.6184228 C1.96331228,9.0715309 7.07339295,3.47477196 15.5345703,0.818077964 C16.7854491,0.42533098 18.1133959,0.266895876 19.4057584,-5.1159077e-13 L23.5437345,-5.1159077e-13 C24.0038946,0.0875008429 24.4622755,0.185618943 24.9244957,0.261038079 Z M18.6950573,26.1433206 L18.6950573,15.7629382 C21.506304,17.5322675 24.2303694,19.2466799 27.0750465,21.0370606 C24.262957,22.7505578 21.5274673,24.4174672 18.6950573,26.1433206 Z" id="Combined-Shape"></path>
                </g>
            </g>
        </g>
    </g>
</svg>